%TF.GenerationSoftware,KiCad,Pcbnew,8.0.0*%
%TF.CreationDate,2024-11-03T15:14:55-05:00*%
%TF.ProjectId,macintosh-dram-1m-simm,6d616369-6e74-46f7-9368-2d6472616d2d,rev?*%
%TF.SameCoordinates,Original*%
%TF.FileFunction,Drillmap*%
%TF.FilePolarity,Positive*%
%FSLAX45Y45*%
G04 Gerber Fmt 4.5, Leading zero omitted, Abs format (unit mm)*
G04 Created by KiCad (PCBNEW 8.0.0) date 2024-11-03 15:14:55*
%MOMM*%
%LPD*%
G01*
G04 APERTURE LIST*
%ADD10C,0.050000*%
%ADD11C,0.200000*%
%ADD12C,0.320000*%
G04 APERTURE END LIST*
D10*
X11633200Y-12268200D02*
X11633200Y-12700000D01*
X20325000Y-11125000D02*
X11430000Y-11125000D01*
X11633200Y-12700000D02*
X20332700Y-12700000D01*
X20332700Y-12700000D02*
X20325000Y-11125000D01*
X11430000Y-11125000D02*
X11430000Y-12065000D01*
X11430000Y-12065000D02*
G75*
G02*
X11633200Y-12268200I0J-203200D01*
G01*
D11*
D12*
X11612900Y-11524000D02*
X11932900Y-11844000D01*
X11932900Y-11524000D02*
X11612900Y-11844000D01*
X19829800Y-11524000D02*
X20149800Y-11844000D01*
X20149800Y-11524000D02*
X19829800Y-11844000D01*
D11*
X11688277Y-13013984D02*
X11688277Y-12813984D01*
X11688277Y-12813984D02*
X11735896Y-12813984D01*
X11735896Y-12813984D02*
X11764467Y-12823508D01*
X11764467Y-12823508D02*
X11783515Y-12842555D01*
X11783515Y-12842555D02*
X11793039Y-12861603D01*
X11793039Y-12861603D02*
X11802562Y-12899698D01*
X11802562Y-12899698D02*
X11802562Y-12928269D01*
X11802562Y-12928269D02*
X11793039Y-12966365D01*
X11793039Y-12966365D02*
X11783515Y-12985412D01*
X11783515Y-12985412D02*
X11764467Y-13004460D01*
X11764467Y-13004460D02*
X11735896Y-13013984D01*
X11735896Y-13013984D02*
X11688277Y-13013984D01*
X11888277Y-13013984D02*
X11888277Y-12880650D01*
X11888277Y-12918746D02*
X11897801Y-12899698D01*
X11897801Y-12899698D02*
X11907324Y-12890174D01*
X11907324Y-12890174D02*
X11926372Y-12880650D01*
X11926372Y-12880650D02*
X11945420Y-12880650D01*
X12012086Y-13013984D02*
X12012086Y-12880650D01*
X12012086Y-12813984D02*
X12002562Y-12823508D01*
X12002562Y-12823508D02*
X12012086Y-12833031D01*
X12012086Y-12833031D02*
X12021610Y-12823508D01*
X12021610Y-12823508D02*
X12012086Y-12813984D01*
X12012086Y-12813984D02*
X12012086Y-12833031D01*
X12135896Y-13013984D02*
X12116848Y-13004460D01*
X12116848Y-13004460D02*
X12107324Y-12985412D01*
X12107324Y-12985412D02*
X12107324Y-12813984D01*
X12240658Y-13013984D02*
X12221610Y-13004460D01*
X12221610Y-13004460D02*
X12212086Y-12985412D01*
X12212086Y-12985412D02*
X12212086Y-12813984D01*
X12469229Y-13013984D02*
X12469229Y-12813984D01*
X12469229Y-12813984D02*
X12535896Y-12956841D01*
X12535896Y-12956841D02*
X12602562Y-12813984D01*
X12602562Y-12813984D02*
X12602562Y-13013984D01*
X12783515Y-13013984D02*
X12783515Y-12909222D01*
X12783515Y-12909222D02*
X12773991Y-12890174D01*
X12773991Y-12890174D02*
X12754943Y-12880650D01*
X12754943Y-12880650D02*
X12716848Y-12880650D01*
X12716848Y-12880650D02*
X12697801Y-12890174D01*
X12783515Y-13004460D02*
X12764467Y-13013984D01*
X12764467Y-13013984D02*
X12716848Y-13013984D01*
X12716848Y-13013984D02*
X12697801Y-13004460D01*
X12697801Y-13004460D02*
X12688277Y-12985412D01*
X12688277Y-12985412D02*
X12688277Y-12966365D01*
X12688277Y-12966365D02*
X12697801Y-12947317D01*
X12697801Y-12947317D02*
X12716848Y-12937793D01*
X12716848Y-12937793D02*
X12764467Y-12937793D01*
X12764467Y-12937793D02*
X12783515Y-12928269D01*
X12878753Y-12880650D02*
X12878753Y-13080650D01*
X12878753Y-12890174D02*
X12897801Y-12880650D01*
X12897801Y-12880650D02*
X12935896Y-12880650D01*
X12935896Y-12880650D02*
X12954943Y-12890174D01*
X12954943Y-12890174D02*
X12964467Y-12899698D01*
X12964467Y-12899698D02*
X12973991Y-12918746D01*
X12973991Y-12918746D02*
X12973991Y-12975888D01*
X12973991Y-12975888D02*
X12964467Y-12994936D01*
X12964467Y-12994936D02*
X12954943Y-13004460D01*
X12954943Y-13004460D02*
X12935896Y-13013984D01*
X12935896Y-13013984D02*
X12897801Y-13013984D01*
X12897801Y-13013984D02*
X12878753Y-13004460D01*
X13059705Y-12994936D02*
X13069229Y-13004460D01*
X13069229Y-13004460D02*
X13059705Y-13013984D01*
X13059705Y-13013984D02*
X13050182Y-13004460D01*
X13050182Y-13004460D02*
X13059705Y-12994936D01*
X13059705Y-12994936D02*
X13059705Y-13013984D01*
X13059705Y-12890174D02*
X13069229Y-12899698D01*
X13069229Y-12899698D02*
X13059705Y-12909222D01*
X13059705Y-12909222D02*
X13050182Y-12899698D01*
X13050182Y-12899698D02*
X13059705Y-12890174D01*
X13059705Y-12890174D02*
X13059705Y-12909222D01*
X11227500Y-13242500D02*
X11427500Y-13442500D01*
X11427500Y-13242500D02*
X11227500Y-13442500D01*
X11669229Y-13233984D02*
X11793039Y-13233984D01*
X11793039Y-13233984D02*
X11726372Y-13310174D01*
X11726372Y-13310174D02*
X11754943Y-13310174D01*
X11754943Y-13310174D02*
X11773991Y-13319698D01*
X11773991Y-13319698D02*
X11783515Y-13329222D01*
X11783515Y-13329222D02*
X11793039Y-13348269D01*
X11793039Y-13348269D02*
X11793039Y-13395888D01*
X11793039Y-13395888D02*
X11783515Y-13414936D01*
X11783515Y-13414936D02*
X11773991Y-13424460D01*
X11773991Y-13424460D02*
X11754943Y-13433984D01*
X11754943Y-13433984D02*
X11697801Y-13433984D01*
X11697801Y-13433984D02*
X11678753Y-13424460D01*
X11678753Y-13424460D02*
X11669229Y-13414936D01*
X11878753Y-13414936D02*
X11888277Y-13424460D01*
X11888277Y-13424460D02*
X11878753Y-13433984D01*
X11878753Y-13433984D02*
X11869229Y-13424460D01*
X11869229Y-13424460D02*
X11878753Y-13414936D01*
X11878753Y-13414936D02*
X11878753Y-13433984D01*
X11964467Y-13253031D02*
X11973991Y-13243508D01*
X11973991Y-13243508D02*
X11993039Y-13233984D01*
X11993039Y-13233984D02*
X12040658Y-13233984D01*
X12040658Y-13233984D02*
X12059705Y-13243508D01*
X12059705Y-13243508D02*
X12069229Y-13253031D01*
X12069229Y-13253031D02*
X12078753Y-13272079D01*
X12078753Y-13272079D02*
X12078753Y-13291127D01*
X12078753Y-13291127D02*
X12069229Y-13319698D01*
X12069229Y-13319698D02*
X11954943Y-13433984D01*
X11954943Y-13433984D02*
X12078753Y-13433984D01*
X12202562Y-13233984D02*
X12221610Y-13233984D01*
X12221610Y-13233984D02*
X12240658Y-13243508D01*
X12240658Y-13243508D02*
X12250182Y-13253031D01*
X12250182Y-13253031D02*
X12259705Y-13272079D01*
X12259705Y-13272079D02*
X12269229Y-13310174D01*
X12269229Y-13310174D02*
X12269229Y-13357793D01*
X12269229Y-13357793D02*
X12259705Y-13395888D01*
X12259705Y-13395888D02*
X12250182Y-13414936D01*
X12250182Y-13414936D02*
X12240658Y-13424460D01*
X12240658Y-13424460D02*
X12221610Y-13433984D01*
X12221610Y-13433984D02*
X12202562Y-13433984D01*
X12202562Y-13433984D02*
X12183515Y-13424460D01*
X12183515Y-13424460D02*
X12173991Y-13414936D01*
X12173991Y-13414936D02*
X12164467Y-13395888D01*
X12164467Y-13395888D02*
X12154943Y-13357793D01*
X12154943Y-13357793D02*
X12154943Y-13310174D01*
X12154943Y-13310174D02*
X12164467Y-13272079D01*
X12164467Y-13272079D02*
X12173991Y-13253031D01*
X12173991Y-13253031D02*
X12183515Y-13243508D01*
X12183515Y-13243508D02*
X12202562Y-13233984D01*
X12393039Y-13233984D02*
X12412086Y-13233984D01*
X12412086Y-13233984D02*
X12431134Y-13243508D01*
X12431134Y-13243508D02*
X12440658Y-13253031D01*
X12440658Y-13253031D02*
X12450182Y-13272079D01*
X12450182Y-13272079D02*
X12459705Y-13310174D01*
X12459705Y-13310174D02*
X12459705Y-13357793D01*
X12459705Y-13357793D02*
X12450182Y-13395888D01*
X12450182Y-13395888D02*
X12440658Y-13414936D01*
X12440658Y-13414936D02*
X12431134Y-13424460D01*
X12431134Y-13424460D02*
X12412086Y-13433984D01*
X12412086Y-13433984D02*
X12393039Y-13433984D01*
X12393039Y-13433984D02*
X12373991Y-13424460D01*
X12373991Y-13424460D02*
X12364467Y-13414936D01*
X12364467Y-13414936D02*
X12354943Y-13395888D01*
X12354943Y-13395888D02*
X12345420Y-13357793D01*
X12345420Y-13357793D02*
X12345420Y-13310174D01*
X12345420Y-13310174D02*
X12354943Y-13272079D01*
X12354943Y-13272079D02*
X12364467Y-13253031D01*
X12364467Y-13253031D02*
X12373991Y-13243508D01*
X12373991Y-13243508D02*
X12393039Y-13233984D01*
X12545420Y-13433984D02*
X12545420Y-13300650D01*
X12545420Y-13319698D02*
X12554943Y-13310174D01*
X12554943Y-13310174D02*
X12573991Y-13300650D01*
X12573991Y-13300650D02*
X12602563Y-13300650D01*
X12602563Y-13300650D02*
X12621610Y-13310174D01*
X12621610Y-13310174D02*
X12631134Y-13329222D01*
X12631134Y-13329222D02*
X12631134Y-13433984D01*
X12631134Y-13329222D02*
X12640658Y-13310174D01*
X12640658Y-13310174D02*
X12659705Y-13300650D01*
X12659705Y-13300650D02*
X12688277Y-13300650D01*
X12688277Y-13300650D02*
X12707324Y-13310174D01*
X12707324Y-13310174D02*
X12716848Y-13329222D01*
X12716848Y-13329222D02*
X12716848Y-13433984D01*
X12812086Y-13433984D02*
X12812086Y-13300650D01*
X12812086Y-13319698D02*
X12821610Y-13310174D01*
X12821610Y-13310174D02*
X12840658Y-13300650D01*
X12840658Y-13300650D02*
X12869229Y-13300650D01*
X12869229Y-13300650D02*
X12888277Y-13310174D01*
X12888277Y-13310174D02*
X12897801Y-13329222D01*
X12897801Y-13329222D02*
X12897801Y-13433984D01*
X12897801Y-13329222D02*
X12907324Y-13310174D01*
X12907324Y-13310174D02*
X12926372Y-13300650D01*
X12926372Y-13300650D02*
X12954943Y-13300650D01*
X12954943Y-13300650D02*
X12973991Y-13310174D01*
X12973991Y-13310174D02*
X12983515Y-13329222D01*
X12983515Y-13329222D02*
X12983515Y-13433984D01*
X13373991Y-13224460D02*
X13202563Y-13481603D01*
X13631134Y-13233984D02*
X13650182Y-13233984D01*
X13650182Y-13233984D02*
X13669229Y-13243508D01*
X13669229Y-13243508D02*
X13678753Y-13253031D01*
X13678753Y-13253031D02*
X13688277Y-13272079D01*
X13688277Y-13272079D02*
X13697801Y-13310174D01*
X13697801Y-13310174D02*
X13697801Y-13357793D01*
X13697801Y-13357793D02*
X13688277Y-13395888D01*
X13688277Y-13395888D02*
X13678753Y-13414936D01*
X13678753Y-13414936D02*
X13669229Y-13424460D01*
X13669229Y-13424460D02*
X13650182Y-13433984D01*
X13650182Y-13433984D02*
X13631134Y-13433984D01*
X13631134Y-13433984D02*
X13612086Y-13424460D01*
X13612086Y-13424460D02*
X13602563Y-13414936D01*
X13602563Y-13414936D02*
X13593039Y-13395888D01*
X13593039Y-13395888D02*
X13583515Y-13357793D01*
X13583515Y-13357793D02*
X13583515Y-13310174D01*
X13583515Y-13310174D02*
X13593039Y-13272079D01*
X13593039Y-13272079D02*
X13602563Y-13253031D01*
X13602563Y-13253031D02*
X13612086Y-13243508D01*
X13612086Y-13243508D02*
X13631134Y-13233984D01*
X13783515Y-13414936D02*
X13793039Y-13424460D01*
X13793039Y-13424460D02*
X13783515Y-13433984D01*
X13783515Y-13433984D02*
X13773991Y-13424460D01*
X13773991Y-13424460D02*
X13783515Y-13414936D01*
X13783515Y-13414936D02*
X13783515Y-13433984D01*
X13983515Y-13433984D02*
X13869229Y-13433984D01*
X13926372Y-13433984D02*
X13926372Y-13233984D01*
X13926372Y-13233984D02*
X13907325Y-13262555D01*
X13907325Y-13262555D02*
X13888277Y-13281603D01*
X13888277Y-13281603D02*
X13869229Y-13291127D01*
X14059706Y-13253031D02*
X14069229Y-13243508D01*
X14069229Y-13243508D02*
X14088277Y-13233984D01*
X14088277Y-13233984D02*
X14135896Y-13233984D01*
X14135896Y-13233984D02*
X14154944Y-13243508D01*
X14154944Y-13243508D02*
X14164467Y-13253031D01*
X14164467Y-13253031D02*
X14173991Y-13272079D01*
X14173991Y-13272079D02*
X14173991Y-13291127D01*
X14173991Y-13291127D02*
X14164467Y-13319698D01*
X14164467Y-13319698D02*
X14050182Y-13433984D01*
X14050182Y-13433984D02*
X14173991Y-13433984D01*
X14345420Y-13233984D02*
X14307325Y-13233984D01*
X14307325Y-13233984D02*
X14288277Y-13243508D01*
X14288277Y-13243508D02*
X14278753Y-13253031D01*
X14278753Y-13253031D02*
X14259706Y-13281603D01*
X14259706Y-13281603D02*
X14250182Y-13319698D01*
X14250182Y-13319698D02*
X14250182Y-13395888D01*
X14250182Y-13395888D02*
X14259706Y-13414936D01*
X14259706Y-13414936D02*
X14269229Y-13424460D01*
X14269229Y-13424460D02*
X14288277Y-13433984D01*
X14288277Y-13433984D02*
X14326372Y-13433984D01*
X14326372Y-13433984D02*
X14345420Y-13424460D01*
X14345420Y-13424460D02*
X14354944Y-13414936D01*
X14354944Y-13414936D02*
X14364467Y-13395888D01*
X14364467Y-13395888D02*
X14364467Y-13348269D01*
X14364467Y-13348269D02*
X14354944Y-13329222D01*
X14354944Y-13329222D02*
X14345420Y-13319698D01*
X14345420Y-13319698D02*
X14326372Y-13310174D01*
X14326372Y-13310174D02*
X14288277Y-13310174D01*
X14288277Y-13310174D02*
X14269229Y-13319698D01*
X14269229Y-13319698D02*
X14259706Y-13329222D01*
X14259706Y-13329222D02*
X14250182Y-13348269D01*
X14488277Y-13233984D02*
X14507325Y-13233984D01*
X14507325Y-13233984D02*
X14526372Y-13243508D01*
X14526372Y-13243508D02*
X14535896Y-13253031D01*
X14535896Y-13253031D02*
X14545420Y-13272079D01*
X14545420Y-13272079D02*
X14554944Y-13310174D01*
X14554944Y-13310174D02*
X14554944Y-13357793D01*
X14554944Y-13357793D02*
X14545420Y-13395888D01*
X14545420Y-13395888D02*
X14535896Y-13414936D01*
X14535896Y-13414936D02*
X14526372Y-13424460D01*
X14526372Y-13424460D02*
X14507325Y-13433984D01*
X14507325Y-13433984D02*
X14488277Y-13433984D01*
X14488277Y-13433984D02*
X14469229Y-13424460D01*
X14469229Y-13424460D02*
X14459706Y-13414936D01*
X14459706Y-13414936D02*
X14450182Y-13395888D01*
X14450182Y-13395888D02*
X14440658Y-13357793D01*
X14440658Y-13357793D02*
X14440658Y-13310174D01*
X14440658Y-13310174D02*
X14450182Y-13272079D01*
X14450182Y-13272079D02*
X14459706Y-13253031D01*
X14459706Y-13253031D02*
X14469229Y-13243508D01*
X14469229Y-13243508D02*
X14488277Y-13233984D01*
X14631134Y-13233984D02*
X14631134Y-13272079D01*
X14707325Y-13233984D02*
X14707325Y-13272079D01*
X15002563Y-13510174D02*
X14993039Y-13500650D01*
X14993039Y-13500650D02*
X14973991Y-13472079D01*
X14973991Y-13472079D02*
X14964468Y-13453031D01*
X14964468Y-13453031D02*
X14954944Y-13424460D01*
X14954944Y-13424460D02*
X14945420Y-13376841D01*
X14945420Y-13376841D02*
X14945420Y-13338746D01*
X14945420Y-13338746D02*
X14954944Y-13291127D01*
X14954944Y-13291127D02*
X14964468Y-13262555D01*
X14964468Y-13262555D02*
X14973991Y-13243508D01*
X14973991Y-13243508D02*
X14993039Y-13214936D01*
X14993039Y-13214936D02*
X15002563Y-13205412D01*
X15069229Y-13253031D02*
X15078753Y-13243508D01*
X15078753Y-13243508D02*
X15097801Y-13233984D01*
X15097801Y-13233984D02*
X15145420Y-13233984D01*
X15145420Y-13233984D02*
X15164468Y-13243508D01*
X15164468Y-13243508D02*
X15173991Y-13253031D01*
X15173991Y-13253031D02*
X15183515Y-13272079D01*
X15183515Y-13272079D02*
X15183515Y-13291127D01*
X15183515Y-13291127D02*
X15173991Y-13319698D01*
X15173991Y-13319698D02*
X15059706Y-13433984D01*
X15059706Y-13433984D02*
X15183515Y-13433984D01*
X15421610Y-13433984D02*
X15421610Y-13233984D01*
X15507325Y-13433984D02*
X15507325Y-13329222D01*
X15507325Y-13329222D02*
X15497801Y-13310174D01*
X15497801Y-13310174D02*
X15478753Y-13300650D01*
X15478753Y-13300650D02*
X15450182Y-13300650D01*
X15450182Y-13300650D02*
X15431134Y-13310174D01*
X15431134Y-13310174D02*
X15421610Y-13319698D01*
X15631134Y-13433984D02*
X15612087Y-13424460D01*
X15612087Y-13424460D02*
X15602563Y-13414936D01*
X15602563Y-13414936D02*
X15593039Y-13395888D01*
X15593039Y-13395888D02*
X15593039Y-13338746D01*
X15593039Y-13338746D02*
X15602563Y-13319698D01*
X15602563Y-13319698D02*
X15612087Y-13310174D01*
X15612087Y-13310174D02*
X15631134Y-13300650D01*
X15631134Y-13300650D02*
X15659706Y-13300650D01*
X15659706Y-13300650D02*
X15678753Y-13310174D01*
X15678753Y-13310174D02*
X15688277Y-13319698D01*
X15688277Y-13319698D02*
X15697801Y-13338746D01*
X15697801Y-13338746D02*
X15697801Y-13395888D01*
X15697801Y-13395888D02*
X15688277Y-13414936D01*
X15688277Y-13414936D02*
X15678753Y-13424460D01*
X15678753Y-13424460D02*
X15659706Y-13433984D01*
X15659706Y-13433984D02*
X15631134Y-13433984D01*
X15812087Y-13433984D02*
X15793039Y-13424460D01*
X15793039Y-13424460D02*
X15783515Y-13405412D01*
X15783515Y-13405412D02*
X15783515Y-13233984D01*
X15964468Y-13424460D02*
X15945420Y-13433984D01*
X15945420Y-13433984D02*
X15907325Y-13433984D01*
X15907325Y-13433984D02*
X15888277Y-13424460D01*
X15888277Y-13424460D02*
X15878753Y-13405412D01*
X15878753Y-13405412D02*
X15878753Y-13329222D01*
X15878753Y-13329222D02*
X15888277Y-13310174D01*
X15888277Y-13310174D02*
X15907325Y-13300650D01*
X15907325Y-13300650D02*
X15945420Y-13300650D01*
X15945420Y-13300650D02*
X15964468Y-13310174D01*
X15964468Y-13310174D02*
X15973991Y-13329222D01*
X15973991Y-13329222D02*
X15973991Y-13348269D01*
X15973991Y-13348269D02*
X15878753Y-13367317D01*
X16050182Y-13424460D02*
X16069230Y-13433984D01*
X16069230Y-13433984D02*
X16107325Y-13433984D01*
X16107325Y-13433984D02*
X16126372Y-13424460D01*
X16126372Y-13424460D02*
X16135896Y-13405412D01*
X16135896Y-13405412D02*
X16135896Y-13395888D01*
X16135896Y-13395888D02*
X16126372Y-13376841D01*
X16126372Y-13376841D02*
X16107325Y-13367317D01*
X16107325Y-13367317D02*
X16078753Y-13367317D01*
X16078753Y-13367317D02*
X16059706Y-13357793D01*
X16059706Y-13357793D02*
X16050182Y-13338746D01*
X16050182Y-13338746D02*
X16050182Y-13329222D01*
X16050182Y-13329222D02*
X16059706Y-13310174D01*
X16059706Y-13310174D02*
X16078753Y-13300650D01*
X16078753Y-13300650D02*
X16107325Y-13300650D01*
X16107325Y-13300650D02*
X16126372Y-13310174D01*
X16202563Y-13510174D02*
X16212087Y-13500650D01*
X16212087Y-13500650D02*
X16231134Y-13472079D01*
X16231134Y-13472079D02*
X16240658Y-13453031D01*
X16240658Y-13453031D02*
X16250182Y-13424460D01*
X16250182Y-13424460D02*
X16259706Y-13376841D01*
X16259706Y-13376841D02*
X16259706Y-13338746D01*
X16259706Y-13338746D02*
X16250182Y-13291127D01*
X16250182Y-13291127D02*
X16240658Y-13262555D01*
X16240658Y-13262555D02*
X16231134Y-13243508D01*
X16231134Y-13243508D02*
X16212087Y-13214936D01*
X16212087Y-13214936D02*
X16202563Y-13205412D01*
X16564468Y-13510174D02*
X16554944Y-13500650D01*
X16554944Y-13500650D02*
X16535896Y-13472079D01*
X16535896Y-13472079D02*
X16526372Y-13453031D01*
X16526372Y-13453031D02*
X16516849Y-13424460D01*
X16516849Y-13424460D02*
X16507325Y-13376841D01*
X16507325Y-13376841D02*
X16507325Y-13338746D01*
X16507325Y-13338746D02*
X16516849Y-13291127D01*
X16516849Y-13291127D02*
X16526372Y-13262555D01*
X16526372Y-13262555D02*
X16535896Y-13243508D01*
X16535896Y-13243508D02*
X16554944Y-13214936D01*
X16554944Y-13214936D02*
X16564468Y-13205412D01*
X16640658Y-13300650D02*
X16640658Y-13433984D01*
X16640658Y-13319698D02*
X16650182Y-13310174D01*
X16650182Y-13310174D02*
X16669230Y-13300650D01*
X16669230Y-13300650D02*
X16697801Y-13300650D01*
X16697801Y-13300650D02*
X16716849Y-13310174D01*
X16716849Y-13310174D02*
X16726372Y-13329222D01*
X16726372Y-13329222D02*
X16726372Y-13433984D01*
X16850182Y-13433984D02*
X16831134Y-13424460D01*
X16831134Y-13424460D02*
X16821611Y-13414936D01*
X16821611Y-13414936D02*
X16812087Y-13395888D01*
X16812087Y-13395888D02*
X16812087Y-13338746D01*
X16812087Y-13338746D02*
X16821611Y-13319698D01*
X16821611Y-13319698D02*
X16831134Y-13310174D01*
X16831134Y-13310174D02*
X16850182Y-13300650D01*
X16850182Y-13300650D02*
X16878754Y-13300650D01*
X16878754Y-13300650D02*
X16897801Y-13310174D01*
X16897801Y-13310174D02*
X16907325Y-13319698D01*
X16907325Y-13319698D02*
X16916849Y-13338746D01*
X16916849Y-13338746D02*
X16916849Y-13395888D01*
X16916849Y-13395888D02*
X16907325Y-13414936D01*
X16907325Y-13414936D02*
X16897801Y-13424460D01*
X16897801Y-13424460D02*
X16878754Y-13433984D01*
X16878754Y-13433984D02*
X16850182Y-13433984D01*
X16973992Y-13300650D02*
X17050182Y-13300650D01*
X17002563Y-13233984D02*
X17002563Y-13405412D01*
X17002563Y-13405412D02*
X17012087Y-13424460D01*
X17012087Y-13424460D02*
X17031134Y-13433984D01*
X17031134Y-13433984D02*
X17050182Y-13433984D01*
X17269230Y-13300650D02*
X17269230Y-13500650D01*
X17269230Y-13310174D02*
X17288277Y-13300650D01*
X17288277Y-13300650D02*
X17326373Y-13300650D01*
X17326373Y-13300650D02*
X17345420Y-13310174D01*
X17345420Y-13310174D02*
X17354944Y-13319698D01*
X17354944Y-13319698D02*
X17364468Y-13338746D01*
X17364468Y-13338746D02*
X17364468Y-13395888D01*
X17364468Y-13395888D02*
X17354944Y-13414936D01*
X17354944Y-13414936D02*
X17345420Y-13424460D01*
X17345420Y-13424460D02*
X17326373Y-13433984D01*
X17326373Y-13433984D02*
X17288277Y-13433984D01*
X17288277Y-13433984D02*
X17269230Y-13424460D01*
X17478754Y-13433984D02*
X17459706Y-13424460D01*
X17459706Y-13424460D02*
X17450182Y-13405412D01*
X17450182Y-13405412D02*
X17450182Y-13233984D01*
X17640658Y-13433984D02*
X17640658Y-13329222D01*
X17640658Y-13329222D02*
X17631135Y-13310174D01*
X17631135Y-13310174D02*
X17612087Y-13300650D01*
X17612087Y-13300650D02*
X17573992Y-13300650D01*
X17573992Y-13300650D02*
X17554944Y-13310174D01*
X17640658Y-13424460D02*
X17621611Y-13433984D01*
X17621611Y-13433984D02*
X17573992Y-13433984D01*
X17573992Y-13433984D02*
X17554944Y-13424460D01*
X17554944Y-13424460D02*
X17545420Y-13405412D01*
X17545420Y-13405412D02*
X17545420Y-13386365D01*
X17545420Y-13386365D02*
X17554944Y-13367317D01*
X17554944Y-13367317D02*
X17573992Y-13357793D01*
X17573992Y-13357793D02*
X17621611Y-13357793D01*
X17621611Y-13357793D02*
X17640658Y-13348269D01*
X17707325Y-13300650D02*
X17783515Y-13300650D01*
X17735896Y-13233984D02*
X17735896Y-13405412D01*
X17735896Y-13405412D02*
X17745420Y-13424460D01*
X17745420Y-13424460D02*
X17764468Y-13433984D01*
X17764468Y-13433984D02*
X17783515Y-13433984D01*
X17926373Y-13424460D02*
X17907325Y-13433984D01*
X17907325Y-13433984D02*
X17869230Y-13433984D01*
X17869230Y-13433984D02*
X17850182Y-13424460D01*
X17850182Y-13424460D02*
X17840658Y-13405412D01*
X17840658Y-13405412D02*
X17840658Y-13329222D01*
X17840658Y-13329222D02*
X17850182Y-13310174D01*
X17850182Y-13310174D02*
X17869230Y-13300650D01*
X17869230Y-13300650D02*
X17907325Y-13300650D01*
X17907325Y-13300650D02*
X17926373Y-13310174D01*
X17926373Y-13310174D02*
X17935896Y-13329222D01*
X17935896Y-13329222D02*
X17935896Y-13348269D01*
X17935896Y-13348269D02*
X17840658Y-13367317D01*
X18107325Y-13433984D02*
X18107325Y-13233984D01*
X18107325Y-13424460D02*
X18088277Y-13433984D01*
X18088277Y-13433984D02*
X18050182Y-13433984D01*
X18050182Y-13433984D02*
X18031135Y-13424460D01*
X18031135Y-13424460D02*
X18021611Y-13414936D01*
X18021611Y-13414936D02*
X18012087Y-13395888D01*
X18012087Y-13395888D02*
X18012087Y-13338746D01*
X18012087Y-13338746D02*
X18021611Y-13319698D01*
X18021611Y-13319698D02*
X18031135Y-13310174D01*
X18031135Y-13310174D02*
X18050182Y-13300650D01*
X18050182Y-13300650D02*
X18088277Y-13300650D01*
X18088277Y-13300650D02*
X18107325Y-13310174D01*
X18183516Y-13510174D02*
X18193039Y-13500650D01*
X18193039Y-13500650D02*
X18212087Y-13472079D01*
X18212087Y-13472079D02*
X18221611Y-13453031D01*
X18221611Y-13453031D02*
X18231135Y-13424460D01*
X18231135Y-13424460D02*
X18240658Y-13376841D01*
X18240658Y-13376841D02*
X18240658Y-13338746D01*
X18240658Y-13338746D02*
X18231135Y-13291127D01*
X18231135Y-13291127D02*
X18221611Y-13262555D01*
X18221611Y-13262555D02*
X18212087Y-13243508D01*
X18212087Y-13243508D02*
X18193039Y-13214936D01*
X18193039Y-13214936D02*
X18183516Y-13205412D01*
M02*
