%TF.GenerationSoftware,KiCad,Pcbnew,8.0.0*%
%TF.CreationDate,2024-11-03T15:19:12-05:00*%
%TF.ProjectId,macintosh-dram-1m-simm,6d616369-6e74-46f7-9368-2d6472616d2d,rev?*%
%TF.SameCoordinates,Original*%
%TF.FileFunction,Copper,L1,Top*%
%TF.FilePolarity,Positive*%
%FSLAX46Y46*%
G04 Gerber Fmt 4.6, Leading zero omitted, Abs format (unit mm)*
G04 Created by KiCad (PCBNEW 8.0.0) date 2024-11-03 15:19:12*
%MOMM*%
%LPD*%
G01*
G04 APERTURE LIST*
G04 Aperture macros list*
%AMOutline5P*
0 Free polygon, 5 corners , with rotation*
0 The origin of the aperture is its center*
0 number of corners: always 5*
0 $1 to $10 corner X, Y*
0 $11 Rotation angle, in degrees counterclockwise*
0 create outline with 5 corners*
4,1,5,$1,$2,$3,$4,$5,$6,$7,$8,$9,$10,$1,$2,$11*%
%AMOutline6P*
0 Free polygon, 6 corners , with rotation*
0 The origin of the aperture is its center*
0 number of corners: always 6*
0 $1 to $12 corner X, Y*
0 $13 Rotation angle, in degrees counterclockwise*
0 create outline with 6 corners*
4,1,6,$1,$2,$3,$4,$5,$6,$7,$8,$9,$10,$11,$12,$1,$2,$13*%
%AMOutline7P*
0 Free polygon, 7 corners , with rotation*
0 The origin of the aperture is its center*
0 number of corners: always 7*
0 $1 to $14 corner X, Y*
0 $15 Rotation angle, in degrees counterclockwise*
0 create outline with 7 corners*
4,1,7,$1,$2,$3,$4,$5,$6,$7,$8,$9,$10,$11,$12,$13,$14,$1,$2,$15*%
%AMOutline8P*
0 Free polygon, 8 corners , with rotation*
0 The origin of the aperture is its center*
0 number of corners: always 8*
0 $1 to $16 corner X, Y*
0 $17 Rotation angle, in degrees counterclockwise*
0 create outline with 8 corners*
4,1,8,$1,$2,$3,$4,$5,$6,$7,$8,$9,$10,$11,$12,$13,$14,$15,$16,$1,$2,$17*%
G04 Aperture macros list end*
%TA.AperFunction,ComponentPad*%
%ADD10Outline5P,-0.890000X1.038000X-0.178000X1.750000X0.890000X1.750000X0.890000X-1.750000X-0.890000X-1.750000X0.000000*%
%TD*%
%TA.AperFunction,SMDPad,CuDef*%
%ADD11R,0.800000X2.000000*%
%TD*%
%TA.AperFunction,SMDPad,CuDef*%
%ADD12R,1.250000X1.500000*%
%TD*%
%TA.AperFunction,ViaPad*%
%ADD13C,0.400000*%
%TD*%
%TA.AperFunction,ViaPad*%
%ADD14C,0.800000*%
%TD*%
%TA.AperFunction,Conductor*%
%ADD15C,0.200000*%
%TD*%
%TA.AperFunction,Conductor*%
%ADD16C,0.500000*%
%TD*%
G04 APERTURE END LIST*
D10*
%TO.P,B1,1,VCC*%
%TO.N,+5V*%
X122174000Y-125098000D03*
%TO.P,B1,2,/CAS*%
%TO.N,CAS*%
X124714000Y-125098000D03*
%TO.P,B1,3,DQ0*%
%TO.N,DQ0*%
X127254000Y-125098000D03*
%TO.P,B1,4,A0*%
%TO.N,A0*%
X129794000Y-125098000D03*
%TO.P,B1,5,A1*%
%TO.N,A1*%
X132334000Y-125098000D03*
%TO.P,B1,6,DQ1*%
%TO.N,DQ1*%
X134874000Y-125098000D03*
%TO.P,B1,7,A2*%
%TO.N,A2*%
X137414000Y-125098000D03*
%TO.P,B1,8,A3*%
%TO.N,A3*%
X139954000Y-125098000D03*
%TO.P,B1,9,GND*%
%TO.N,GND*%
X142494000Y-125098000D03*
%TO.P,B1,10,DQ2*%
%TO.N,DQ2*%
X145034000Y-125098000D03*
%TO.P,B1,11,A4*%
%TO.N,A4*%
X147574000Y-125098000D03*
%TO.P,B1,12,A5*%
%TO.N,A5*%
X150114000Y-125098000D03*
%TO.P,B1,13,DQ3*%
%TO.N,DQ3*%
X152654000Y-125098000D03*
%TO.P,B1,14,A6*%
%TO.N,A6*%
X155194000Y-125098000D03*
%TO.P,B1,15,A7*%
%TO.N,A7*%
X157734000Y-125098000D03*
%TO.P,B1,16,DQ4*%
%TO.N,DQ4*%
X160274000Y-125098000D03*
%TO.P,B1,17,A8*%
%TO.N,A8*%
X162814000Y-125098000D03*
%TO.P,B1,18,A9*%
%TO.N,A9*%
X165354000Y-125098000D03*
%TO.P,B1,19,A10*%
%TO.N,unconnected-(B1-A10-Pad19)*%
X167894000Y-125098000D03*
%TO.P,B1,20,DQ5*%
%TO.N,DQ5*%
X170434000Y-125098000D03*
%TO.P,B1,21,/WE*%
%TO.N,WE*%
X172974000Y-125098000D03*
%TO.P,B1,22,GND*%
%TO.N,GND*%
X175514000Y-125098000D03*
%TO.P,B1,23,DQ6*%
%TO.N,DQ6*%
X178054000Y-125098000D03*
%TO.P,B1,24,A11*%
%TO.N,unconnected-(B1-A11-Pad24)*%
X180594000Y-125098000D03*
%TO.P,B1,25,DQ7*%
%TO.N,DQ7*%
X183134000Y-125098000D03*
%TO.P,B1,26,QP*%
%TO.N,QP*%
X185674000Y-125098000D03*
%TO.P,B1,27,/RAS*%
%TO.N,RAS*%
X188214000Y-125098000D03*
%TO.P,B1,28,/CASP*%
%TO.N,CASP*%
X190754000Y-125098000D03*
%TO.P,B1,29,DP*%
%TO.N,DP*%
X193294000Y-125098000D03*
%TO.P,B1,30,VCC*%
%TO.N,+5V*%
X195834000Y-125098000D03*
%TD*%
D11*
%TO.P,U1,1,DQ1*%
%TO.N,DQ0*%
X127030000Y-120396000D03*
%TO.P,U1,2,DQ2*%
%TO.N,DQ1*%
X128300000Y-120396000D03*
%TO.P,U1,3,/WE*%
%TO.N,WE*%
X129570000Y-120396000D03*
%TO.P,U1,4,/RAS*%
%TO.N,RAS*%
X130840000Y-120396000D03*
%TO.P,U1,5,A9*%
%TO.N,A9*%
X132110000Y-120396000D03*
%TO.P,U1,9,A0*%
%TO.N,A0*%
X137190000Y-120396000D03*
%TO.P,U1,10,A1*%
%TO.N,A1*%
X138460000Y-120396000D03*
%TO.P,U1,11,A2*%
%TO.N,A2*%
X139730000Y-120396000D03*
%TO.P,U1,12,A3*%
%TO.N,A3*%
X141000000Y-120396000D03*
%TO.P,U1,13,VCC*%
%TO.N,+5V*%
X142270000Y-120396000D03*
%TO.P,U1,14,A4*%
%TO.N,A4*%
X142143000Y-113284000D03*
%TO.P,U1,15,A5*%
%TO.N,A5*%
X140873000Y-113284000D03*
%TO.P,U1,16,A6*%
%TO.N,A6*%
X139603000Y-113284000D03*
%TO.P,U1,17,A7*%
%TO.N,A7*%
X138333000Y-113284000D03*
%TO.P,U1,18,A8*%
%TO.N,A8*%
X137063000Y-113284000D03*
%TO.P,U1,22,/OE*%
%TO.N,GND*%
X131983000Y-113284000D03*
%TO.P,U1,23,/CAS*%
%TO.N,CAS*%
X130713000Y-113284000D03*
%TO.P,U1,24,DQ3*%
%TO.N,DQ2*%
X129443000Y-113284000D03*
%TO.P,U1,25,DQ4*%
%TO.N,DQ3*%
X128173000Y-113284000D03*
%TO.P,U1,26,VSS*%
%TO.N,GND*%
X127030000Y-113284000D03*
%TD*%
%TO.P,U2,1,DQ1*%
%TO.N,DQ4*%
X151130000Y-120396000D03*
%TO.P,U2,2,DQ2*%
%TO.N,DQ5*%
X152400000Y-120396000D03*
%TO.P,U2,3,/WE*%
%TO.N,WE*%
X153670000Y-120396000D03*
%TO.P,U2,4,/RAS*%
%TO.N,RAS*%
X154940000Y-120396000D03*
%TO.P,U2,5,A9*%
%TO.N,A9*%
X156210000Y-120396000D03*
%TO.P,U2,9,A0*%
%TO.N,A0*%
X161290000Y-120396000D03*
%TO.P,U2,10,A1*%
%TO.N,A1*%
X162560000Y-120396000D03*
%TO.P,U2,11,A2*%
%TO.N,A2*%
X163830000Y-120396000D03*
%TO.P,U2,12,A3*%
%TO.N,A3*%
X165100000Y-120396000D03*
%TO.P,U2,13,VCC*%
%TO.N,+5V*%
X166370000Y-120396000D03*
%TO.P,U2,14,A4*%
%TO.N,A4*%
X166243000Y-113284000D03*
%TO.P,U2,15,A5*%
%TO.N,A5*%
X164973000Y-113284000D03*
%TO.P,U2,16,A6*%
%TO.N,A6*%
X163703000Y-113284000D03*
%TO.P,U2,17,A7*%
%TO.N,A7*%
X162433000Y-113284000D03*
%TO.P,U2,18,A8*%
%TO.N,A8*%
X161163000Y-113284000D03*
%TO.P,U2,22,/OE*%
%TO.N,GND*%
X156083000Y-113284000D03*
%TO.P,U2,23,/CAS*%
%TO.N,CAS*%
X154813000Y-113284000D03*
%TO.P,U2,24,DQ3*%
%TO.N,DQ6*%
X153543000Y-113284000D03*
%TO.P,U2,25,DQ4*%
%TO.N,DQ7*%
X152273000Y-113284000D03*
%TO.P,U2,26,VSS*%
%TO.N,GND*%
X151130000Y-113284000D03*
%TD*%
D12*
%TO.P,C1,1*%
%TO.N,+5V*%
X145000000Y-120499999D03*
%TO.P,C1,2*%
%TO.N,GND*%
X145000000Y-118000001D03*
%TD*%
%TO.P,C2,1*%
%TO.N,+5V*%
X169250000Y-120499999D03*
%TO.P,C2,2*%
%TO.N,GND*%
X169250000Y-118000001D03*
%TD*%
%TO.P,C3,1*%
%TO.N,+5V*%
X193250000Y-120249999D03*
%TO.P,C3,2*%
%TO.N,GND*%
X193250000Y-117750001D03*
%TD*%
D11*
%TO.P,U3,1,D*%
%TO.N,DP*%
X175260000Y-120396000D03*
%TO.P,U3,2,/WE*%
%TO.N,WE*%
X176530000Y-120396000D03*
%TO.P,U3,3,/RAS*%
%TO.N,RAS*%
X177800000Y-120396000D03*
%TO.P,U3,4,TF*%
%TO.N,unconnected-(U3-TF-Pad4)*%
X179070000Y-120396000D03*
%TO.P,U3,5,NC*%
%TO.N,unconnected-(U3-NC-Pad5)*%
X180340000Y-120396000D03*
%TO.P,U3,9,A0*%
%TO.N,A0*%
X185420000Y-120396000D03*
%TO.P,U3,10,A1*%
%TO.N,A1*%
X186690000Y-120396000D03*
%TO.P,U3,11,A2*%
%TO.N,A2*%
X187960000Y-120396000D03*
%TO.P,U3,12,A3*%
%TO.N,A3*%
X189230000Y-120396000D03*
%TO.P,U3,13,VCC*%
%TO.N,+5V*%
X190500000Y-120396000D03*
%TO.P,U3,14,A4*%
%TO.N,A4*%
X190373000Y-113284000D03*
%TO.P,U3,15,A5*%
%TO.N,A5*%
X189103000Y-113284000D03*
%TO.P,U3,16,A6*%
%TO.N,A6*%
X187833000Y-113284000D03*
%TO.P,U3,17,A7*%
%TO.N,A7*%
X186563000Y-113284000D03*
%TO.P,U3,18,A8*%
%TO.N,A8*%
X185293000Y-113284000D03*
%TO.P,U3,22,A9*%
%TO.N,A9*%
X180213000Y-113284000D03*
%TO.P,U3,23,NC*%
%TO.N,unconnected-(U3-NC-Pad23)*%
X178943000Y-113284000D03*
%TO.P,U3,24,/CAS*%
%TO.N,CASP*%
X177673000Y-113284000D03*
%TO.P,U3,25,Q*%
%TO.N,QP*%
X176403000Y-113284000D03*
%TO.P,U3,26,VSS*%
%TO.N,GND*%
X175260000Y-113284000D03*
%TD*%
D13*
%TO.N,WE*%
X181250000Y-114000000D03*
X171500000Y-114000000D03*
X133000000Y-114000000D03*
X157000000Y-114000000D03*
%TO.N,DQ5*%
X153765000Y-122485000D03*
%TO.N,DP*%
X183750000Y-112000000D03*
X174000000Y-112000000D03*
%TO.N,CASP*%
X177750000Y-113500000D03*
X183250000Y-113500000D03*
%TO.N,RAS*%
X181750000Y-114500000D03*
X157500000Y-114500000D03*
X133500000Y-114500000D03*
D14*
%TO.N,+5V*%
X170000000Y-120400000D03*
X122170000Y-120400000D03*
X145800000Y-120400000D03*
X194300000Y-120396000D03*
D13*
%TO.N,A8*%
X160000000Y-115500000D03*
X136000000Y-115500000D03*
X184250000Y-115500000D03*
%TO.N,DQ7*%
X183000000Y-122148000D03*
X182750000Y-112500000D03*
X152250000Y-112500000D03*
%TO.N,GND*%
X135710000Y-119480000D03*
X118500000Y-125000000D03*
X116500000Y-112000000D03*
X170900000Y-111820000D03*
X147220000Y-121730000D03*
X191980000Y-112370000D03*
X173500000Y-122500000D03*
X119500000Y-125000000D03*
X145480000Y-111800000D03*
X143500000Y-122000000D03*
X135210000Y-121350000D03*
X175500000Y-122500000D03*
X144500000Y-122000000D03*
X117498696Y-124989681D03*
X131500000Y-115250000D03*
X202000000Y-112000000D03*
X119000000Y-126000000D03*
X134710000Y-119480000D03*
X135210000Y-119480000D03*
X191980000Y-112870000D03*
X157110000Y-121680000D03*
X201000000Y-125500000D03*
X201000000Y-125000000D03*
X199498696Y-125489681D03*
X142500000Y-122000000D03*
X170400000Y-111820000D03*
X191480000Y-112870000D03*
X126060000Y-122250000D03*
X125980000Y-119450000D03*
X131500000Y-115750000D03*
X145980000Y-111800000D03*
X119000000Y-125000000D03*
X125560000Y-122250000D03*
X133710000Y-121350000D03*
X199498696Y-124989681D03*
X115500000Y-112000000D03*
X134210000Y-121350000D03*
X126060000Y-121750000D03*
X202500000Y-112000000D03*
X124000000Y-122250000D03*
X119500000Y-126000000D03*
X134210000Y-119480000D03*
X201500000Y-112000000D03*
X150290000Y-121160000D03*
X171400000Y-111820000D03*
X118500000Y-126000000D03*
X119500000Y-125500000D03*
X123500000Y-122250000D03*
X125980000Y-118950000D03*
X144980000Y-111800000D03*
X117000000Y-112000000D03*
X201500000Y-124500000D03*
X174000000Y-122500000D03*
X146720000Y-121730000D03*
X201500000Y-125000000D03*
X134710000Y-121350000D03*
X191480000Y-112370000D03*
X115000000Y-112000000D03*
X133710000Y-119480000D03*
X146480000Y-111800000D03*
X117498696Y-125489681D03*
X146980000Y-111800000D03*
X200000000Y-125500000D03*
X125480000Y-119450000D03*
X125480000Y-118950000D03*
X144000000Y-122500000D03*
X200000000Y-125000000D03*
X147220000Y-121230000D03*
X125560000Y-121750000D03*
X173500000Y-122000000D03*
X135710000Y-121350000D03*
X123500000Y-121750000D03*
X200500000Y-112000000D03*
X144000000Y-122000000D03*
X199498696Y-124489681D03*
X200500000Y-125000000D03*
X200500000Y-124500000D03*
X169400000Y-111820000D03*
X119000000Y-125500000D03*
X157610000Y-121180000D03*
X118500000Y-125500000D03*
X157610000Y-121680000D03*
X116000000Y-112000000D03*
X174000000Y-122000000D03*
X143500000Y-122500000D03*
X173000000Y-122000000D03*
X172500000Y-122000000D03*
X142500000Y-122500000D03*
X118000000Y-125500000D03*
X118000000Y-126000000D03*
X174500000Y-122500000D03*
X174500000Y-122000000D03*
X146720000Y-121230000D03*
X117498696Y-125989681D03*
X175000000Y-122500000D03*
X142000000Y-122500000D03*
X169900000Y-111820000D03*
X132000000Y-115750000D03*
X200500000Y-125500000D03*
X143000000Y-122000000D03*
X200000000Y-124500000D03*
X201500000Y-125500000D03*
X201000000Y-112000000D03*
X132000000Y-115250000D03*
X124000000Y-121750000D03*
X157110000Y-121180000D03*
X143000000Y-122500000D03*
X201000000Y-124500000D03*
X118000000Y-125000000D03*
%TO.N,A9*%
X134000000Y-115000000D03*
X180750000Y-115000000D03*
X171000000Y-115000000D03*
X158000000Y-115000000D03*
%TO.N,DQ6*%
X182250000Y-122148000D03*
X182250000Y-113000000D03*
X153500000Y-113000000D03*
%TO.N,A5*%
X163000000Y-116995998D03*
X149250000Y-117000000D03*
X187000000Y-117000000D03*
X139000000Y-117000000D03*
%TO.N,A4*%
X148750000Y-119500000D03*
X167750000Y-119500000D03*
X192000000Y-119500000D03*
X143750000Y-119500000D03*
%TO.N,DQ2*%
X129500000Y-113000000D03*
X148250000Y-113000000D03*
%TO.N,DQ4*%
X152752000Y-122748000D03*
%TO.N,DQ3*%
X128250000Y-112500000D03*
X149750000Y-112500000D03*
%TO.N,A7*%
X185000000Y-116000000D03*
X159500000Y-116000000D03*
X161000000Y-116000000D03*
X137000000Y-116000000D03*
%TO.N,A6*%
X162000000Y-116500000D03*
X186000000Y-116500000D03*
X159000000Y-116500000D03*
X138000000Y-116500000D03*
%TO.N,A2*%
X142000000Y-118500000D03*
X190000000Y-118500000D03*
X165750000Y-118495998D03*
%TO.N,A3*%
X166750000Y-118995998D03*
X143000000Y-119000000D03*
X191000000Y-119000000D03*
%TO.N,DQ1*%
X128355000Y-122605000D03*
%TO.N,A1*%
X189000000Y-118000000D03*
X141000000Y-118000000D03*
X164750000Y-117995998D03*
%TO.N,A0*%
X140000000Y-117500000D03*
X164000000Y-117495998D03*
X188000000Y-117500000D03*
%TO.N,CAS*%
X154750000Y-113500000D03*
X130750000Y-113500000D03*
%TD*%
D15*
%TO.N,CAS*%
X124714000Y-123698000D02*
X124714000Y-118536000D01*
X129000000Y-117750000D02*
X130750000Y-116000000D01*
X124714000Y-118536000D02*
X125500000Y-117750000D01*
X125500000Y-117750000D02*
X129000000Y-117750000D01*
X130750000Y-116000000D02*
X130750000Y-113500000D01*
%TO.N,DQ4*%
X152752000Y-122748000D02*
X152268000Y-122748000D01*
X152268000Y-122748000D02*
X151130000Y-121610000D01*
X151130000Y-121610000D02*
X151130000Y-120396000D01*
%TO.N,DQ3*%
X149750000Y-112500000D02*
X149750000Y-121560000D01*
X151888000Y-123698000D02*
X152654000Y-123698000D01*
X149750000Y-121560000D02*
X151888000Y-123698000D01*
%TO.N,A8*%
X160000000Y-115500000D02*
X160000000Y-121720000D01*
X160000000Y-121720000D02*
X161080000Y-122800000D01*
X161080000Y-122800000D02*
X162450000Y-122800000D01*
X162450000Y-122800000D02*
X162814000Y-123164000D01*
X162814000Y-123164000D02*
X162814000Y-123698000D01*
%TO.N,DQ1*%
X128355000Y-122605000D02*
X128300000Y-122550000D01*
X128300000Y-122550000D02*
X128300000Y-120396000D01*
%TO.N,A1*%
X138460000Y-120396000D02*
X138460000Y-122100000D01*
X138460000Y-122100000D02*
X137960000Y-122600000D01*
X132334000Y-123186000D02*
X132334000Y-123698000D01*
X137960000Y-122600000D02*
X132920000Y-122600000D01*
X132920000Y-122600000D02*
X132334000Y-123186000D01*
%TO.N,WE*%
X153670000Y-119218628D02*
X153670000Y-120396000D01*
X157000000Y-115888628D02*
X153670000Y-119218628D01*
X176530000Y-119666000D02*
X176530000Y-120396000D01*
X171500000Y-122224000D02*
X172974000Y-123698000D01*
X133000000Y-116000000D02*
X129570000Y-119430000D01*
X181250000Y-117500000D02*
X180054000Y-118696000D01*
X180054000Y-118696000D02*
X177500000Y-118696000D01*
X133000000Y-114000000D02*
X133000000Y-116000000D01*
X181250000Y-114000000D02*
X181250000Y-117500000D01*
X157000000Y-114000000D02*
X157000000Y-115888628D01*
X177500000Y-118696000D02*
X176530000Y-119666000D01*
X129570000Y-119430000D02*
X129570000Y-120396000D01*
X171500000Y-114000000D02*
X171500000Y-122224000D01*
%TO.N,DQ5*%
X152400000Y-121120000D02*
X152400000Y-120396000D01*
X153765000Y-122485000D02*
X152400000Y-121120000D01*
%TO.N,DP*%
X174000000Y-114891422D02*
X175260000Y-116151422D01*
X193294000Y-123698000D02*
X193294000Y-123084000D01*
X183750000Y-120964314D02*
X183750000Y-112000000D01*
X174000000Y-112000000D02*
X174000000Y-114891422D01*
X175260000Y-116151422D02*
X175260000Y-120396000D01*
X184633686Y-121848000D02*
X183750000Y-120964314D01*
X193294000Y-123084000D02*
X192058000Y-121848000D01*
X192058000Y-121848000D02*
X184633686Y-121848000D01*
%TO.N,CASP*%
X183250000Y-113500000D02*
X183250000Y-121030000D01*
X190754000Y-122944000D02*
X190754000Y-123698000D01*
X183250000Y-121030000D02*
X184468000Y-122248000D01*
X184468000Y-122248000D02*
X190058000Y-122248000D01*
X190058000Y-122248000D02*
X190754000Y-122944000D01*
%TO.N,RAS*%
X188214000Y-122964000D02*
X187898000Y-122648000D01*
X187898000Y-122648000D02*
X178898000Y-122648000D01*
X180404000Y-119096000D02*
X178370000Y-119096000D01*
X154940000Y-118514314D02*
X154940000Y-120396000D01*
X177800000Y-119666000D02*
X177800000Y-120396000D01*
X130840000Y-118725686D02*
X130840000Y-120396000D01*
X178898000Y-122648000D02*
X177800000Y-121550000D01*
X188214000Y-123698000D02*
X188214000Y-122964000D01*
X181750000Y-117750000D02*
X180404000Y-119096000D01*
X178370000Y-119096000D02*
X177800000Y-119666000D01*
X181750000Y-114500000D02*
X181750000Y-117750000D01*
X157500000Y-115954314D02*
X154940000Y-118514314D01*
X133500000Y-116065686D02*
X130840000Y-118725686D01*
X157500000Y-114500000D02*
X157500000Y-115954314D01*
X133500000Y-114500000D02*
X133500000Y-116065686D01*
X177800000Y-121550000D02*
X177800000Y-120396000D01*
D16*
%TO.N,+5V*%
X170000000Y-120400000D02*
X169996000Y-120396000D01*
X194300000Y-120396000D02*
X190500000Y-120396000D01*
X145796000Y-120396000D02*
X142270000Y-120396000D01*
X145800000Y-120400000D02*
X144900001Y-120400000D01*
X122170000Y-120400000D02*
X122260000Y-120490000D01*
X145800000Y-120400000D02*
X145796000Y-120396000D01*
X195196000Y-120396000D02*
X195920000Y-121120000D01*
X144900001Y-120400000D02*
X144896001Y-120396000D01*
X195920000Y-123612000D02*
X195834000Y-123698000D01*
X169349999Y-120400000D02*
X169250000Y-120499999D01*
X122260000Y-120490000D02*
X122260000Y-123612000D01*
D15*
X144896001Y-120396000D02*
X145000000Y-120499999D01*
D16*
X170000000Y-120400000D02*
X169349999Y-120400000D01*
X122260000Y-123612000D02*
X122174000Y-123698000D01*
X195920000Y-121120000D02*
X195920000Y-123612000D01*
X169996000Y-120396000D02*
X166370000Y-120396000D01*
X194300000Y-120396000D02*
X195196000Y-120396000D01*
D15*
%TO.N,QP*%
X175900000Y-119122000D02*
X176403000Y-118619000D01*
X177448000Y-123048000D02*
X175900000Y-121500000D01*
X176403000Y-118619000D02*
X176403000Y-113284000D01*
X185674000Y-123698000D02*
X185674000Y-123304000D01*
X185674000Y-123698000D02*
X185488000Y-123512000D01*
X185674000Y-123304000D02*
X185418000Y-123048000D01*
X175900000Y-121500000D02*
X175900000Y-119122000D01*
X185418000Y-123048000D02*
X177448000Y-123048000D01*
%TO.N,A8*%
X185000000Y-115500000D02*
X185293000Y-115207000D01*
X161163000Y-115087000D02*
X161163000Y-113284000D01*
X136000000Y-115500000D02*
X136750000Y-115500000D01*
X137063000Y-115187000D02*
X137063000Y-113284000D01*
X160000000Y-115500000D02*
X160750000Y-115500000D01*
X185293000Y-115207000D02*
X185293000Y-113284000D01*
X160750000Y-115500000D02*
X161163000Y-115087000D01*
X136750000Y-115500000D02*
X137063000Y-115187000D01*
X184250000Y-115500000D02*
X185000000Y-115500000D01*
%TO.N,DQ7*%
X183000000Y-122148000D02*
X182750000Y-121898000D01*
X182750000Y-121898000D02*
X182750000Y-112500000D01*
%TO.N,A9*%
X165354000Y-123246000D02*
X165354000Y-123698000D01*
X180750000Y-115000000D02*
X180213000Y-114463000D01*
X180213000Y-114463000D02*
X180213000Y-113284000D01*
X171000000Y-122250000D02*
X170450000Y-122800000D01*
X158000000Y-116020000D02*
X156210000Y-117810000D01*
X132110000Y-118021372D02*
X132110000Y-120396000D01*
X165800000Y-122800000D02*
X165354000Y-123246000D01*
X170450000Y-122800000D02*
X165800000Y-122800000D01*
X171000000Y-115000000D02*
X171000000Y-122250000D01*
X134000000Y-116131372D02*
X132110000Y-118021372D01*
X134000000Y-115000000D02*
X134000000Y-116131372D01*
X156210000Y-117810000D02*
X156210000Y-120396000D01*
X158000000Y-115000000D02*
X158000000Y-116020000D01*
%TO.N,DQ6*%
X182250000Y-113000000D02*
X182250000Y-122148000D01*
%TO.N,A5*%
X164973000Y-116518996D02*
X164973000Y-113284000D01*
X163000000Y-116995998D02*
X164495998Y-116995998D01*
X140250000Y-117000000D02*
X140873000Y-116377000D01*
X149250000Y-122250000D02*
X150114000Y-123114000D01*
X187000000Y-117000000D02*
X189103000Y-114897000D01*
X150114000Y-123114000D02*
X150114000Y-123698000D01*
X149250000Y-117000000D02*
X149250000Y-122250000D01*
X139000000Y-117000000D02*
X140250000Y-117000000D01*
X164495998Y-116995998D02*
X164973000Y-116518996D01*
X140873000Y-116377000D02*
X140873000Y-113284000D01*
X189103000Y-114897000D02*
X189103000Y-113284000D01*
%TO.N,A4*%
X192000000Y-119500000D02*
X192000000Y-119000000D01*
X142143000Y-117393000D02*
X142143000Y-113284000D01*
X167750000Y-119500000D02*
X167750000Y-116000000D01*
X143750000Y-119000000D02*
X142143000Y-117393000D01*
X167750000Y-116000000D02*
X166243000Y-114493000D01*
X143750000Y-119500000D02*
X143750000Y-119000000D01*
X148750000Y-119500000D02*
X148750000Y-121875000D01*
X148750000Y-121875000D02*
X147574000Y-123051000D01*
X192000000Y-119000000D02*
X190373000Y-117373000D01*
X147574000Y-123051000D02*
X147574000Y-123698000D01*
X190373000Y-117373000D02*
X190373000Y-113284000D01*
X166243000Y-114493000D02*
X166243000Y-113284000D01*
%TO.N,DQ2*%
X148250000Y-113000000D02*
X148250000Y-121750000D01*
X146952000Y-123048000D02*
X145684000Y-123048000D01*
X148250000Y-121750000D02*
X146952000Y-123048000D01*
X145684000Y-123048000D02*
X145034000Y-123698000D01*
%TO.N,A7*%
X161000000Y-116000000D02*
X162250000Y-116000000D01*
X157734000Y-123698000D02*
X157734000Y-123086000D01*
X137000000Y-116000000D02*
X138000000Y-116000000D01*
X186563000Y-115437000D02*
X186563000Y-113284000D01*
X185000000Y-116000000D02*
X186000000Y-116000000D01*
X159500000Y-121320000D02*
X159500000Y-116000000D01*
X138333000Y-115667000D02*
X138333000Y-113284000D01*
X186000000Y-116000000D02*
X186563000Y-115437000D01*
X162250000Y-116000000D02*
X162433000Y-115817000D01*
X157734000Y-123086000D02*
X159500000Y-121320000D01*
X138000000Y-116000000D02*
X138333000Y-115667000D01*
X162433000Y-115817000D02*
X162433000Y-113284000D01*
%TO.N,A6*%
X186500000Y-116500000D02*
X187833000Y-115167000D01*
X187833000Y-115167000D02*
X187833000Y-113284000D01*
X163254002Y-116495998D02*
X163703000Y-116047000D01*
X162250000Y-116500000D02*
X162254002Y-116495998D01*
X159000000Y-116500000D02*
X159000000Y-121200000D01*
X162254002Y-116495998D02*
X163254002Y-116495998D01*
X155500000Y-123000000D02*
X155194000Y-123306000D01*
X155194000Y-123306000D02*
X155194000Y-123698000D01*
X186000000Y-116500000D02*
X186500000Y-116500000D01*
X157200000Y-123000000D02*
X155500000Y-123000000D01*
X139250000Y-116500000D02*
X139603000Y-116147000D01*
X163703000Y-116047000D02*
X163703000Y-113284000D01*
X138000000Y-116500000D02*
X139250000Y-116500000D01*
X159000000Y-121200000D02*
X157200000Y-123000000D01*
X162000000Y-116500000D02*
X162250000Y-116500000D01*
X139603000Y-116147000D02*
X139603000Y-113284000D01*
%TO.N,A2*%
X139730000Y-118770000D02*
X139730000Y-120396000D01*
X164250000Y-118500000D02*
X164160000Y-118500000D01*
X187960000Y-119040000D02*
X187960000Y-120396000D01*
X140000000Y-118500000D02*
X139730000Y-118770000D01*
X190000000Y-118500000D02*
X188500000Y-118500000D01*
X137660000Y-123000000D02*
X137414000Y-123246000D01*
X139730000Y-120396000D02*
X139730000Y-122210000D01*
X137414000Y-123246000D02*
X137414000Y-123698000D01*
X164160000Y-118500000D02*
X163830000Y-118830000D01*
X188500000Y-118500000D02*
X187960000Y-119040000D01*
X165750000Y-118495998D02*
X164254002Y-118495998D01*
X139730000Y-122210000D02*
X138940000Y-123000000D01*
X138940000Y-123000000D02*
X137660000Y-123000000D01*
X142000000Y-118500000D02*
X140000000Y-118500000D01*
X163830000Y-118830000D02*
X163830000Y-120396000D01*
X164254002Y-118495998D02*
X164250000Y-118500000D01*
%TO.N,A3*%
X165100000Y-119400000D02*
X165100000Y-120396000D01*
X189230000Y-119270000D02*
X189230000Y-120396000D01*
X189500000Y-119000000D02*
X189230000Y-119270000D01*
X139954000Y-122606000D02*
X139954000Y-123698000D01*
X166750000Y-118995998D02*
X165504002Y-118995998D01*
X165504002Y-118995998D02*
X165100000Y-119400000D01*
X141000000Y-120396000D02*
X141000000Y-121560000D01*
X191000000Y-119000000D02*
X189500000Y-119000000D01*
X141000000Y-121560000D02*
X139954000Y-122606000D01*
X143000000Y-119000000D02*
X141250000Y-119000000D01*
X141250000Y-119000000D02*
X141000000Y-119250000D01*
X141000000Y-119250000D02*
X141000000Y-120396000D01*
%TO.N,A1*%
X163254002Y-117995998D02*
X162560000Y-118690000D01*
X138460000Y-120396000D02*
X138460000Y-118575686D01*
X138460000Y-118575686D02*
X139035686Y-118000000D01*
X162560000Y-118690000D02*
X162560000Y-120396000D01*
X186690000Y-118810000D02*
X186690000Y-120396000D01*
X187500000Y-118000000D02*
X186690000Y-118810000D01*
X139035686Y-118000000D02*
X141000000Y-118000000D01*
X189000000Y-118000000D02*
X187500000Y-118000000D01*
X164750000Y-117995998D02*
X163254002Y-117995998D01*
%TO.N,A0*%
X136710000Y-122180000D02*
X130830000Y-122180000D01*
X185420000Y-119080000D02*
X185420000Y-120396000D01*
X129794000Y-123216000D02*
X129794000Y-123698000D01*
X137190000Y-120396000D02*
X137190000Y-121700000D01*
X138060000Y-117500000D02*
X137190000Y-118370000D01*
X130830000Y-122180000D02*
X129794000Y-123216000D01*
X187000000Y-117500000D02*
X185420000Y-119080000D01*
X137190000Y-121700000D02*
X136710000Y-122180000D01*
X137190000Y-118370000D02*
X137190000Y-120396000D01*
X140000000Y-117500000D02*
X138060000Y-117500000D01*
X188000000Y-117500000D02*
X187000000Y-117500000D01*
X161290000Y-118210000D02*
X161290000Y-120396000D01*
X164000000Y-117495998D02*
X162004002Y-117495998D01*
X162004002Y-117495998D02*
X161290000Y-118210000D01*
%TO.N,DQ0*%
X127254000Y-122754000D02*
X127030000Y-122530000D01*
X127030000Y-122530000D02*
X127030000Y-120396000D01*
X127254000Y-123698000D02*
X127254000Y-122754000D01*
%TO.N,CAS*%
X130750000Y-113500000D02*
X130713000Y-113463000D01*
X130713000Y-113463000D02*
X130713000Y-113284000D01*
%TD*%
%TA.AperFunction,Conductor*%
%TO.N,GND*%
G36*
X203167102Y-111295502D02*
G01*
X203213595Y-111349158D01*
X203224979Y-111401098D01*
X203269205Y-125331998D01*
X203274018Y-126848100D01*
X203254233Y-126916284D01*
X203200725Y-126962947D01*
X203148019Y-126974500D01*
X197150500Y-126974500D01*
X197082379Y-126954498D01*
X197035886Y-126900842D01*
X197024500Y-126848500D01*
X197024499Y-123303140D01*
X197024499Y-123303136D01*
X197021585Y-123278009D01*
X196987797Y-123201486D01*
X196976206Y-123175234D01*
X196896767Y-123095795D01*
X196896765Y-123095794D01*
X196793989Y-123050414D01*
X196793990Y-123050414D01*
X196768870Y-123047500D01*
X196768866Y-123047499D01*
X196596499Y-123047499D01*
X196528379Y-123027497D01*
X196481886Y-122973841D01*
X196470500Y-122921499D01*
X196470500Y-121047527D01*
X196470500Y-121047525D01*
X196432984Y-120907515D01*
X196428582Y-120899890D01*
X196389804Y-120832725D01*
X196360512Y-120781989D01*
X196360507Y-120781983D01*
X195534017Y-119955492D01*
X195534011Y-119955487D01*
X195408486Y-119883016D01*
X195342836Y-119865424D01*
X195342836Y-119865425D01*
X195318048Y-119858783D01*
X195268475Y-119845500D01*
X195268473Y-119845500D01*
X194782765Y-119845500D01*
X194714644Y-119825498D01*
X194704011Y-119817446D01*
X194700851Y-119815265D01*
X194550225Y-119736210D01*
X194550221Y-119736208D01*
X194385059Y-119695500D01*
X194385056Y-119695500D01*
X194301499Y-119695500D01*
X194233378Y-119675498D01*
X194186885Y-119621842D01*
X194175499Y-119569500D01*
X194175499Y-119455139D01*
X194175499Y-119455135D01*
X194172585Y-119430008D01*
X194146502Y-119370936D01*
X194127206Y-119327233D01*
X194047767Y-119247794D01*
X194047765Y-119247793D01*
X193999534Y-119226497D01*
X193945297Y-119180684D01*
X193924438Y-119112821D01*
X193943580Y-119044453D01*
X193996645Y-118997288D01*
X194006396Y-118993177D01*
X194120965Y-118950445D01*
X194237904Y-118862905D01*
X194325444Y-118745966D01*
X194325444Y-118745965D01*
X194376494Y-118609094D01*
X194382999Y-118548598D01*
X194383000Y-118548586D01*
X194383000Y-118004001D01*
X192117000Y-118004001D01*
X192117000Y-118311471D01*
X192096998Y-118379592D01*
X192043342Y-118426085D01*
X191973068Y-118436189D01*
X191908488Y-118406695D01*
X191901905Y-118400566D01*
X190997340Y-117496001D01*
X192117000Y-117496001D01*
X192996000Y-117496001D01*
X192996000Y-116492001D01*
X193504000Y-116492001D01*
X193504000Y-117496001D01*
X194383000Y-117496001D01*
X194383000Y-116961290D01*
X198047500Y-116961290D01*
X198079160Y-117201782D01*
X198141944Y-117436095D01*
X198141945Y-117436097D01*
X198141946Y-117436100D01*
X198234776Y-117660212D01*
X198234777Y-117660213D01*
X198234782Y-117660224D01*
X198356061Y-117870285D01*
X198356063Y-117870288D01*
X198356064Y-117870289D01*
X198503735Y-118062738D01*
X198503739Y-118062742D01*
X198503744Y-118062748D01*
X198675251Y-118234255D01*
X198675256Y-118234259D01*
X198675262Y-118234265D01*
X198867711Y-118381936D01*
X198867714Y-118381938D01*
X199077775Y-118503217D01*
X199077779Y-118503218D01*
X199077788Y-118503224D01*
X199301900Y-118596054D01*
X199536211Y-118658838D01*
X199536215Y-118658838D01*
X199536217Y-118658839D01*
X199597510Y-118666908D01*
X199776712Y-118690500D01*
X199776719Y-118690500D01*
X200019281Y-118690500D01*
X200019288Y-118690500D01*
X200242205Y-118661153D01*
X200259782Y-118658839D01*
X200259782Y-118658838D01*
X200259789Y-118658838D01*
X200494100Y-118596054D01*
X200718212Y-118503224D01*
X200928289Y-118381936D01*
X201120738Y-118234265D01*
X201292265Y-118062738D01*
X201439936Y-117870289D01*
X201561224Y-117660212D01*
X201654054Y-117436100D01*
X201716838Y-117201789D01*
X201748500Y-116961288D01*
X201748500Y-116718712D01*
X201719293Y-116496860D01*
X201716839Y-116478217D01*
X201716838Y-116478215D01*
X201716838Y-116478211D01*
X201654054Y-116243900D01*
X201561224Y-116019788D01*
X201561218Y-116019779D01*
X201561217Y-116019775D01*
X201439938Y-115809714D01*
X201439936Y-115809711D01*
X201292265Y-115617262D01*
X201292259Y-115617256D01*
X201292255Y-115617251D01*
X201120748Y-115445744D01*
X201120742Y-115445739D01*
X201120738Y-115445735D01*
X200928289Y-115298064D01*
X200928288Y-115298063D01*
X200928285Y-115298061D01*
X200718224Y-115176782D01*
X200718216Y-115176778D01*
X200718212Y-115176776D01*
X200494100Y-115083946D01*
X200494097Y-115083945D01*
X200494095Y-115083944D01*
X200259782Y-115021160D01*
X200019290Y-114989500D01*
X200019288Y-114989500D01*
X199776712Y-114989500D01*
X199776709Y-114989500D01*
X199536217Y-115021160D01*
X199301904Y-115083944D01*
X199301900Y-115083946D01*
X199117505Y-115160325D01*
X199077786Y-115176777D01*
X199077775Y-115176782D01*
X198867714Y-115298061D01*
X198675262Y-115445735D01*
X198675251Y-115445744D01*
X198503744Y-115617251D01*
X198503735Y-115617262D01*
X198356061Y-115809714D01*
X198234782Y-116019775D01*
X198234777Y-116019786D01*
X198234776Y-116019788D01*
X198162750Y-116193674D01*
X198141946Y-116243900D01*
X198141944Y-116243904D01*
X198079160Y-116478217D01*
X198047500Y-116718709D01*
X198047500Y-116961290D01*
X194383000Y-116961290D01*
X194383000Y-116951415D01*
X194382999Y-116951403D01*
X194376494Y-116890907D01*
X194325444Y-116754036D01*
X194325444Y-116754035D01*
X194237904Y-116637096D01*
X194120965Y-116549556D01*
X193984093Y-116498506D01*
X193923597Y-116492001D01*
X193504000Y-116492001D01*
X192996000Y-116492001D01*
X192576402Y-116492001D01*
X192515906Y-116498506D01*
X192379035Y-116549556D01*
X192379034Y-116549556D01*
X192262095Y-116637096D01*
X192174555Y-116754035D01*
X192174555Y-116754036D01*
X192123505Y-116890907D01*
X192117000Y-116951403D01*
X192117000Y-117496001D01*
X190997340Y-117496001D01*
X190764405Y-117263066D01*
X190730379Y-117200754D01*
X190727500Y-117173971D01*
X190727500Y-114655941D01*
X190747502Y-114587820D01*
X190801158Y-114541327D01*
X190828921Y-114532362D01*
X190872301Y-114523734D01*
X190956484Y-114467484D01*
X191012734Y-114383301D01*
X191027500Y-114309067D01*
X191027499Y-112258934D01*
X191027498Y-112258927D01*
X191027498Y-112258926D01*
X191012734Y-112184699D01*
X190956483Y-112100515D01*
X190872302Y-112044266D01*
X190798068Y-112029500D01*
X189947936Y-112029500D01*
X189947926Y-112029501D01*
X189873698Y-112044266D01*
X189808002Y-112088163D01*
X189740249Y-112109378D01*
X189671782Y-112090595D01*
X189667998Y-112088163D01*
X189602302Y-112044266D01*
X189528068Y-112029500D01*
X188677936Y-112029500D01*
X188677926Y-112029501D01*
X188603698Y-112044266D01*
X188538002Y-112088163D01*
X188470249Y-112109378D01*
X188401782Y-112090595D01*
X188397998Y-112088163D01*
X188332302Y-112044266D01*
X188258068Y-112029500D01*
X187407936Y-112029500D01*
X187407926Y-112029501D01*
X187333698Y-112044266D01*
X187268002Y-112088163D01*
X187200249Y-112109378D01*
X187131782Y-112090595D01*
X187127998Y-112088163D01*
X187062302Y-112044266D01*
X186988068Y-112029500D01*
X186137936Y-112029500D01*
X186137926Y-112029501D01*
X186063698Y-112044266D01*
X185998002Y-112088163D01*
X185930249Y-112109378D01*
X185861782Y-112090595D01*
X185857998Y-112088163D01*
X185792302Y-112044266D01*
X185718068Y-112029500D01*
X184867936Y-112029500D01*
X184867926Y-112029501D01*
X184793699Y-112044265D01*
X184709515Y-112100516D01*
X184653266Y-112184697D01*
X184638500Y-112258930D01*
X184638500Y-114309063D01*
X184638501Y-114309073D01*
X184653265Y-114383300D01*
X184709516Y-114467484D01*
X184793697Y-114523733D01*
X184793699Y-114523734D01*
X184837081Y-114532363D01*
X184899990Y-114565270D01*
X184935123Y-114626965D01*
X184938500Y-114655942D01*
X184938500Y-115007971D01*
X184918498Y-115076092D01*
X184901595Y-115097066D01*
X184890066Y-115108595D01*
X184827754Y-115142621D01*
X184800971Y-115145500D01*
X184576053Y-115145500D01*
X184507934Y-115125498D01*
X184443277Y-115083946D01*
X184440747Y-115082320D01*
X184315350Y-115045500D01*
X184315347Y-115045500D01*
X184230500Y-115045500D01*
X184162379Y-115025498D01*
X184115886Y-114971842D01*
X184104500Y-114919500D01*
X184104500Y-112331922D01*
X184124502Y-112263801D01*
X184135277Y-112249408D01*
X184135398Y-112249267D01*
X184136282Y-112248248D01*
X184190574Y-112129364D01*
X184194722Y-112100515D01*
X184209174Y-112000003D01*
X184209174Y-111999996D01*
X184190575Y-111870642D01*
X184190574Y-111870641D01*
X184190574Y-111870636D01*
X184136282Y-111751752D01*
X184136280Y-111751750D01*
X184136279Y-111751747D01*
X184050697Y-111652980D01*
X184050693Y-111652977D01*
X183940748Y-111582321D01*
X183940750Y-111582321D01*
X183815350Y-111545500D01*
X183815347Y-111545500D01*
X183684653Y-111545500D01*
X183684649Y-111545500D01*
X183559250Y-111582321D01*
X183449306Y-111652977D01*
X183449302Y-111652980D01*
X183363720Y-111751747D01*
X183309426Y-111870635D01*
X183309424Y-111870642D01*
X183290826Y-111999996D01*
X183290826Y-112000003D01*
X183303898Y-112090920D01*
X183293795Y-112161194D01*
X183247302Y-112214850D01*
X183179181Y-112234852D01*
X183111060Y-112214850D01*
X183083957Y-112191365D01*
X183050694Y-112152978D01*
X183050693Y-112152977D01*
X182940748Y-112082321D01*
X182940750Y-112082321D01*
X182815350Y-112045500D01*
X182815347Y-112045500D01*
X182684653Y-112045500D01*
X182684649Y-112045500D01*
X182559250Y-112082321D01*
X182449306Y-112152977D01*
X182449302Y-112152980D01*
X182363720Y-112251747D01*
X182309426Y-112370635D01*
X182309424Y-112370642D01*
X182299810Y-112437510D01*
X182270317Y-112502091D01*
X182210591Y-112540474D01*
X182193030Y-112544295D01*
X182184654Y-112545499D01*
X182059250Y-112582321D01*
X181949306Y-112652977D01*
X181949302Y-112652980D01*
X181863720Y-112751747D01*
X181809426Y-112870635D01*
X181809424Y-112870642D01*
X181790826Y-112999996D01*
X181790826Y-113000003D01*
X181809424Y-113129357D01*
X181809426Y-113129364D01*
X181863718Y-113248248D01*
X181863719Y-113248249D01*
X181864723Y-113249408D01*
X181865361Y-113250805D01*
X181868592Y-113255833D01*
X181867869Y-113256297D01*
X181894217Y-113313988D01*
X181895500Y-113331922D01*
X181895500Y-113740148D01*
X181875498Y-113808269D01*
X181821842Y-113854762D01*
X181751568Y-113864866D01*
X181686988Y-113835372D01*
X181654887Y-113792493D01*
X181636282Y-113751752D01*
X181636278Y-113751747D01*
X181636278Y-113751746D01*
X181550697Y-113652980D01*
X181550693Y-113652977D01*
X181440748Y-113582321D01*
X181440750Y-113582321D01*
X181315350Y-113545500D01*
X181315347Y-113545500D01*
X181184653Y-113545500D01*
X181184649Y-113545500D01*
X181059249Y-113582321D01*
X181051056Y-113586064D01*
X181050186Y-113584159D01*
X180993485Y-113600801D01*
X180925366Y-113580791D01*
X180878879Y-113527130D01*
X180867499Y-113474801D01*
X180867499Y-112258936D01*
X180867498Y-112258927D01*
X180852734Y-112184699D01*
X180796483Y-112100515D01*
X180712302Y-112044266D01*
X180638068Y-112029500D01*
X179787936Y-112029500D01*
X179787926Y-112029501D01*
X179713698Y-112044266D01*
X179648002Y-112088163D01*
X179580249Y-112109378D01*
X179511782Y-112090595D01*
X179507998Y-112088163D01*
X179442302Y-112044266D01*
X179368068Y-112029500D01*
X178517936Y-112029500D01*
X178517926Y-112029501D01*
X178443698Y-112044266D01*
X178378002Y-112088163D01*
X178310249Y-112109378D01*
X178241782Y-112090595D01*
X178237998Y-112088163D01*
X178172302Y-112044266D01*
X178098068Y-112029500D01*
X177247936Y-112029500D01*
X177247926Y-112029501D01*
X177173698Y-112044266D01*
X177108002Y-112088163D01*
X177040249Y-112109378D01*
X176971782Y-112090595D01*
X176967998Y-112088163D01*
X176902302Y-112044266D01*
X176828069Y-112029500D01*
X176167126Y-112029500D01*
X176099005Y-112009498D01*
X176066258Y-111979010D01*
X176022902Y-111921094D01*
X175905965Y-111833555D01*
X175769093Y-111782505D01*
X175708597Y-111776000D01*
X175514000Y-111776000D01*
X175514000Y-113412000D01*
X175493998Y-113480121D01*
X175440342Y-113526614D01*
X175388000Y-113538000D01*
X175132000Y-113538000D01*
X175063879Y-113517998D01*
X175017386Y-113464342D01*
X175006000Y-113412000D01*
X175006000Y-111776000D01*
X174811402Y-111776000D01*
X174750906Y-111782505D01*
X174614035Y-111833555D01*
X174614034Y-111833555D01*
X174597316Y-111846071D01*
X174530795Y-111870881D01*
X174461421Y-111855789D01*
X174411220Y-111805586D01*
X174407194Y-111797544D01*
X174400326Y-111782505D01*
X174386282Y-111751752D01*
X174386280Y-111751750D01*
X174386279Y-111751747D01*
X174300697Y-111652980D01*
X174300693Y-111652977D01*
X174190748Y-111582321D01*
X174190750Y-111582321D01*
X174065350Y-111545500D01*
X174065347Y-111545500D01*
X173934653Y-111545500D01*
X173934649Y-111545500D01*
X173809250Y-111582321D01*
X173699306Y-111652977D01*
X173699302Y-111652980D01*
X173613720Y-111751747D01*
X173559426Y-111870635D01*
X173559424Y-111870642D01*
X173540826Y-111999996D01*
X173540826Y-112000003D01*
X173559424Y-112129357D01*
X173559426Y-112129364D01*
X173613718Y-112248248D01*
X173613719Y-112248249D01*
X173614723Y-112249408D01*
X173615361Y-112250805D01*
X173618592Y-112255833D01*
X173617869Y-112256297D01*
X173644217Y-112313988D01*
X173645500Y-112331922D01*
X173645500Y-114938096D01*
X173669659Y-115028255D01*
X173716326Y-115109086D01*
X173716334Y-115109096D01*
X174868595Y-116261356D01*
X174902620Y-116323668D01*
X174905500Y-116350451D01*
X174905500Y-119296457D01*
X174885498Y-119364578D01*
X174865961Y-119384484D01*
X174867657Y-119386180D01*
X174858920Y-119394916D01*
X174858588Y-119395412D01*
X174858587Y-119395415D01*
X174858500Y-119395855D01*
X174858500Y-121396144D01*
X174858587Y-121396584D01*
X174858588Y-121396587D01*
X174858918Y-121397081D01*
X174859412Y-121397411D01*
X174859415Y-121397413D01*
X174859854Y-121397500D01*
X175419500Y-121397500D01*
X175487621Y-121417502D01*
X175534114Y-121471158D01*
X175545500Y-121523500D01*
X175545500Y-121546674D01*
X175569659Y-121636833D01*
X175616326Y-121717664D01*
X175616328Y-121717666D01*
X175616329Y-121717668D01*
X176523567Y-122624906D01*
X176557591Y-122687217D01*
X176552527Y-122758032D01*
X176509980Y-122814868D01*
X176443460Y-122839679D01*
X176434471Y-122840000D01*
X175768000Y-122840000D01*
X175768000Y-125226000D01*
X175747998Y-125294121D01*
X175694342Y-125340614D01*
X175642000Y-125352000D01*
X175386000Y-125352000D01*
X175317879Y-125331998D01*
X175271386Y-125278342D01*
X175260000Y-125226000D01*
X175260000Y-123727837D01*
X175364000Y-123727837D01*
X175386836Y-123782968D01*
X175429032Y-123825164D01*
X175484163Y-123848000D01*
X175543837Y-123848000D01*
X175598968Y-123825164D01*
X175641164Y-123782968D01*
X175664000Y-123727837D01*
X175664000Y-123668163D01*
X175641164Y-123613032D01*
X175598968Y-123570836D01*
X175543837Y-123548000D01*
X175484163Y-123548000D01*
X175429032Y-123570836D01*
X175386836Y-123613032D01*
X175364000Y-123668163D01*
X175364000Y-123727837D01*
X175260000Y-123727837D01*
X175260000Y-122844322D01*
X175209076Y-122850718D01*
X175074114Y-122906621D01*
X175074113Y-122906622D01*
X175006216Y-122959366D01*
X175006203Y-122959377D01*
X174333594Y-123631986D01*
X174271282Y-123666011D01*
X174200466Y-123660946D01*
X174143631Y-123618399D01*
X174118820Y-123551879D01*
X174118499Y-123542890D01*
X174118499Y-123322936D01*
X174118498Y-123322927D01*
X174103734Y-123248699D01*
X174096391Y-123237710D01*
X174047484Y-123164516D01*
X174047480Y-123164513D01*
X173963302Y-123108266D01*
X173889069Y-123093500D01*
X173889065Y-123093499D01*
X172923028Y-123093499D01*
X172854907Y-123073497D01*
X172833933Y-123056594D01*
X171891405Y-122114066D01*
X171857379Y-122051754D01*
X171854500Y-122024971D01*
X171854500Y-114331922D01*
X171874502Y-114263801D01*
X171885277Y-114249408D01*
X171885398Y-114249267D01*
X171886282Y-114248248D01*
X171940574Y-114129364D01*
X171952632Y-114045499D01*
X171959174Y-114000003D01*
X171959174Y-113999996D01*
X171940575Y-113870642D01*
X171940574Y-113870641D01*
X171940574Y-113870636D01*
X171886282Y-113751752D01*
X171886280Y-113751750D01*
X171886279Y-113751747D01*
X171800697Y-113652980D01*
X171800693Y-113652977D01*
X171690748Y-113582321D01*
X171690750Y-113582321D01*
X171565350Y-113545500D01*
X171565347Y-113545500D01*
X171434653Y-113545500D01*
X171434649Y-113545500D01*
X171309250Y-113582321D01*
X171199306Y-113652977D01*
X171199302Y-113652980D01*
X171113720Y-113751747D01*
X171059426Y-113870635D01*
X171059424Y-113870642D01*
X171040826Y-113999996D01*
X171040826Y-114000003D01*
X171059424Y-114129357D01*
X171059426Y-114129364D01*
X171113718Y-114248248D01*
X171113719Y-114248249D01*
X171114723Y-114249408D01*
X171115361Y-114250805D01*
X171118592Y-114255833D01*
X171117869Y-114256297D01*
X171144217Y-114313988D01*
X171145500Y-114331922D01*
X171145500Y-114419500D01*
X171125498Y-114487621D01*
X171071842Y-114534114D01*
X171019500Y-114545500D01*
X170934649Y-114545500D01*
X170809250Y-114582321D01*
X170699306Y-114652977D01*
X170699302Y-114652980D01*
X170613720Y-114751747D01*
X170559426Y-114870635D01*
X170559424Y-114870642D01*
X170540826Y-114999996D01*
X170540826Y-115000003D01*
X170559424Y-115129357D01*
X170559426Y-115129364D01*
X170613718Y-115248248D01*
X170614181Y-115248783D01*
X170614723Y-115249408D01*
X170615361Y-115250805D01*
X170618592Y-115255833D01*
X170617869Y-115256297D01*
X170644217Y-115313988D01*
X170645500Y-115331922D01*
X170645500Y-119756044D01*
X170625498Y-119824165D01*
X170571842Y-119870658D01*
X170501568Y-119880762D01*
X170436988Y-119851268D01*
X170435948Y-119850357D01*
X170400857Y-119819270D01*
X170400851Y-119819265D01*
X170250224Y-119740209D01*
X170243100Y-119737508D01*
X170243842Y-119735549D01*
X170191684Y-119705182D01*
X170167927Y-119669459D01*
X170127206Y-119577234D01*
X170127205Y-119577233D01*
X170127204Y-119577231D01*
X170047767Y-119497794D01*
X170047765Y-119497793D01*
X169999534Y-119476497D01*
X169945297Y-119430684D01*
X169924438Y-119362821D01*
X169943580Y-119294453D01*
X169996645Y-119247288D01*
X170006396Y-119243177D01*
X170120965Y-119200445D01*
X170237904Y-119112905D01*
X170325444Y-118995966D01*
X170325444Y-118995965D01*
X170376494Y-118859094D01*
X170382999Y-118798598D01*
X170383000Y-118798586D01*
X170383000Y-118254001D01*
X169122000Y-118254001D01*
X169053879Y-118233999D01*
X169007386Y-118180343D01*
X168996000Y-118128001D01*
X168996000Y-116742001D01*
X169504000Y-116742001D01*
X169504000Y-117746001D01*
X170383000Y-117746001D01*
X170383000Y-117201415D01*
X170382999Y-117201403D01*
X170376494Y-117140907D01*
X170325444Y-117004036D01*
X170325444Y-117004035D01*
X170237904Y-116887096D01*
X170120965Y-116799556D01*
X169984093Y-116748506D01*
X169923597Y-116742001D01*
X169504000Y-116742001D01*
X168996000Y-116742001D01*
X168576402Y-116742001D01*
X168515906Y-116748506D01*
X168379035Y-116799556D01*
X168379034Y-116799556D01*
X168306009Y-116854223D01*
X168239489Y-116879034D01*
X168170114Y-116863942D01*
X168119912Y-116813740D01*
X168104500Y-116753355D01*
X168104500Y-115953329D01*
X168104499Y-115953325D01*
X168087548Y-115890065D01*
X168080341Y-115863168D01*
X168049478Y-115809711D01*
X168033673Y-115782335D01*
X168033669Y-115782330D01*
X168003086Y-115751747D01*
X167967668Y-115716329D01*
X166856480Y-114605141D01*
X166822454Y-114542829D01*
X166827519Y-114472014D01*
X166840811Y-114446043D01*
X166876191Y-114393093D01*
X166882734Y-114383301D01*
X166897500Y-114309067D01*
X166897499Y-112258934D01*
X166897498Y-112258927D01*
X166897498Y-112258926D01*
X166882734Y-112184699D01*
X166826483Y-112100515D01*
X166742302Y-112044266D01*
X166668068Y-112029500D01*
X165817936Y-112029500D01*
X165817926Y-112029501D01*
X165743698Y-112044266D01*
X165678002Y-112088163D01*
X165610249Y-112109378D01*
X165541782Y-112090595D01*
X165537998Y-112088163D01*
X165472302Y-112044266D01*
X165398068Y-112029500D01*
X164547936Y-112029500D01*
X164547926Y-112029501D01*
X164473698Y-112044266D01*
X164408002Y-112088163D01*
X164340249Y-112109378D01*
X164271782Y-112090595D01*
X164267998Y-112088163D01*
X164202302Y-112044266D01*
X164128068Y-112029500D01*
X163277936Y-112029500D01*
X163277926Y-112029501D01*
X163203698Y-112044266D01*
X163138002Y-112088163D01*
X163070249Y-112109378D01*
X163001782Y-112090595D01*
X162997998Y-112088163D01*
X162932302Y-112044266D01*
X162858068Y-112029500D01*
X162007936Y-112029500D01*
X162007926Y-112029501D01*
X161933698Y-112044266D01*
X161868002Y-112088163D01*
X161800249Y-112109378D01*
X161731782Y-112090595D01*
X161727998Y-112088163D01*
X161662302Y-112044266D01*
X161588068Y-112029500D01*
X160737936Y-112029500D01*
X160737926Y-112029501D01*
X160663699Y-112044265D01*
X160579515Y-112100516D01*
X160523266Y-112184697D01*
X160508500Y-112258930D01*
X160508500Y-114309063D01*
X160508501Y-114309073D01*
X160523265Y-114383300D01*
X160579516Y-114467484D01*
X160663697Y-114523733D01*
X160663699Y-114523734D01*
X160707081Y-114532363D01*
X160769990Y-114565270D01*
X160805123Y-114626965D01*
X160808500Y-114655942D01*
X160808500Y-114887971D01*
X160788498Y-114956092D01*
X160771595Y-114977066D01*
X160640066Y-115108595D01*
X160577754Y-115142621D01*
X160550971Y-115145500D01*
X160326053Y-115145500D01*
X160257934Y-115125498D01*
X160193277Y-115083946D01*
X160190747Y-115082320D01*
X160065350Y-115045500D01*
X160065347Y-115045500D01*
X159934653Y-115045500D01*
X159934649Y-115045500D01*
X159809250Y-115082321D01*
X159699306Y-115152977D01*
X159699302Y-115152980D01*
X159613720Y-115251747D01*
X159559426Y-115370635D01*
X159559424Y-115370642D01*
X159549810Y-115437510D01*
X159520317Y-115502091D01*
X159460591Y-115540474D01*
X159443030Y-115544295D01*
X159434654Y-115545499D01*
X159309250Y-115582321D01*
X159199306Y-115652977D01*
X159199302Y-115652980D01*
X159113720Y-115751747D01*
X159059426Y-115870635D01*
X159059424Y-115870642D01*
X159049810Y-115937510D01*
X159020317Y-116002091D01*
X158960591Y-116040474D01*
X158943030Y-116044295D01*
X158934654Y-116045499D01*
X158809250Y-116082321D01*
X158699306Y-116152977D01*
X158699302Y-116152980D01*
X158613720Y-116251747D01*
X158559426Y-116370635D01*
X158559424Y-116370642D01*
X158540826Y-116499996D01*
X158540826Y-116500003D01*
X158559424Y-116629357D01*
X158559426Y-116629364D01*
X158613718Y-116748248D01*
X158613942Y-116748506D01*
X158614723Y-116749408D01*
X158615361Y-116750805D01*
X158618592Y-116755833D01*
X158617869Y-116756297D01*
X158644217Y-116813988D01*
X158645500Y-116831922D01*
X158645500Y-121000971D01*
X158625498Y-121069092D01*
X158608595Y-121090066D01*
X157090066Y-122608595D01*
X157027754Y-122642621D01*
X157000971Y-122645500D01*
X155453325Y-122645500D01*
X155363166Y-122669659D01*
X155282335Y-122716326D01*
X155282325Y-122716334D01*
X155223515Y-122775145D01*
X155223503Y-122775155D01*
X154958607Y-123040051D01*
X154958608Y-123040052D01*
X154910327Y-123088333D01*
X154902279Y-123102273D01*
X154863168Y-123144033D01*
X154853767Y-123150314D01*
X154853765Y-123150316D01*
X154106315Y-123897768D01*
X154064266Y-123960699D01*
X154048292Y-124041005D01*
X154046014Y-124040551D01*
X154023303Y-124096784D01*
X153965346Y-124137789D01*
X153894419Y-124140951D01*
X153833043Y-124105265D01*
X153800704Y-124042062D01*
X153798499Y-124018594D01*
X153798499Y-123322936D01*
X153798498Y-123322927D01*
X153783734Y-123248699D01*
X153727482Y-123164513D01*
X153718710Y-123155741D01*
X153721564Y-123152886D01*
X153690559Y-123115785D01*
X153681713Y-123045341D01*
X153712356Y-122981298D01*
X153772759Y-122943989D01*
X153806090Y-122939500D01*
X153830344Y-122939500D01*
X153830347Y-122939500D01*
X153955748Y-122902679D01*
X154065695Y-122832021D01*
X154069904Y-122827164D01*
X154151279Y-122733252D01*
X154151279Y-122733250D01*
X154151282Y-122733248D01*
X154205574Y-122614364D01*
X154215239Y-122547144D01*
X154224174Y-122485003D01*
X154224174Y-122484996D01*
X154205575Y-122355642D01*
X154205574Y-122355641D01*
X154205574Y-122355636D01*
X154151282Y-122236752D01*
X154151280Y-122236750D01*
X154151279Y-122236747D01*
X154065697Y-122137980D01*
X154065693Y-122137977D01*
X153955748Y-122067321D01*
X153955749Y-122067321D01*
X153835000Y-122031866D01*
X153781404Y-122000065D01*
X153646933Y-121865594D01*
X153612907Y-121803282D01*
X153617972Y-121732467D01*
X153660519Y-121675631D01*
X153727039Y-121650820D01*
X153736028Y-121650499D01*
X154095064Y-121650499D01*
X154095066Y-121650499D01*
X154095069Y-121650498D01*
X154095072Y-121650498D01*
X154108450Y-121647837D01*
X154169301Y-121635734D01*
X154234997Y-121591836D01*
X154302748Y-121570621D01*
X154371216Y-121589403D01*
X154374997Y-121591833D01*
X154440699Y-121635734D01*
X154514933Y-121650500D01*
X155365066Y-121650499D01*
X155365069Y-121650498D01*
X155365073Y-121650498D01*
X155387394Y-121646058D01*
X155439301Y-121635734D01*
X155504997Y-121591836D01*
X155572748Y-121570621D01*
X155641216Y-121589403D01*
X155644997Y-121591833D01*
X155710699Y-121635734D01*
X155784933Y-121650500D01*
X156635066Y-121650499D01*
X156635069Y-121650498D01*
X156635073Y-121650498D01*
X156703775Y-121636833D01*
X156709301Y-121635734D01*
X156793484Y-121579484D01*
X156849734Y-121495301D01*
X156864500Y-121421067D01*
X156864499Y-119370934D01*
X156864498Y-119370930D01*
X156864498Y-119370926D01*
X156849734Y-119296699D01*
X156819701Y-119251752D01*
X156793484Y-119212516D01*
X156793483Y-119212515D01*
X156709303Y-119156266D01*
X156665917Y-119147636D01*
X156603008Y-119114728D01*
X156567877Y-119053032D01*
X156564500Y-119024057D01*
X156564500Y-118009029D01*
X156584502Y-117940908D01*
X156601405Y-117919934D01*
X158283665Y-116237674D01*
X158283671Y-116237668D01*
X158330341Y-116156832D01*
X158354500Y-116066671D01*
X158354500Y-115973329D01*
X158354500Y-115331922D01*
X158374502Y-115263801D01*
X158385277Y-115249408D01*
X158385398Y-115249267D01*
X158386282Y-115248248D01*
X158440574Y-115129364D01*
X158447398Y-115081903D01*
X158459174Y-115000003D01*
X158459174Y-114999996D01*
X158440575Y-114870642D01*
X158440574Y-114870641D01*
X158440574Y-114870636D01*
X158386282Y-114751752D01*
X158386280Y-114751750D01*
X158386279Y-114751747D01*
X158300697Y-114652980D01*
X158300693Y-114652977D01*
X158190748Y-114582321D01*
X158190750Y-114582321D01*
X158065345Y-114545499D01*
X158056970Y-114544295D01*
X157992390Y-114514799D01*
X157954009Y-114455072D01*
X157950191Y-114437522D01*
X157940574Y-114370636D01*
X157886282Y-114251752D01*
X157886280Y-114251750D01*
X157886279Y-114251747D01*
X157800697Y-114152980D01*
X157800693Y-114152977D01*
X157690748Y-114082321D01*
X157690750Y-114082321D01*
X157565345Y-114045499D01*
X157556970Y-114044295D01*
X157492390Y-114014799D01*
X157454009Y-113955072D01*
X157450191Y-113937522D01*
X157440574Y-113870636D01*
X157386282Y-113751752D01*
X157386280Y-113751750D01*
X157386279Y-113751747D01*
X157300697Y-113652980D01*
X157300693Y-113652977D01*
X157190748Y-113582321D01*
X157190750Y-113582321D01*
X157065350Y-113545500D01*
X157065347Y-113545500D01*
X157050691Y-113545500D01*
X157025148Y-113538000D01*
X156337000Y-113538000D01*
X156337000Y-114792000D01*
X156519500Y-114792000D01*
X156587621Y-114812002D01*
X156634114Y-114865658D01*
X156645500Y-114918000D01*
X156645500Y-115689599D01*
X156625498Y-115757720D01*
X156608595Y-115778694D01*
X153452332Y-118934957D01*
X153433960Y-118953329D01*
X153386330Y-119000958D01*
X153386326Y-119000963D01*
X153341181Y-119079158D01*
X153289798Y-119128151D01*
X153250876Y-119139646D01*
X153251005Y-119140293D01*
X153170698Y-119156266D01*
X153105002Y-119200163D01*
X153037249Y-119221378D01*
X152968782Y-119202595D01*
X152964998Y-119200163D01*
X152899302Y-119156266D01*
X152825068Y-119141500D01*
X151974936Y-119141500D01*
X151974926Y-119141501D01*
X151900698Y-119156266D01*
X151835002Y-119200163D01*
X151767249Y-119221378D01*
X151698782Y-119202595D01*
X151694998Y-119200163D01*
X151629302Y-119156266D01*
X151555068Y-119141500D01*
X150704936Y-119141500D01*
X150704926Y-119141501D01*
X150630699Y-119156265D01*
X150546515Y-119212516D01*
X150490266Y-119296697D01*
X150475500Y-119370930D01*
X150475500Y-121421063D01*
X150475501Y-121421073D01*
X150484624Y-121466936D01*
X150478295Y-121537650D01*
X150434740Y-121593717D01*
X150367787Y-121617335D01*
X150298694Y-121601007D01*
X150271950Y-121580611D01*
X150141405Y-121450066D01*
X150107379Y-121387754D01*
X150104500Y-121360971D01*
X150104500Y-114674686D01*
X150124502Y-114606565D01*
X150178158Y-114560072D01*
X150248432Y-114549968D01*
X150313012Y-114579462D01*
X150331368Y-114599177D01*
X150367095Y-114646904D01*
X150484034Y-114734444D01*
X150620906Y-114785494D01*
X150681402Y-114791999D01*
X150681415Y-114792000D01*
X150876000Y-114792000D01*
X150876000Y-111776000D01*
X151384000Y-111776000D01*
X151384000Y-114792000D01*
X151578585Y-114792000D01*
X151578597Y-114791999D01*
X151639093Y-114785494D01*
X151775963Y-114734445D01*
X151892906Y-114646900D01*
X151936258Y-114588990D01*
X151993093Y-114546443D01*
X152037121Y-114538499D01*
X152698066Y-114538499D01*
X152698069Y-114538498D01*
X152698072Y-114538498D01*
X152710099Y-114536105D01*
X152772301Y-114523734D01*
X152837997Y-114479836D01*
X152905748Y-114458621D01*
X152974216Y-114477403D01*
X152977997Y-114479833D01*
X153043699Y-114523734D01*
X153117933Y-114538500D01*
X153968066Y-114538499D01*
X153968069Y-114538498D01*
X153968073Y-114538498D01*
X153990113Y-114534114D01*
X154042301Y-114523734D01*
X154107997Y-114479836D01*
X154175748Y-114458621D01*
X154244216Y-114477403D01*
X154247997Y-114479833D01*
X154313699Y-114523734D01*
X154387933Y-114538500D01*
X155175873Y-114538499D01*
X155243994Y-114558501D01*
X155276741Y-114588989D01*
X155320097Y-114646905D01*
X155437034Y-114734444D01*
X155573906Y-114785494D01*
X155634402Y-114791999D01*
X155634415Y-114792000D01*
X155829000Y-114792000D01*
X155829000Y-111776000D01*
X156337000Y-111776000D01*
X156337000Y-113030000D01*
X156991000Y-113030000D01*
X156991000Y-112235414D01*
X156990999Y-112235402D01*
X156984494Y-112174906D01*
X156933444Y-112038035D01*
X156933444Y-112038034D01*
X156845904Y-111921095D01*
X156728965Y-111833555D01*
X156592093Y-111782505D01*
X156531597Y-111776000D01*
X156337000Y-111776000D01*
X155829000Y-111776000D01*
X155634402Y-111776000D01*
X155573906Y-111782505D01*
X155437035Y-111833555D01*
X155437034Y-111833555D01*
X155320097Y-111921094D01*
X155276740Y-111979011D01*
X155219903Y-112021556D01*
X155175873Y-112029500D01*
X154387936Y-112029500D01*
X154387926Y-112029501D01*
X154313698Y-112044266D01*
X154248002Y-112088163D01*
X154180249Y-112109378D01*
X154111782Y-112090595D01*
X154107998Y-112088163D01*
X154042302Y-112044266D01*
X153968068Y-112029500D01*
X153117936Y-112029500D01*
X153117926Y-112029501D01*
X153043698Y-112044266D01*
X152978002Y-112088163D01*
X152910249Y-112109378D01*
X152841782Y-112090595D01*
X152837998Y-112088163D01*
X152772302Y-112044266D01*
X152698069Y-112029500D01*
X152037126Y-112029500D01*
X151969005Y-112009498D01*
X151936258Y-111979010D01*
X151892902Y-111921094D01*
X151775965Y-111833555D01*
X151639093Y-111782505D01*
X151578597Y-111776000D01*
X151384000Y-111776000D01*
X150876000Y-111776000D01*
X150681402Y-111776000D01*
X150620906Y-111782505D01*
X150484035Y-111833555D01*
X150484034Y-111833555D01*
X150367095Y-111921095D01*
X150279556Y-112038033D01*
X150254675Y-112104743D01*
X150212128Y-112161578D01*
X150145607Y-112186389D01*
X150076233Y-112171297D01*
X150054109Y-112155936D01*
X150050697Y-112152979D01*
X149940748Y-112082321D01*
X149940750Y-112082321D01*
X149815350Y-112045500D01*
X149815347Y-112045500D01*
X149684653Y-112045500D01*
X149684649Y-112045500D01*
X149559250Y-112082321D01*
X149449306Y-112152977D01*
X149449302Y-112152980D01*
X149363720Y-112251747D01*
X149309426Y-112370635D01*
X149309424Y-112370642D01*
X149290826Y-112499996D01*
X149290826Y-112500003D01*
X149309424Y-112629357D01*
X149309426Y-112629364D01*
X149363718Y-112748248D01*
X149363719Y-112748249D01*
X149364723Y-112749408D01*
X149365361Y-112750805D01*
X149368592Y-112755833D01*
X149367869Y-112756297D01*
X149394217Y-112813988D01*
X149395500Y-112831922D01*
X149395500Y-116419500D01*
X149375498Y-116487621D01*
X149321842Y-116534114D01*
X149269500Y-116545500D01*
X149184649Y-116545500D01*
X149059250Y-116582321D01*
X148949306Y-116652977D01*
X148949302Y-116652980D01*
X148863721Y-116751746D01*
X148863718Y-116751751D01*
X148863718Y-116751752D01*
X148845112Y-116792492D01*
X148798621Y-116846146D01*
X148730500Y-116866148D01*
X148662379Y-116846146D01*
X148615886Y-116792490D01*
X148604500Y-116740148D01*
X148604500Y-113331922D01*
X148624502Y-113263801D01*
X148635277Y-113249408D01*
X148635398Y-113249267D01*
X148636282Y-113248248D01*
X148690574Y-113129364D01*
X148709174Y-113000000D01*
X148709174Y-112999996D01*
X148690575Y-112870642D01*
X148690574Y-112870641D01*
X148690574Y-112870636D01*
X148636282Y-112751752D01*
X148636280Y-112751750D01*
X148636279Y-112751747D01*
X148550697Y-112652980D01*
X148550693Y-112652977D01*
X148440748Y-112582321D01*
X148440750Y-112582321D01*
X148315350Y-112545500D01*
X148315347Y-112545500D01*
X148184653Y-112545500D01*
X148184649Y-112545500D01*
X148059250Y-112582321D01*
X147949306Y-112652977D01*
X147949302Y-112652980D01*
X147863720Y-112751747D01*
X147809426Y-112870635D01*
X147809424Y-112870642D01*
X147790826Y-112999996D01*
X147790826Y-113000003D01*
X147809424Y-113129357D01*
X147809426Y-113129364D01*
X147863718Y-113248248D01*
X147863719Y-113248249D01*
X147864723Y-113249408D01*
X147865361Y-113250805D01*
X147868592Y-113255833D01*
X147867869Y-113256297D01*
X147894217Y-113313988D01*
X147895500Y-113331922D01*
X147895500Y-121550971D01*
X147875498Y-121619092D01*
X147858595Y-121640066D01*
X146842066Y-122656595D01*
X146779754Y-122690621D01*
X146752971Y-122693500D01*
X145637325Y-122693500D01*
X145547169Y-122717658D01*
X145547168Y-122717658D01*
X145495190Y-122747668D01*
X145495189Y-122747667D01*
X145466335Y-122764326D01*
X145466329Y-122764331D01*
X145174065Y-123056595D01*
X145111753Y-123090620D01*
X145084970Y-123093499D01*
X144830930Y-123093499D01*
X144756699Y-123108264D01*
X144693765Y-123150316D01*
X144107096Y-123736987D01*
X144044783Y-123771012D01*
X143973968Y-123765948D01*
X143917132Y-123723401D01*
X143892321Y-123656881D01*
X143892000Y-123647892D01*
X143892000Y-123299414D01*
X143891999Y-123299402D01*
X143885494Y-123238906D01*
X143834444Y-123102035D01*
X143834444Y-123102034D01*
X143746904Y-122985095D01*
X143629965Y-122897555D01*
X143493093Y-122846505D01*
X143432597Y-122840000D01*
X142748000Y-122840000D01*
X142748000Y-125226000D01*
X142727998Y-125294121D01*
X142674342Y-125340614D01*
X142622000Y-125352000D01*
X142366000Y-125352000D01*
X142297879Y-125331998D01*
X142251386Y-125278342D01*
X142240000Y-125226000D01*
X142240000Y-123727837D01*
X142344000Y-123727837D01*
X142366836Y-123782968D01*
X142409032Y-123825164D01*
X142464163Y-123848000D01*
X142523837Y-123848000D01*
X142578968Y-123825164D01*
X142621164Y-123782968D01*
X142644000Y-123727837D01*
X142644000Y-123668163D01*
X142621164Y-123613032D01*
X142578968Y-123570836D01*
X142523837Y-123548000D01*
X142464163Y-123548000D01*
X142409032Y-123570836D01*
X142366836Y-123613032D01*
X142344000Y-123668163D01*
X142344000Y-123727837D01*
X142240000Y-123727837D01*
X142240000Y-122844322D01*
X142189076Y-122850718D01*
X142054114Y-122906621D01*
X142054113Y-122906622D01*
X141986216Y-122959366D01*
X141986203Y-122959377D01*
X141313594Y-123631986D01*
X141251282Y-123666011D01*
X141180466Y-123660946D01*
X141123631Y-123618399D01*
X141098820Y-123551879D01*
X141098499Y-123542890D01*
X141098499Y-123322936D01*
X141098498Y-123322927D01*
X141083734Y-123248699D01*
X141076391Y-123237710D01*
X141027484Y-123164516D01*
X141027480Y-123164513D01*
X140943302Y-123108266D01*
X140869069Y-123093500D01*
X140869065Y-123093499D01*
X140434500Y-123093499D01*
X140366379Y-123073497D01*
X140319886Y-123019841D01*
X140308500Y-122967499D01*
X140308500Y-122805028D01*
X140328502Y-122736907D01*
X140345400Y-122715937D01*
X141207292Y-121854044D01*
X141207302Y-121854037D01*
X141283665Y-121777674D01*
X141283671Y-121777668D01*
X141301567Y-121746671D01*
X141320719Y-121713499D01*
X141372101Y-121664506D01*
X141419105Y-121653102D01*
X141418909Y-121651105D01*
X141425062Y-121650499D01*
X141425066Y-121650499D01*
X141425070Y-121650498D01*
X141425072Y-121650498D01*
X141455921Y-121644362D01*
X141499301Y-121635734D01*
X141524498Y-121618897D01*
X141592249Y-121597682D01*
X141660716Y-121616464D01*
X141683595Y-121634567D01*
X141697232Y-121648204D01*
X141697234Y-121648205D01*
X141697235Y-121648206D01*
X141800009Y-121693585D01*
X141825135Y-121696500D01*
X142714864Y-121696499D01*
X142739991Y-121693585D01*
X142842765Y-121648206D01*
X142922206Y-121568765D01*
X142967585Y-121465991D01*
X142970500Y-121440865D01*
X142970500Y-121072500D01*
X142990502Y-121004379D01*
X143044158Y-120957886D01*
X143096500Y-120946500D01*
X143948501Y-120946500D01*
X144016622Y-120966502D01*
X144063115Y-121020158D01*
X144074501Y-121072500D01*
X144074501Y-121294865D01*
X144077414Y-121319989D01*
X144077416Y-121319993D01*
X144122793Y-121422764D01*
X144202232Y-121502203D01*
X144202234Y-121502204D01*
X144202235Y-121502205D01*
X144305009Y-121547584D01*
X144330135Y-121550499D01*
X145669864Y-121550498D01*
X145694991Y-121547584D01*
X145797765Y-121502205D01*
X145877206Y-121422764D01*
X145922585Y-121319990D01*
X145925500Y-121294864D01*
X145925499Y-121189245D01*
X145945500Y-121121126D01*
X145999156Y-121074633D01*
X146021345Y-121066907D01*
X146050225Y-121059790D01*
X146200852Y-120980734D01*
X146328183Y-120867929D01*
X146424818Y-120727930D01*
X146485140Y-120568872D01*
X146505645Y-120400000D01*
X146485140Y-120231128D01*
X146424818Y-120072070D01*
X146328183Y-119932071D01*
X146328181Y-119932069D01*
X146200857Y-119819270D01*
X146200851Y-119819265D01*
X146050225Y-119740210D01*
X146050222Y-119740209D01*
X145996931Y-119727074D01*
X145935576Y-119691350D01*
X145911821Y-119655629D01*
X145877206Y-119577233D01*
X145797767Y-119497794D01*
X145797765Y-119497793D01*
X145749534Y-119476497D01*
X145695297Y-119430684D01*
X145674438Y-119362821D01*
X145693580Y-119294453D01*
X145746645Y-119247288D01*
X145756396Y-119243177D01*
X145870965Y-119200445D01*
X145987904Y-119112905D01*
X146075444Y-118995966D01*
X146075444Y-118995965D01*
X146126494Y-118859094D01*
X146132999Y-118798598D01*
X146133000Y-118798586D01*
X146133000Y-118254001D01*
X143867000Y-118254001D01*
X143867000Y-118311471D01*
X143846998Y-118379592D01*
X143793342Y-118426085D01*
X143723068Y-118436189D01*
X143658488Y-118406695D01*
X143651905Y-118400566D01*
X142997340Y-117746001D01*
X143867000Y-117746001D01*
X144746000Y-117746001D01*
X144746000Y-116742001D01*
X145254000Y-116742001D01*
X145254000Y-117746001D01*
X146133000Y-117746001D01*
X146133000Y-117201415D01*
X146132999Y-117201403D01*
X146126494Y-117140907D01*
X146075444Y-117004036D01*
X146075444Y-117004035D01*
X145987904Y-116887096D01*
X145870965Y-116799556D01*
X145734093Y-116748506D01*
X145673597Y-116742001D01*
X145254000Y-116742001D01*
X144746000Y-116742001D01*
X144326402Y-116742001D01*
X144265906Y-116748506D01*
X144129035Y-116799556D01*
X144129034Y-116799556D01*
X144012095Y-116887096D01*
X143924555Y-117004035D01*
X143924555Y-117004036D01*
X143873505Y-117140907D01*
X143867000Y-117201403D01*
X143867000Y-117746001D01*
X142997340Y-117746001D01*
X142534405Y-117283066D01*
X142500379Y-117220754D01*
X142497500Y-117193971D01*
X142497500Y-114655941D01*
X142517502Y-114587820D01*
X142571158Y-114541327D01*
X142598921Y-114532362D01*
X142642301Y-114523734D01*
X142726484Y-114467484D01*
X142782734Y-114383301D01*
X142797500Y-114309067D01*
X142797499Y-112258934D01*
X142797498Y-112258927D01*
X142797498Y-112258926D01*
X142782734Y-112184699D01*
X142726483Y-112100515D01*
X142642302Y-112044266D01*
X142568068Y-112029500D01*
X141717936Y-112029500D01*
X141717926Y-112029501D01*
X141643698Y-112044266D01*
X141578002Y-112088163D01*
X141510249Y-112109378D01*
X141441782Y-112090595D01*
X141437998Y-112088163D01*
X141372302Y-112044266D01*
X141298068Y-112029500D01*
X140447936Y-112029500D01*
X140447926Y-112029501D01*
X140373698Y-112044266D01*
X140308002Y-112088163D01*
X140240249Y-112109378D01*
X140171782Y-112090595D01*
X140167998Y-112088163D01*
X140102302Y-112044266D01*
X140028068Y-112029500D01*
X139177936Y-112029500D01*
X139177926Y-112029501D01*
X139103698Y-112044266D01*
X139038002Y-112088163D01*
X138970249Y-112109378D01*
X138901782Y-112090595D01*
X138897998Y-112088163D01*
X138832302Y-112044266D01*
X138758068Y-112029500D01*
X137907936Y-112029500D01*
X137907926Y-112029501D01*
X137833698Y-112044266D01*
X137768002Y-112088163D01*
X137700249Y-112109378D01*
X137631782Y-112090595D01*
X137627998Y-112088163D01*
X137562302Y-112044266D01*
X137488068Y-112029500D01*
X136637936Y-112029500D01*
X136637926Y-112029501D01*
X136563699Y-112044265D01*
X136479515Y-112100516D01*
X136423266Y-112184697D01*
X136408500Y-112258930D01*
X136408500Y-114309063D01*
X136408501Y-114309073D01*
X136423265Y-114383300D01*
X136479516Y-114467484D01*
X136563697Y-114523733D01*
X136563699Y-114523734D01*
X136607081Y-114532363D01*
X136669990Y-114565270D01*
X136705123Y-114626965D01*
X136708500Y-114655942D01*
X136708500Y-114987971D01*
X136688498Y-115056092D01*
X136671595Y-115077066D01*
X136640066Y-115108595D01*
X136577754Y-115142621D01*
X136550971Y-115145500D01*
X136326053Y-115145500D01*
X136257934Y-115125498D01*
X136193277Y-115083946D01*
X136190747Y-115082320D01*
X136065350Y-115045500D01*
X136065347Y-115045500D01*
X135934653Y-115045500D01*
X135934649Y-115045500D01*
X135809250Y-115082321D01*
X135699306Y-115152977D01*
X135699302Y-115152980D01*
X135613720Y-115251747D01*
X135559426Y-115370635D01*
X135559424Y-115370642D01*
X135540826Y-115499996D01*
X135540826Y-115500003D01*
X135559424Y-115629357D01*
X135559426Y-115629364D01*
X135613720Y-115748252D01*
X135699302Y-115847019D01*
X135699306Y-115847022D01*
X135724427Y-115863166D01*
X135809250Y-115917678D01*
X135809249Y-115917678D01*
X135934649Y-115954499D01*
X135934650Y-115954499D01*
X135934653Y-115954500D01*
X135934656Y-115954500D01*
X136065344Y-115954500D01*
X136065347Y-115954500D01*
X136190748Y-115917679D01*
X136257934Y-115874501D01*
X136326053Y-115854500D01*
X136416334Y-115854500D01*
X136484455Y-115874502D01*
X136530948Y-115928158D01*
X136539982Y-115990988D01*
X136540826Y-115990988D01*
X136540826Y-115996860D01*
X136541051Y-115998430D01*
X136541051Y-115998432D01*
X136540826Y-115999996D01*
X136540826Y-116000003D01*
X136559424Y-116129357D01*
X136559426Y-116129364D01*
X136612733Y-116246092D01*
X136613720Y-116248252D01*
X136699302Y-116347019D01*
X136699306Y-116347022D01*
X136726774Y-116364674D01*
X136809250Y-116417678D01*
X136809249Y-116417678D01*
X136934649Y-116454499D01*
X136934650Y-116454499D01*
X136934653Y-116454500D01*
X136934656Y-116454500D01*
X137065344Y-116454500D01*
X137065347Y-116454500D01*
X137190748Y-116417679D01*
X137257934Y-116374501D01*
X137326053Y-116354500D01*
X137416334Y-116354500D01*
X137484455Y-116374502D01*
X137530948Y-116428158D01*
X137539982Y-116490988D01*
X137540826Y-116490988D01*
X137540826Y-116496860D01*
X137541051Y-116498430D01*
X137541051Y-116498432D01*
X137540826Y-116499996D01*
X137540826Y-116500003D01*
X137559424Y-116629357D01*
X137559426Y-116629364D01*
X137600229Y-116718712D01*
X137613720Y-116748252D01*
X137699302Y-116847019D01*
X137699306Y-116847022D01*
X137736051Y-116870636D01*
X137809252Y-116917679D01*
X137875013Y-116936988D01*
X137891751Y-116941903D01*
X137951478Y-116980287D01*
X137980971Y-117044867D01*
X137970867Y-117115141D01*
X137924374Y-117168797D01*
X137919253Y-117171918D01*
X137849266Y-117212325D01*
X137842338Y-117216324D01*
X137842329Y-117216331D01*
X137622566Y-117436095D01*
X136972332Y-118086329D01*
X136954162Y-118104499D01*
X136906330Y-118152330D01*
X136906326Y-118152335D01*
X136859659Y-118233166D01*
X136835500Y-118323325D01*
X136835500Y-119024058D01*
X136815498Y-119092179D01*
X136761842Y-119138672D01*
X136734081Y-119147637D01*
X136690698Y-119156266D01*
X136606515Y-119212516D01*
X136550266Y-119296697D01*
X136535500Y-119370930D01*
X136535500Y-121421063D01*
X136535501Y-121421073D01*
X136550265Y-121495300D01*
X136606517Y-121579486D01*
X136615290Y-121588259D01*
X136613021Y-121590527D01*
X136645876Y-121629845D01*
X136654719Y-121700289D01*
X136624074Y-121764331D01*
X136619441Y-121769219D01*
X136600068Y-121788593D01*
X136537756Y-121822620D01*
X136510970Y-121825500D01*
X132740662Y-121825500D01*
X132672541Y-121805498D01*
X132626048Y-121751842D01*
X132615944Y-121681568D01*
X132645438Y-121616988D01*
X132670659Y-121594736D01*
X132693484Y-121579484D01*
X132712996Y-121550283D01*
X132749734Y-121495301D01*
X132764500Y-121421067D01*
X132764499Y-119370934D01*
X132764498Y-119370930D01*
X132764498Y-119370926D01*
X132749734Y-119296699D01*
X132719701Y-119251752D01*
X132693484Y-119212516D01*
X132693483Y-119212515D01*
X132609303Y-119156266D01*
X132565917Y-119147636D01*
X132503008Y-119114728D01*
X132467877Y-119053032D01*
X132464500Y-119024057D01*
X132464500Y-118220401D01*
X132484502Y-118152280D01*
X132501405Y-118131306D01*
X134283664Y-116349047D01*
X134283671Y-116349040D01*
X134311217Y-116301328D01*
X134330341Y-116268204D01*
X134354500Y-116178043D01*
X134354500Y-115331922D01*
X134374502Y-115263801D01*
X134385277Y-115249408D01*
X134385398Y-115249267D01*
X134386282Y-115248248D01*
X134440574Y-115129364D01*
X134447398Y-115081903D01*
X134459174Y-115000003D01*
X134459174Y-114999996D01*
X134440575Y-114870642D01*
X134440574Y-114870641D01*
X134440574Y-114870636D01*
X134386282Y-114751752D01*
X134386280Y-114751750D01*
X134386279Y-114751747D01*
X134300697Y-114652980D01*
X134300693Y-114652977D01*
X134190748Y-114582321D01*
X134190750Y-114582321D01*
X134065345Y-114545499D01*
X134056970Y-114544295D01*
X133992390Y-114514799D01*
X133954009Y-114455072D01*
X133950191Y-114437522D01*
X133940574Y-114370636D01*
X133886282Y-114251752D01*
X133886280Y-114251750D01*
X133886279Y-114251747D01*
X133800697Y-114152980D01*
X133800693Y-114152977D01*
X133690748Y-114082321D01*
X133690750Y-114082321D01*
X133565345Y-114045499D01*
X133556970Y-114044295D01*
X133492390Y-114014799D01*
X133454009Y-113955072D01*
X133450191Y-113937522D01*
X133440574Y-113870636D01*
X133386282Y-113751752D01*
X133386280Y-113751750D01*
X133386279Y-113751747D01*
X133300697Y-113652980D01*
X133300693Y-113652977D01*
X133190748Y-113582321D01*
X133190750Y-113582321D01*
X133065350Y-113545500D01*
X133065347Y-113545500D01*
X132950691Y-113545500D01*
X132925148Y-113538000D01*
X132237000Y-113538000D01*
X132237000Y-114792000D01*
X132431585Y-114792000D01*
X132431597Y-114791999D01*
X132499930Y-114784652D01*
X132500116Y-114786381D01*
X132561408Y-114789662D01*
X132618998Y-114831182D01*
X132644998Y-114897247D01*
X132645500Y-114908488D01*
X132645500Y-115800970D01*
X132625498Y-115869091D01*
X132608595Y-115890065D01*
X129394064Y-119104595D01*
X129331752Y-119138621D01*
X129304970Y-119141500D01*
X129144936Y-119141500D01*
X129144926Y-119141501D01*
X129070698Y-119156266D01*
X129005002Y-119200163D01*
X128937249Y-119221378D01*
X128868782Y-119202595D01*
X128864998Y-119200163D01*
X128799302Y-119156266D01*
X128725068Y-119141500D01*
X127874936Y-119141500D01*
X127874926Y-119141501D01*
X127800698Y-119156266D01*
X127735002Y-119200163D01*
X127667249Y-119221378D01*
X127598782Y-119202595D01*
X127594998Y-119200163D01*
X127529302Y-119156266D01*
X127455068Y-119141500D01*
X126604936Y-119141500D01*
X126604926Y-119141501D01*
X126530699Y-119156265D01*
X126446515Y-119212516D01*
X126390266Y-119296697D01*
X126375500Y-119370930D01*
X126375500Y-121421063D01*
X126375501Y-121421073D01*
X126390265Y-121495300D01*
X126446516Y-121579484D01*
X126530697Y-121635733D01*
X126530699Y-121635734D01*
X126574081Y-121644363D01*
X126636990Y-121677270D01*
X126672123Y-121738965D01*
X126675500Y-121767942D01*
X126675500Y-122576674D01*
X126699659Y-122666833D01*
X126746326Y-122747664D01*
X126746328Y-122747667D01*
X126746329Y-122747668D01*
X126862596Y-122863935D01*
X126896620Y-122926245D01*
X126899500Y-122953029D01*
X126899500Y-123112391D01*
X126879498Y-123180512D01*
X126862596Y-123201486D01*
X126166315Y-123897768D01*
X126124266Y-123960699D01*
X126108292Y-124041005D01*
X126106014Y-124040551D01*
X126083303Y-124096784D01*
X126025346Y-124137789D01*
X125954419Y-124140951D01*
X125893043Y-124105265D01*
X125860704Y-124042062D01*
X125858499Y-124018594D01*
X125858499Y-123322936D01*
X125858498Y-123322927D01*
X125843734Y-123248699D01*
X125836391Y-123237710D01*
X125787484Y-123164516D01*
X125787480Y-123164513D01*
X125703302Y-123108266D01*
X125629069Y-123093500D01*
X125629065Y-123093499D01*
X125194500Y-123093499D01*
X125126379Y-123073497D01*
X125079886Y-123019841D01*
X125068500Y-122967499D01*
X125068500Y-118735029D01*
X125088502Y-118666908D01*
X125105405Y-118645934D01*
X125609934Y-118141405D01*
X125672246Y-118107379D01*
X125699029Y-118104500D01*
X129046671Y-118104500D01*
X129136832Y-118080341D01*
X129217668Y-118033671D01*
X131033671Y-116217668D01*
X131060047Y-116171982D01*
X131080341Y-116136832D01*
X131104500Y-116046671D01*
X131104500Y-114812086D01*
X131124502Y-114743965D01*
X131178158Y-114697472D01*
X131248432Y-114687368D01*
X131306010Y-114711219D01*
X131337033Y-114734443D01*
X131337035Y-114734444D01*
X131473906Y-114785494D01*
X131534402Y-114791999D01*
X131534415Y-114792000D01*
X131729000Y-114792000D01*
X131729000Y-111776000D01*
X132237000Y-111776000D01*
X132237000Y-113030000D01*
X132891000Y-113030000D01*
X132891000Y-112235414D01*
X132890999Y-112235402D01*
X132884494Y-112174906D01*
X132833444Y-112038035D01*
X132833444Y-112038034D01*
X132745904Y-111921095D01*
X132628965Y-111833555D01*
X132492093Y-111782505D01*
X132431597Y-111776000D01*
X132237000Y-111776000D01*
X131729000Y-111776000D01*
X131534402Y-111776000D01*
X131473906Y-111782505D01*
X131337035Y-111833555D01*
X131337034Y-111833555D01*
X131220097Y-111921094D01*
X131176740Y-111979011D01*
X131119903Y-112021556D01*
X131075873Y-112029500D01*
X130287936Y-112029500D01*
X130287926Y-112029501D01*
X130213698Y-112044266D01*
X130148002Y-112088163D01*
X130080249Y-112109378D01*
X130011782Y-112090595D01*
X130007998Y-112088163D01*
X129942302Y-112044266D01*
X129868068Y-112029500D01*
X129017936Y-112029500D01*
X129017926Y-112029501D01*
X128943698Y-112044266D01*
X128878002Y-112088163D01*
X128810249Y-112109378D01*
X128741782Y-112090595D01*
X128737998Y-112088163D01*
X128672302Y-112044266D01*
X128598069Y-112029500D01*
X127937126Y-112029500D01*
X127869005Y-112009498D01*
X127836258Y-111979010D01*
X127792902Y-111921094D01*
X127675965Y-111833555D01*
X127539093Y-111782505D01*
X127478597Y-111776000D01*
X127284000Y-111776000D01*
X127284000Y-114792000D01*
X127478585Y-114792000D01*
X127478597Y-114791999D01*
X127539093Y-114785494D01*
X127675963Y-114734445D01*
X127792906Y-114646900D01*
X127836258Y-114588990D01*
X127893093Y-114546443D01*
X127937121Y-114538499D01*
X128598066Y-114538499D01*
X128598069Y-114538498D01*
X128598072Y-114538498D01*
X128610099Y-114536105D01*
X128672301Y-114523734D01*
X128737997Y-114479836D01*
X128805748Y-114458621D01*
X128874216Y-114477403D01*
X128877997Y-114479833D01*
X128943699Y-114523734D01*
X129017933Y-114538500D01*
X129868066Y-114538499D01*
X129868069Y-114538498D01*
X129868073Y-114538498D01*
X129890113Y-114534114D01*
X129942301Y-114523734D01*
X130007997Y-114479836D01*
X130075748Y-114458621D01*
X130144216Y-114477403D01*
X130147997Y-114479833D01*
X130213699Y-114523734D01*
X130280118Y-114536945D01*
X130294005Y-114539708D01*
X130293400Y-114542746D01*
X130346938Y-114563899D01*
X130388382Y-114621543D01*
X130395500Y-114663294D01*
X130395500Y-115800971D01*
X130375498Y-115869092D01*
X130358595Y-115890066D01*
X128890066Y-117358595D01*
X128827754Y-117392621D01*
X128800971Y-117395500D01*
X125453325Y-117395500D01*
X125363166Y-117419659D01*
X125304850Y-117453328D01*
X125282335Y-117466326D01*
X125282329Y-117466331D01*
X125002660Y-117746001D01*
X124496332Y-118252329D01*
X124467439Y-118281222D01*
X124430330Y-118318330D01*
X124430326Y-118318335D01*
X124383659Y-118399166D01*
X124359500Y-118489325D01*
X124359500Y-123112391D01*
X124339498Y-123180512D01*
X124322596Y-123201486D01*
X123626314Y-123897769D01*
X123626310Y-123897773D01*
X123595263Y-123944239D01*
X123540786Y-123989766D01*
X123470343Y-123998613D01*
X123406299Y-123967971D01*
X123368988Y-123907569D01*
X123364499Y-123874236D01*
X123364499Y-123303140D01*
X123364499Y-123303136D01*
X123361585Y-123278009D01*
X123327797Y-123201486D01*
X123316206Y-123175234D01*
X123236767Y-123095795D01*
X123236765Y-123095794D01*
X123133989Y-123050414D01*
X123133990Y-123050414D01*
X123108870Y-123047500D01*
X123108866Y-123047499D01*
X122936499Y-123047499D01*
X122868379Y-123027497D01*
X122821886Y-122973841D01*
X122810500Y-122921499D01*
X122810500Y-120709669D01*
X122818688Y-120664989D01*
X122855140Y-120568871D01*
X122875645Y-120400002D01*
X122875645Y-120399997D01*
X122855140Y-120231128D01*
X122794820Y-120072074D01*
X122794818Y-120072070D01*
X122698183Y-119932071D01*
X122698181Y-119932069D01*
X122570857Y-119819270D01*
X122570851Y-119819265D01*
X122420225Y-119740210D01*
X122420221Y-119740208D01*
X122255059Y-119699500D01*
X122255056Y-119699500D01*
X122084944Y-119699500D01*
X122084940Y-119699500D01*
X121919778Y-119740208D01*
X121919774Y-119740210D01*
X121769148Y-119819265D01*
X121769142Y-119819270D01*
X121641818Y-119932069D01*
X121641816Y-119932071D01*
X121545181Y-120072070D01*
X121545179Y-120072074D01*
X121484859Y-120231128D01*
X121464355Y-120399997D01*
X121464355Y-120400002D01*
X121484859Y-120568871D01*
X121545179Y-120727925D01*
X121545181Y-120727929D01*
X121641816Y-120867928D01*
X121641821Y-120867933D01*
X121667051Y-120890284D01*
X121704778Y-120950427D01*
X121709500Y-120984598D01*
X121709500Y-123157337D01*
X121689498Y-123225458D01*
X121672596Y-123246432D01*
X121036237Y-123882791D01*
X121027870Y-123893107D01*
X120984877Y-123996900D01*
X120984877Y-123996902D01*
X120983500Y-124010101D01*
X120983500Y-124010102D01*
X120983501Y-126848500D01*
X120963499Y-126916621D01*
X120909843Y-126963114D01*
X120857501Y-126974500D01*
X116483500Y-126974500D01*
X116415379Y-126954498D01*
X116368886Y-126900842D01*
X116357500Y-126848500D01*
X116357500Y-122547151D01*
X116357500Y-122547144D01*
X116323925Y-122292116D01*
X116322297Y-122279747D01*
X116322296Y-122279746D01*
X116322296Y-122279740D01*
X116252489Y-122019219D01*
X116149275Y-121770038D01*
X116149269Y-121770029D01*
X116149268Y-121770025D01*
X116014419Y-121536459D01*
X115919808Y-121413161D01*
X115850230Y-121322485D01*
X115850228Y-121322483D01*
X115850215Y-121322469D01*
X115659530Y-121131784D01*
X115659516Y-121131771D01*
X115645643Y-121121126D01*
X115579002Y-121069990D01*
X115445540Y-120967580D01*
X115211974Y-120832731D01*
X115211966Y-120832727D01*
X115211962Y-120832725D01*
X114962781Y-120729511D01*
X114962778Y-120729510D01*
X114962776Y-120729509D01*
X114724861Y-120665760D01*
X114702260Y-120659704D01*
X114702258Y-120659703D01*
X114702252Y-120659702D01*
X114435054Y-120624526D01*
X114370127Y-120595804D01*
X114331035Y-120536539D01*
X114325500Y-120499604D01*
X114325500Y-116961290D01*
X115878500Y-116961290D01*
X115910160Y-117201782D01*
X115972944Y-117436095D01*
X115972945Y-117436097D01*
X115972946Y-117436100D01*
X116065776Y-117660212D01*
X116065777Y-117660213D01*
X116065782Y-117660224D01*
X116187061Y-117870285D01*
X116187063Y-117870288D01*
X116187064Y-117870289D01*
X116334735Y-118062738D01*
X116334739Y-118062742D01*
X116334744Y-118062748D01*
X116506251Y-118234255D01*
X116506256Y-118234259D01*
X116506262Y-118234265D01*
X116698711Y-118381936D01*
X116698714Y-118381938D01*
X116908775Y-118503217D01*
X116908779Y-118503218D01*
X116908788Y-118503224D01*
X117132900Y-118596054D01*
X117367211Y-118658838D01*
X117367215Y-118658838D01*
X117367217Y-118658839D01*
X117428510Y-118666908D01*
X117607712Y-118690500D01*
X117607719Y-118690500D01*
X117850281Y-118690500D01*
X117850288Y-118690500D01*
X118073205Y-118661153D01*
X118090782Y-118658839D01*
X118090782Y-118658838D01*
X118090789Y-118658838D01*
X118325100Y-118596054D01*
X118549212Y-118503224D01*
X118759289Y-118381936D01*
X118951738Y-118234265D01*
X119123265Y-118062738D01*
X119270936Y-117870289D01*
X119392224Y-117660212D01*
X119485054Y-117436100D01*
X119547838Y-117201789D01*
X119579500Y-116961288D01*
X119579500Y-116718712D01*
X119550293Y-116496860D01*
X119547839Y-116478217D01*
X119547838Y-116478215D01*
X119547838Y-116478211D01*
X119485054Y-116243900D01*
X119392224Y-116019788D01*
X119392218Y-116019779D01*
X119392217Y-116019775D01*
X119270938Y-115809714D01*
X119270936Y-115809711D01*
X119123265Y-115617262D01*
X119123259Y-115617256D01*
X119123255Y-115617251D01*
X118951748Y-115445744D01*
X118951742Y-115445739D01*
X118951738Y-115445735D01*
X118759289Y-115298064D01*
X118759288Y-115298063D01*
X118759285Y-115298061D01*
X118549224Y-115176782D01*
X118549216Y-115176778D01*
X118549212Y-115176776D01*
X118325100Y-115083946D01*
X118325097Y-115083945D01*
X118325095Y-115083944D01*
X118090782Y-115021160D01*
X117850290Y-114989500D01*
X117850288Y-114989500D01*
X117607712Y-114989500D01*
X117607709Y-114989500D01*
X117367217Y-115021160D01*
X117132904Y-115083944D01*
X117132900Y-115083946D01*
X116948505Y-115160325D01*
X116908786Y-115176777D01*
X116908775Y-115176782D01*
X116698714Y-115298061D01*
X116506262Y-115445735D01*
X116506251Y-115445744D01*
X116334744Y-115617251D01*
X116334735Y-115617262D01*
X116187061Y-115809714D01*
X116065782Y-116019775D01*
X116065777Y-116019786D01*
X116065776Y-116019788D01*
X115993750Y-116193674D01*
X115972946Y-116243900D01*
X115972944Y-116243904D01*
X115910160Y-116478217D01*
X115878500Y-116718709D01*
X115878500Y-116961290D01*
X114325500Y-116961290D01*
X114325500Y-113538000D01*
X126122000Y-113538000D01*
X126122000Y-114332597D01*
X126128505Y-114393093D01*
X126179555Y-114529964D01*
X126179555Y-114529965D01*
X126267095Y-114646904D01*
X126384034Y-114734444D01*
X126520906Y-114785494D01*
X126581402Y-114791999D01*
X126581415Y-114792000D01*
X126776000Y-114792000D01*
X126776000Y-113538000D01*
X126122000Y-113538000D01*
X114325500Y-113538000D01*
X114325500Y-113030000D01*
X126122000Y-113030000D01*
X126776000Y-113030000D01*
X126776000Y-111776000D01*
X126581402Y-111776000D01*
X126520906Y-111782505D01*
X126384035Y-111833555D01*
X126384034Y-111833555D01*
X126267095Y-111921095D01*
X126179555Y-112038034D01*
X126179555Y-112038035D01*
X126128505Y-112174906D01*
X126122000Y-112235402D01*
X126122000Y-113030000D01*
X114325500Y-113030000D01*
X114325500Y-111401500D01*
X114345502Y-111333379D01*
X114399158Y-111286886D01*
X114451500Y-111275500D01*
X203098981Y-111275500D01*
X203167102Y-111295502D01*
G37*
%TD.AperFunction*%
%TD*%
M02*
