M48
; DRILL file {KiCad 8.0.0} date 2024-11-03T15:14:56-0500
; FORMAT={-:-/ absolute / inch / decimal}
; #@! TF.CreationDate,2024-11-03T15:14:56-05:00
; #@! TF.GenerationSoftware,Kicad,Pcbnew,8.0.0
; #@! TF.FileFunction,Plated,1,4,PTH
FMAT,2
INCH
; #@! TA.AperFunction,Plated,PTH,ViaDrill
T1C0.0098
; #@! TA.AperFunction,Plated,PTH,ComponentDrill
T2C0.0118
; #@! TA.AperFunction,Plated,PTH,ViaDrill
T3C0.0157
; #@! TA.AperFunction,Plated,PTH,ViaDrill
T4C0.0157
%
G90
G05
T1
X4.5276Y-4.4094
X4.5472Y-4.4094
X4.5669Y-4.4094
X4.5866Y-4.4094
X4.6063Y-4.4094
X4.6259Y-4.9209
X4.6259Y-4.9405
X4.6259Y-4.9602
X4.6457Y-4.9213
X4.6457Y-4.9409
X4.6457Y-4.9606
X4.6654Y-4.9213
X4.6654Y-4.9409
X4.6654Y-4.9606
X4.685Y-4.9213
X4.685Y-4.9409
X4.685Y-4.9606
X4.7047Y-4.9213
X4.7047Y-4.9409
X4.7047Y-4.9606
X4.8622Y-4.7933
X4.8622Y-4.813
X4.8819Y-4.7933
X4.8819Y-4.813
X4.9295Y-4.4476
X4.9295Y-4.4673
X4.9402Y-4.6831
X4.9402Y-4.7028
X4.9433Y-4.7933
X4.9433Y-4.813
X4.9492Y-4.4476
X4.9492Y-4.4673
X4.9598Y-4.6831
X4.9598Y-4.7028
X4.963Y-4.7933
X4.963Y-4.813
X5.0492Y-4.4291
X5.0533Y-4.827
X5.0984Y-4.4488
X5.1476Y-4.4685
X5.1543Y-4.5555
X5.1543Y-4.5752
X5.174Y-4.5555
X5.174Y-4.5752
X5.1969Y-4.5276
X5.2362Y-4.4882
X5.2559Y-4.5079
X5.2642Y-4.7039
X5.2642Y-4.7776
X5.2756Y-4.5276
X5.2839Y-4.7039
X5.2839Y-4.7776
X5.3035Y-4.7039
X5.3035Y-4.7776
X5.3232Y-4.7039
X5.3232Y-4.7776
X5.3429Y-4.7039
X5.3429Y-4.7776
X5.3543Y-4.5472
X5.3937Y-4.5669
X5.4331Y-4.5866
X5.4724Y-4.6063
X5.5118Y-4.626
X5.5512Y-4.6457
X5.5906Y-4.6654
X5.5906Y-4.8228
X5.6102Y-4.8031
X5.6102Y-4.8228
X5.6299Y-4.685
X5.6299Y-4.8031
X5.6299Y-4.8228
X5.6496Y-4.8031
X5.6496Y-4.8228
X5.6594Y-4.7047
X5.6693Y-4.8031
X5.6693Y-4.8228
X5.689Y-4.8031
X5.7079Y-4.4016
X5.7276Y-4.4016
X5.7472Y-4.4016
X5.7669Y-4.4016
X5.7764Y-4.7728
X5.7764Y-4.7925
X5.7866Y-4.4016
X5.7961Y-4.7728
X5.7961Y-4.7925
X5.8366Y-4.4488
X5.8563Y-4.7047
X5.876Y-4.6063
X5.8957Y-4.4291
X5.9169Y-4.7701
X5.9941Y-4.4291
X6.0139Y-4.8326
X6.0433Y-4.4488
X6.0537Y-4.8222
X6.0925Y-4.4685
X6.1811Y-4.4882
X6.1854Y-4.7709
X6.1854Y-4.7906
X6.2008Y-4.5079
X6.2051Y-4.7709
X6.2051Y-4.7906
X6.2205Y-4.5276
X6.2598Y-4.5866
X6.2795Y-4.5669
X6.2992Y-4.5472
X6.3386Y-4.5669
X6.378Y-4.5866
X6.4173Y-4.6061
X6.4567Y-4.6258
X6.4862Y-4.6455
X6.5256Y-4.6652
X6.565Y-4.6849
X6.6043Y-4.7047
X6.6693Y-4.4024
X6.689Y-4.4024
X6.7087Y-4.4024
X6.7283Y-4.4024
X6.7323Y-4.5276
X6.748Y-4.4024
X6.752Y-4.4882
X6.7913Y-4.8031
X6.811Y-4.8031
X6.8307Y-4.8031
X6.8307Y-4.8228
X6.8504Y-4.4094
X6.8504Y-4.8031
X6.8504Y-4.8228
X6.8701Y-4.8031
X6.8701Y-4.8228
X6.8898Y-4.8228
X6.9094Y-4.8228
X6.998Y-4.4685
X7.1161Y-4.5276
X7.1358Y-4.4882
X7.1555Y-4.5079
X7.1752Y-4.4488
X7.1752Y-4.809
X7.1949Y-4.4291
X7.2047Y-4.809
X7.2146Y-4.4685
X7.2343Y-4.4094
X7.2539Y-4.5472
X7.2835Y-4.5669
X7.3228Y-4.5866
X7.3622Y-4.6063
X7.4016Y-4.626
X7.4409Y-4.6457
X7.4803Y-4.6654
X7.5197Y-4.685
X7.5386Y-4.424
X7.5386Y-4.4437
X7.5583Y-4.424
X7.5583Y-4.4437
X7.5591Y-4.7047
X7.8543Y-4.9012
X7.8543Y-4.9209
X7.8543Y-4.9405
X7.874Y-4.9016
X7.874Y-4.9213
X7.874Y-4.9409
X7.8937Y-4.4094
X7.8937Y-4.9016
X7.8937Y-4.9213
X7.8937Y-4.9409
X7.9134Y-4.4094
X7.9134Y-4.9016
X7.9134Y-4.9213
X7.9134Y-4.9409
X7.9331Y-4.4094
X7.9331Y-4.9016
X7.9331Y-4.9213
X7.9331Y-4.9409
X7.9528Y-4.4094
X7.9724Y-4.4094
T2
X4.81Y-4.87
X4.91Y-4.87
X5.01Y-4.87
X5.11Y-4.87
X5.21Y-4.87
X5.31Y-4.87
X5.41Y-4.87
X5.51Y-4.87
X5.61Y-4.87
X5.71Y-4.87
X5.81Y-4.87
X5.91Y-4.87
X6.01Y-4.87
X6.11Y-4.87
X6.21Y-4.87
X6.31Y-4.87
X6.41Y-4.87
X6.51Y-4.87
X6.61Y-4.87
X6.71Y-4.87
X6.81Y-4.87
X6.91Y-4.87
X7.01Y-4.87
X7.11Y-4.87
X7.21Y-4.87
X7.31Y-4.87
X7.41Y-4.87
X7.51Y-4.87
X7.61Y-4.87
X7.71Y-4.87
T3
X4.8098Y-4.7402
T4
X5.7402Y-4.7402
X6.6929Y-4.7402
X7.6496Y-4.74
M30
