%TF.GenerationSoftware,KiCad,Pcbnew,8.0.0*%
%TF.CreationDate,2024-11-03T15:19:12-05:00*%
%TF.ProjectId,macintosh-dram-1m-simm,6d616369-6e74-46f7-9368-2d6472616d2d,rev?*%
%TF.SameCoordinates,Original*%
%TF.FileFunction,Copper,L4,Bot*%
%TF.FilePolarity,Positive*%
%FSLAX46Y46*%
G04 Gerber Fmt 4.6, Leading zero omitted, Abs format (unit mm)*
G04 Created by KiCad (PCBNEW 8.0.0) date 2024-11-03 15:19:12*
%MOMM*%
%LPD*%
G01*
G04 APERTURE LIST*
G04 Aperture macros list*
%AMOutline5P*
0 Free polygon, 5 corners , with rotation*
0 The origin of the aperture is its center*
0 number of corners: always 5*
0 $1 to $10 corner X, Y*
0 $11 Rotation angle, in degrees counterclockwise*
0 create outline with 5 corners*
4,1,5,$1,$2,$3,$4,$5,$6,$7,$8,$9,$10,$1,$2,$11*%
%AMOutline6P*
0 Free polygon, 6 corners , with rotation*
0 The origin of the aperture is its center*
0 number of corners: always 6*
0 $1 to $12 corner X, Y*
0 $13 Rotation angle, in degrees counterclockwise*
0 create outline with 6 corners*
4,1,6,$1,$2,$3,$4,$5,$6,$7,$8,$9,$10,$11,$12,$1,$2,$13*%
%AMOutline7P*
0 Free polygon, 7 corners , with rotation*
0 The origin of the aperture is its center*
0 number of corners: always 7*
0 $1 to $14 corner X, Y*
0 $15 Rotation angle, in degrees counterclockwise*
0 create outline with 7 corners*
4,1,7,$1,$2,$3,$4,$5,$6,$7,$8,$9,$10,$11,$12,$13,$14,$1,$2,$15*%
%AMOutline8P*
0 Free polygon, 8 corners , with rotation*
0 The origin of the aperture is its center*
0 number of corners: always 8*
0 $1 to $16 corner X, Y*
0 $17 Rotation angle, in degrees counterclockwise*
0 create outline with 8 corners*
4,1,8,$1,$2,$3,$4,$5,$6,$7,$8,$9,$10,$11,$12,$13,$14,$15,$16,$1,$2,$17*%
G04 Aperture macros list end*
%TA.AperFunction,ComponentPad*%
%ADD10Outline5P,-0.890000X1.038000X-0.178000X1.750000X0.890000X1.750000X0.890000X-1.750000X-0.890000X-1.750000X0.000000*%
%TD*%
%TA.AperFunction,ViaPad*%
%ADD11C,0.400000*%
%TD*%
%TA.AperFunction,ViaPad*%
%ADD12C,0.800000*%
%TD*%
%TA.AperFunction,Conductor*%
%ADD13C,0.200000*%
%TD*%
%TA.AperFunction,Conductor*%
%ADD14C,0.500000*%
%TD*%
G04 APERTURE END LIST*
D10*
%TO.P,B1,1,VCC*%
%TO.N,+5V*%
X122174000Y-125098000D03*
%TO.P,B1,2,/CAS*%
%TO.N,CAS*%
X124714000Y-125098000D03*
%TO.P,B1,3,DQ0*%
%TO.N,DQ0*%
X127254000Y-125098000D03*
%TO.P,B1,4,A0*%
%TO.N,A0*%
X129794000Y-125098000D03*
%TO.P,B1,5,A1*%
%TO.N,A1*%
X132334000Y-125098000D03*
%TO.P,B1,6,DQ1*%
%TO.N,DQ1*%
X134874000Y-125098000D03*
%TO.P,B1,7,A2*%
%TO.N,A2*%
X137414000Y-125098000D03*
%TO.P,B1,8,A3*%
%TO.N,A3*%
X139954000Y-125098000D03*
%TO.P,B1,9,GND*%
%TO.N,GND*%
X142494000Y-125098000D03*
%TO.P,B1,10,DQ2*%
%TO.N,DQ2*%
X145034000Y-125098000D03*
%TO.P,B1,11,A4*%
%TO.N,A4*%
X147574000Y-125098000D03*
%TO.P,B1,12,A5*%
%TO.N,A5*%
X150114000Y-125098000D03*
%TO.P,B1,13,DQ3*%
%TO.N,DQ3*%
X152654000Y-125098000D03*
%TO.P,B1,14,A6*%
%TO.N,A6*%
X155194000Y-125098000D03*
%TO.P,B1,15,A7*%
%TO.N,A7*%
X157734000Y-125098000D03*
%TO.P,B1,16,DQ4*%
%TO.N,DQ4*%
X160274000Y-125098000D03*
%TO.P,B1,17,A8*%
%TO.N,A8*%
X162814000Y-125098000D03*
%TO.P,B1,18,A9*%
%TO.N,A9*%
X165354000Y-125098000D03*
%TO.P,B1,19,A10*%
%TO.N,unconnected-(B1-A10-Pad19)*%
X167894000Y-125098000D03*
%TO.P,B1,20,DQ5*%
%TO.N,DQ5*%
X170434000Y-125098000D03*
%TO.P,B1,21,/WE*%
%TO.N,WE*%
X172974000Y-125098000D03*
%TO.P,B1,22,GND*%
%TO.N,GND*%
X175514000Y-125098000D03*
%TO.P,B1,23,DQ6*%
%TO.N,DQ6*%
X178054000Y-125098000D03*
%TO.P,B1,24,A11*%
%TO.N,unconnected-(B1-A11-Pad24)*%
X180594000Y-125098000D03*
%TO.P,B1,25,DQ7*%
%TO.N,DQ7*%
X183134000Y-125098000D03*
%TO.P,B1,26,QP*%
%TO.N,QP*%
X185674000Y-125098000D03*
%TO.P,B1,27,/RAS*%
%TO.N,RAS*%
X188214000Y-125098000D03*
%TO.P,B1,28,/CASP*%
%TO.N,CASP*%
X190754000Y-125098000D03*
%TO.P,B1,29,DP*%
%TO.N,DP*%
X193294000Y-125098000D03*
%TO.P,B1,30,VCC*%
%TO.N,+5V*%
X195834000Y-125098000D03*
%TD*%
D11*
%TO.N,WE*%
X181250000Y-114000000D03*
X171500000Y-114000000D03*
X133000000Y-114000000D03*
X157000000Y-114000000D03*
%TO.N,DQ5*%
X153765000Y-122485000D03*
%TO.N,DP*%
X183750000Y-112000000D03*
X174000000Y-112000000D03*
%TO.N,CASP*%
X177750000Y-113500000D03*
X183250000Y-113500000D03*
%TO.N,RAS*%
X181750000Y-114500000D03*
X157500000Y-114500000D03*
X133500000Y-114500000D03*
D12*
%TO.N,+5V*%
X170000000Y-120400000D03*
X122170000Y-120400000D03*
X145800000Y-120400000D03*
X194300000Y-120396000D03*
D11*
%TO.N,A8*%
X160000000Y-115500000D03*
X136000000Y-115500000D03*
X184250000Y-115500000D03*
%TO.N,DQ7*%
X183000000Y-122148000D03*
X182750000Y-112500000D03*
X152250000Y-112500000D03*
%TO.N,GND*%
X135710000Y-119480000D03*
X118500000Y-125000000D03*
X116500000Y-112000000D03*
X170900000Y-111820000D03*
X147220000Y-121730000D03*
X191980000Y-112370000D03*
X173500000Y-122500000D03*
X119500000Y-125000000D03*
X145480000Y-111800000D03*
X143500000Y-122000000D03*
X135210000Y-121350000D03*
X175500000Y-122500000D03*
X144500000Y-122000000D03*
X117498696Y-124989681D03*
X131500000Y-115250000D03*
X202000000Y-112000000D03*
X119000000Y-126000000D03*
X134710000Y-119480000D03*
X135210000Y-119480000D03*
X191980000Y-112870000D03*
X157110000Y-121680000D03*
X201000000Y-125500000D03*
X201000000Y-125000000D03*
X199498696Y-125489681D03*
X142500000Y-122000000D03*
X170400000Y-111820000D03*
X191480000Y-112870000D03*
X126060000Y-122250000D03*
X125980000Y-119450000D03*
X131500000Y-115750000D03*
X145980000Y-111800000D03*
X119000000Y-125000000D03*
X125560000Y-122250000D03*
X133710000Y-121350000D03*
X199498696Y-124989681D03*
X115500000Y-112000000D03*
X134210000Y-121350000D03*
X126060000Y-121750000D03*
X202500000Y-112000000D03*
X124000000Y-122250000D03*
X119500000Y-126000000D03*
X134210000Y-119480000D03*
X201500000Y-112000000D03*
X150290000Y-121160000D03*
X171400000Y-111820000D03*
X118500000Y-126000000D03*
X119500000Y-125500000D03*
X123500000Y-122250000D03*
X125980000Y-118950000D03*
X144980000Y-111800000D03*
X117000000Y-112000000D03*
X201500000Y-124500000D03*
X174000000Y-122500000D03*
X146720000Y-121730000D03*
X201500000Y-125000000D03*
X134710000Y-121350000D03*
X191480000Y-112370000D03*
X115000000Y-112000000D03*
X133710000Y-119480000D03*
X146480000Y-111800000D03*
X117498696Y-125489681D03*
X146980000Y-111800000D03*
X200000000Y-125500000D03*
X125480000Y-119450000D03*
X125480000Y-118950000D03*
X144000000Y-122500000D03*
X200000000Y-125000000D03*
X147220000Y-121230000D03*
X125560000Y-121750000D03*
X173500000Y-122000000D03*
X135710000Y-121350000D03*
X123500000Y-121750000D03*
X200500000Y-112000000D03*
X144000000Y-122000000D03*
X199498696Y-124489681D03*
X200500000Y-125000000D03*
X200500000Y-124500000D03*
X169400000Y-111820000D03*
X119000000Y-125500000D03*
X157610000Y-121180000D03*
X118500000Y-125500000D03*
X157610000Y-121680000D03*
X116000000Y-112000000D03*
X174000000Y-122000000D03*
X143500000Y-122500000D03*
X173000000Y-122000000D03*
X172500000Y-122000000D03*
X142500000Y-122500000D03*
X118000000Y-125500000D03*
X118000000Y-126000000D03*
X174500000Y-122500000D03*
X174500000Y-122000000D03*
X146720000Y-121230000D03*
X117498696Y-125989681D03*
X175000000Y-122500000D03*
X142000000Y-122500000D03*
X169900000Y-111820000D03*
X132000000Y-115750000D03*
X200500000Y-125500000D03*
X143000000Y-122000000D03*
X200000000Y-124500000D03*
X201500000Y-125500000D03*
X201000000Y-112000000D03*
X132000000Y-115250000D03*
X124000000Y-121750000D03*
X157110000Y-121180000D03*
X143000000Y-122500000D03*
X201000000Y-124500000D03*
X118000000Y-125000000D03*
%TO.N,A9*%
X134000000Y-115000000D03*
X180750000Y-115000000D03*
X171000000Y-115000000D03*
X158000000Y-115000000D03*
%TO.N,DQ6*%
X182250000Y-122148000D03*
X182250000Y-113000000D03*
X153500000Y-113000000D03*
%TO.N,A5*%
X163000000Y-116995998D03*
X149250000Y-117000000D03*
X187000000Y-117000000D03*
X139000000Y-117000000D03*
%TO.N,A4*%
X148750000Y-119500000D03*
X167750000Y-119500000D03*
X192000000Y-119500000D03*
X143750000Y-119500000D03*
%TO.N,DQ2*%
X129500000Y-113000000D03*
X148250000Y-113000000D03*
%TO.N,DQ4*%
X152752000Y-122748000D03*
%TO.N,DQ3*%
X128250000Y-112500000D03*
X149750000Y-112500000D03*
%TO.N,A7*%
X185000000Y-116000000D03*
X159500000Y-116000000D03*
X161000000Y-116000000D03*
X137000000Y-116000000D03*
%TO.N,A6*%
X162000000Y-116500000D03*
X186000000Y-116500000D03*
X159000000Y-116500000D03*
X138000000Y-116500000D03*
%TO.N,A2*%
X142000000Y-118500000D03*
X190000000Y-118500000D03*
X165750000Y-118495998D03*
%TO.N,A3*%
X166750000Y-118995998D03*
X143000000Y-119000000D03*
X191000000Y-119000000D03*
%TO.N,DQ1*%
X128355000Y-122605000D03*
%TO.N,A1*%
X189000000Y-118000000D03*
X141000000Y-118000000D03*
X164750000Y-117995998D03*
%TO.N,A0*%
X140000000Y-117500000D03*
X164000000Y-117495998D03*
X188000000Y-117500000D03*
%TO.N,CAS*%
X154750000Y-113500000D03*
X130750000Y-113500000D03*
%TD*%
D13*
%TO.N,DQ4*%
X152752000Y-122748000D02*
X153228000Y-122748000D01*
X153228000Y-122748000D02*
X153480000Y-123000000D01*
X153480000Y-123000000D02*
X159930000Y-123000000D01*
X159930000Y-123000000D02*
X160274000Y-123344000D01*
X160274000Y-123344000D02*
X160274000Y-123698000D01*
%TO.N,DQ5*%
X153765000Y-122485000D02*
X153880000Y-122600000D01*
X160880000Y-122600000D02*
X161080000Y-122800000D01*
X153880000Y-122600000D02*
X160880000Y-122600000D01*
X161080000Y-122800000D02*
X169536000Y-122800000D01*
X169536000Y-122800000D02*
X170434000Y-123698000D01*
%TO.N,DQ1*%
X134350000Y-122600000D02*
X134874000Y-123124000D01*
X128355000Y-122605000D02*
X128360000Y-122600000D01*
X128360000Y-122600000D02*
X134350000Y-122600000D01*
X134874000Y-123124000D02*
X134874000Y-123698000D01*
%TO.N,WE*%
X181250000Y-114000000D02*
X171500000Y-114000000D01*
X157000000Y-114000000D02*
X133000000Y-114000000D01*
X171500000Y-114000000D02*
X157000000Y-114000000D01*
%TO.N,DP*%
X183750000Y-112000000D02*
X174000000Y-112000000D01*
%TO.N,CASP*%
X183250000Y-113500000D02*
X177750000Y-113500000D01*
%TO.N,RAS*%
X181750000Y-114500000D02*
X157500000Y-114500000D01*
X157500000Y-114500000D02*
X133500000Y-114500000D01*
D14*
%TO.N,+5V*%
X145800000Y-120400000D02*
X170000000Y-120400000D01*
X145800000Y-120400000D02*
X122170000Y-120400000D01*
X170000000Y-120400000D02*
X194296000Y-120400000D01*
X194296000Y-120400000D02*
X194300000Y-120396000D01*
D13*
%TO.N,A8*%
X184250000Y-115500000D02*
X160000000Y-115500000D01*
X160000000Y-115500000D02*
X136000000Y-115500000D01*
%TO.N,DQ7*%
X183080000Y-123644000D02*
X183134000Y-123698000D01*
X183000000Y-122148000D02*
X183080000Y-122228000D01*
X183080000Y-122228000D02*
X183080000Y-123644000D01*
X182750000Y-112500000D02*
X152250000Y-112500000D01*
%TO.N,A9*%
X180750000Y-115000000D02*
X158000000Y-115000000D01*
X158000000Y-115000000D02*
X134000000Y-115000000D01*
%TO.N,DQ6*%
X182250000Y-113000000D02*
X173713341Y-113000000D01*
X173713341Y-113000000D02*
X153500000Y-113000000D01*
X178054000Y-123326000D02*
X178054000Y-123698000D01*
X178340000Y-123040000D02*
X178054000Y-123326000D01*
X182250000Y-122500000D02*
X181710000Y-123040000D01*
X182250000Y-122148000D02*
X182250000Y-122500000D01*
X181710000Y-123040000D02*
X178340000Y-123040000D01*
%TO.N,A5*%
X164207107Y-116995998D02*
X163000000Y-116995998D01*
X163000000Y-116995998D02*
X162995998Y-117000000D01*
X187000000Y-117000000D02*
X164211109Y-117000000D01*
X149250000Y-117000000D02*
X139000000Y-117000000D01*
X164211109Y-117000000D02*
X164207107Y-116995998D01*
X162995998Y-117000000D02*
X149250000Y-117000000D01*
%TO.N,A4*%
X192000000Y-119500000D02*
X167750000Y-119500000D01*
X148750000Y-119500000D02*
X143750000Y-119500000D01*
X167750000Y-119500000D02*
X148750000Y-119500000D01*
%TO.N,DQ2*%
X129500000Y-113000000D02*
X148250000Y-113000000D01*
%TO.N,DQ3*%
X128500000Y-112500000D02*
X149750000Y-112500000D01*
X128250000Y-112500000D02*
X128500000Y-112500000D01*
%TO.N,A7*%
X159500000Y-116000000D02*
X137750000Y-116000000D01*
X161000000Y-116000000D02*
X159500000Y-116000000D01*
X185000000Y-116000000D02*
X161000000Y-116000000D01*
X137750000Y-116000000D02*
X137000000Y-116000000D01*
%TO.N,A6*%
X163211109Y-116500000D02*
X163207107Y-116495998D01*
X162000000Y-116500000D02*
X159000000Y-116500000D01*
X186000000Y-116500000D02*
X163211109Y-116500000D01*
X162004002Y-116495998D02*
X162000000Y-116500000D01*
X159000000Y-116500000D02*
X138000000Y-116500000D01*
X163207107Y-116495998D02*
X162004002Y-116495998D01*
%TO.N,A2*%
X166957107Y-118495998D02*
X165750000Y-118495998D01*
X190000000Y-118500000D02*
X166961109Y-118500000D01*
X166961109Y-118500000D02*
X166957107Y-118495998D01*
X165750000Y-118495998D02*
X142004002Y-118495998D01*
X142004002Y-118495998D02*
X142000000Y-118500000D01*
%TO.N,A3*%
X166754002Y-119000000D02*
X166750000Y-118995998D01*
X143004002Y-118995998D02*
X143000000Y-119000000D01*
X191000000Y-119000000D02*
X166754002Y-119000000D01*
X166750000Y-118995998D02*
X143004002Y-118995998D01*
%TO.N,A1*%
X164750000Y-117995998D02*
X141004002Y-117995998D01*
X189000000Y-118000000D02*
X165961109Y-118000000D01*
X141004002Y-117995998D02*
X141000000Y-118000000D01*
X165961109Y-118000000D02*
X165957107Y-117995998D01*
X165957107Y-117995998D02*
X164750000Y-117995998D01*
%TO.N,A0*%
X163995998Y-117500000D02*
X140000000Y-117500000D01*
X164000000Y-117495998D02*
X163995998Y-117500000D01*
X164961109Y-117500000D02*
X164957107Y-117495998D01*
X164957107Y-117495998D02*
X164000000Y-117495998D01*
X188000000Y-117500000D02*
X164961109Y-117500000D01*
%TO.N,CAS*%
X154750000Y-113500000D02*
X130750000Y-113500000D01*
%TD*%
%TA.AperFunction,Conductor*%
%TO.N,GND*%
G36*
X203167102Y-111295502D02*
G01*
X203213595Y-111349158D01*
X203224979Y-111401098D01*
X203269205Y-125331998D01*
X203274018Y-126848100D01*
X203254233Y-126916284D01*
X203200725Y-126962947D01*
X203148019Y-126974500D01*
X197150500Y-126974500D01*
X197082379Y-126954498D01*
X197035886Y-126900842D01*
X197024500Y-126848500D01*
X197024499Y-123303140D01*
X197024499Y-123303136D01*
X197021585Y-123278009D01*
X196995346Y-123218582D01*
X196976206Y-123175234D01*
X196896767Y-123095795D01*
X196896765Y-123095794D01*
X196793989Y-123050414D01*
X196793990Y-123050414D01*
X196768870Y-123047500D01*
X196768867Y-123047499D01*
X195606120Y-123047499D01*
X195606119Y-123047499D01*
X195606115Y-123047499D01*
X195592901Y-123048878D01*
X195489107Y-123091871D01*
X195489106Y-123091871D01*
X195478794Y-123100234D01*
X195478780Y-123100247D01*
X194696242Y-123882785D01*
X194687868Y-123893109D01*
X194680907Y-123909916D01*
X194636359Y-123965197D01*
X194568995Y-123987617D01*
X194500204Y-123970058D01*
X194451826Y-123918096D01*
X194438499Y-123861697D01*
X194438499Y-123322936D01*
X194438498Y-123322927D01*
X194423734Y-123248699D01*
X194414254Y-123234512D01*
X194367484Y-123164516D01*
X194367483Y-123164515D01*
X194283302Y-123108266D01*
X194209069Y-123093500D01*
X194209065Y-123093499D01*
X193090927Y-123093499D01*
X193016699Y-123108264D01*
X192953765Y-123150316D01*
X192206315Y-123897768D01*
X192164266Y-123960699D01*
X192148292Y-124041005D01*
X192146014Y-124040551D01*
X192123303Y-124096784D01*
X192065346Y-124137789D01*
X191994419Y-124140951D01*
X191933043Y-124105265D01*
X191900704Y-124042062D01*
X191898499Y-124018594D01*
X191898499Y-123322936D01*
X191898498Y-123322927D01*
X191883734Y-123248699D01*
X191874254Y-123234512D01*
X191827484Y-123164516D01*
X191827483Y-123164515D01*
X191743302Y-123108266D01*
X191669069Y-123093500D01*
X191669065Y-123093499D01*
X190550927Y-123093499D01*
X190476699Y-123108264D01*
X190413765Y-123150316D01*
X189666315Y-123897768D01*
X189624266Y-123960699D01*
X189608292Y-124041005D01*
X189606014Y-124040551D01*
X189583303Y-124096784D01*
X189525346Y-124137789D01*
X189454419Y-124140951D01*
X189393043Y-124105265D01*
X189360704Y-124042062D01*
X189358499Y-124018594D01*
X189358499Y-123322936D01*
X189358498Y-123322927D01*
X189343734Y-123248699D01*
X189334254Y-123234512D01*
X189287484Y-123164516D01*
X189287483Y-123164515D01*
X189203302Y-123108266D01*
X189129069Y-123093500D01*
X189129065Y-123093499D01*
X188010927Y-123093499D01*
X187936699Y-123108264D01*
X187873765Y-123150316D01*
X187126315Y-123897768D01*
X187084266Y-123960699D01*
X187068292Y-124041005D01*
X187066014Y-124040551D01*
X187043303Y-124096784D01*
X186985346Y-124137789D01*
X186914419Y-124140951D01*
X186853043Y-124105265D01*
X186820704Y-124042062D01*
X186818499Y-124018594D01*
X186818499Y-123322936D01*
X186818498Y-123322927D01*
X186803734Y-123248699D01*
X186794254Y-123234512D01*
X186747484Y-123164516D01*
X186747483Y-123164515D01*
X186663302Y-123108266D01*
X186589069Y-123093500D01*
X186589065Y-123093499D01*
X185470927Y-123093499D01*
X185396699Y-123108264D01*
X185333765Y-123150316D01*
X184586315Y-123897768D01*
X184544266Y-123960699D01*
X184528292Y-124041005D01*
X184526014Y-124040551D01*
X184503303Y-124096784D01*
X184445346Y-124137789D01*
X184374419Y-124140951D01*
X184313043Y-124105265D01*
X184280704Y-124042062D01*
X184278499Y-124018594D01*
X184278499Y-123322936D01*
X184278498Y-123322927D01*
X184263734Y-123248699D01*
X184254254Y-123234512D01*
X184207484Y-123164516D01*
X184207483Y-123164515D01*
X184123302Y-123108266D01*
X184049069Y-123093500D01*
X184049065Y-123093499D01*
X183560500Y-123093499D01*
X183492379Y-123073497D01*
X183445886Y-123019841D01*
X183434500Y-122967499D01*
X183434500Y-122316166D01*
X183439604Y-122280666D01*
X183440571Y-122277370D01*
X183440574Y-122277364D01*
X183443361Y-122257979D01*
X183459174Y-122148003D01*
X183459174Y-122147996D01*
X183440575Y-122018642D01*
X183440574Y-122018641D01*
X183440574Y-122018636D01*
X183386282Y-121899752D01*
X183386280Y-121899750D01*
X183386279Y-121899747D01*
X183300697Y-121800980D01*
X183300693Y-121800977D01*
X183190748Y-121730321D01*
X183190750Y-121730321D01*
X183065350Y-121693500D01*
X183065347Y-121693500D01*
X182934653Y-121693500D01*
X182934649Y-121693500D01*
X182809253Y-121730320D01*
X182693120Y-121804954D01*
X182624999Y-121824955D01*
X182556880Y-121804954D01*
X182440746Y-121730320D01*
X182315350Y-121693500D01*
X182315347Y-121693500D01*
X182184653Y-121693500D01*
X182184649Y-121693500D01*
X182059250Y-121730321D01*
X181949306Y-121800977D01*
X181949302Y-121800980D01*
X181863720Y-121899747D01*
X181809426Y-122018635D01*
X181809424Y-122018642D01*
X181790826Y-122147996D01*
X181790826Y-122148003D01*
X181809424Y-122277359D01*
X181809425Y-122277363D01*
X181823832Y-122308909D01*
X181833935Y-122379183D01*
X181804441Y-122443764D01*
X181798314Y-122450345D01*
X181600066Y-122648595D01*
X181537754Y-122682620D01*
X181510970Y-122685500D01*
X178293325Y-122685500D01*
X178203166Y-122709659D01*
X178122335Y-122756326D01*
X178122329Y-122756331D01*
X178048631Y-122830030D01*
X177836332Y-123042329D01*
X177818334Y-123060327D01*
X177766477Y-123112183D01*
X177747387Y-123127850D01*
X177713766Y-123150315D01*
X177127096Y-123736987D01*
X177064783Y-123771012D01*
X176993968Y-123765948D01*
X176937132Y-123723401D01*
X176912321Y-123656881D01*
X176912000Y-123647892D01*
X176912000Y-123299414D01*
X176911999Y-123299402D01*
X176905494Y-123238906D01*
X176854444Y-123102035D01*
X176854444Y-123102034D01*
X176766904Y-122985095D01*
X176649965Y-122897555D01*
X176513093Y-122846505D01*
X176452597Y-122840000D01*
X175768000Y-122840000D01*
X175768000Y-125226000D01*
X175747998Y-125294121D01*
X175694342Y-125340614D01*
X175642000Y-125352000D01*
X175386000Y-125352000D01*
X175317879Y-125331998D01*
X175271386Y-125278342D01*
X175260000Y-125226000D01*
X175260000Y-123727837D01*
X175364000Y-123727837D01*
X175386836Y-123782968D01*
X175429032Y-123825164D01*
X175484163Y-123848000D01*
X175543837Y-123848000D01*
X175598968Y-123825164D01*
X175641164Y-123782968D01*
X175664000Y-123727837D01*
X175664000Y-123668163D01*
X175641164Y-123613032D01*
X175598968Y-123570836D01*
X175543837Y-123548000D01*
X175484163Y-123548000D01*
X175429032Y-123570836D01*
X175386836Y-123613032D01*
X175364000Y-123668163D01*
X175364000Y-123727837D01*
X175260000Y-123727837D01*
X175260000Y-122844322D01*
X175209076Y-122850718D01*
X175074114Y-122906621D01*
X175074113Y-122906622D01*
X175006216Y-122959366D01*
X175006203Y-122959377D01*
X174333594Y-123631986D01*
X174271282Y-123666011D01*
X174200466Y-123660946D01*
X174143631Y-123618399D01*
X174118820Y-123551879D01*
X174118499Y-123542890D01*
X174118499Y-123322936D01*
X174118498Y-123322927D01*
X174103734Y-123248699D01*
X174094254Y-123234512D01*
X174047484Y-123164516D01*
X174047483Y-123164515D01*
X173963302Y-123108266D01*
X173889069Y-123093500D01*
X173889065Y-123093499D01*
X172770927Y-123093499D01*
X172696699Y-123108264D01*
X172633765Y-123150316D01*
X171886315Y-123897768D01*
X171844266Y-123960699D01*
X171828292Y-124041005D01*
X171826014Y-124040551D01*
X171803303Y-124096784D01*
X171745346Y-124137789D01*
X171674419Y-124140951D01*
X171613043Y-124105265D01*
X171580704Y-124042062D01*
X171578499Y-124018594D01*
X171578499Y-123322936D01*
X171578498Y-123322927D01*
X171563734Y-123248699D01*
X171554254Y-123234512D01*
X171507484Y-123164516D01*
X171507483Y-123164515D01*
X171423302Y-123108266D01*
X171349069Y-123093500D01*
X171349065Y-123093499D01*
X170383028Y-123093499D01*
X170314907Y-123073497D01*
X170293937Y-123056598D01*
X169753668Y-122516329D01*
X169753666Y-122516328D01*
X169753664Y-122516326D01*
X169672833Y-122469659D01*
X169582674Y-122445500D01*
X169582671Y-122445500D01*
X161279029Y-122445500D01*
X161210908Y-122425498D01*
X161189938Y-122408599D01*
X161097668Y-122316329D01*
X161097667Y-122316328D01*
X161097664Y-122316326D01*
X161016833Y-122269659D01*
X160926674Y-122245500D01*
X160926671Y-122245500D01*
X154216405Y-122245500D01*
X154148284Y-122225498D01*
X154121181Y-122202013D01*
X154065693Y-122137977D01*
X153955748Y-122067321D01*
X153955750Y-122067321D01*
X153830350Y-122030500D01*
X153830347Y-122030500D01*
X153699653Y-122030500D01*
X153699649Y-122030500D01*
X153574250Y-122067321D01*
X153464306Y-122137977D01*
X153464302Y-122137980D01*
X153378720Y-122236747D01*
X153378718Y-122236752D01*
X153340771Y-122319843D01*
X153294280Y-122373498D01*
X153226159Y-122393500D01*
X153078053Y-122393500D01*
X153009934Y-122373498D01*
X152965249Y-122344781D01*
X152942747Y-122330320D01*
X152817350Y-122293500D01*
X152817347Y-122293500D01*
X152686653Y-122293500D01*
X152686649Y-122293500D01*
X152561250Y-122330321D01*
X152451306Y-122400977D01*
X152451302Y-122400980D01*
X152365720Y-122499747D01*
X152311426Y-122618635D01*
X152311424Y-122618642D01*
X152292826Y-122747996D01*
X152292826Y-122748003D01*
X152311424Y-122877357D01*
X152311427Y-122877367D01*
X152362938Y-122990162D01*
X152373041Y-123060436D01*
X152343548Y-123125016D01*
X152318331Y-123147265D01*
X152313767Y-123150314D01*
X151566315Y-123897768D01*
X151524266Y-123960699D01*
X151508292Y-124041005D01*
X151506014Y-124040551D01*
X151483303Y-124096784D01*
X151425346Y-124137789D01*
X151354419Y-124140951D01*
X151293043Y-124105265D01*
X151260704Y-124042062D01*
X151258499Y-124018594D01*
X151258499Y-123322936D01*
X151258498Y-123322927D01*
X151243734Y-123248699D01*
X151234254Y-123234512D01*
X151187484Y-123164516D01*
X151187483Y-123164515D01*
X151103302Y-123108266D01*
X151029069Y-123093500D01*
X151029065Y-123093499D01*
X149910927Y-123093499D01*
X149836699Y-123108264D01*
X149773765Y-123150316D01*
X149026315Y-123897768D01*
X148984266Y-123960699D01*
X148968292Y-124041005D01*
X148966014Y-124040551D01*
X148943303Y-124096784D01*
X148885346Y-124137789D01*
X148814419Y-124140951D01*
X148753043Y-124105265D01*
X148720704Y-124042062D01*
X148718499Y-124018594D01*
X148718499Y-123322936D01*
X148718498Y-123322927D01*
X148703734Y-123248699D01*
X148694254Y-123234512D01*
X148647484Y-123164516D01*
X148647483Y-123164515D01*
X148563302Y-123108266D01*
X148489069Y-123093500D01*
X148489065Y-123093499D01*
X147370927Y-123093499D01*
X147296699Y-123108264D01*
X147233765Y-123150316D01*
X146486315Y-123897768D01*
X146444266Y-123960699D01*
X146428292Y-124041005D01*
X146426014Y-124040551D01*
X146403303Y-124096784D01*
X146345346Y-124137789D01*
X146274419Y-124140951D01*
X146213043Y-124105265D01*
X146180704Y-124042062D01*
X146178499Y-124018594D01*
X146178499Y-123322936D01*
X146178498Y-123322927D01*
X146163734Y-123248699D01*
X146154254Y-123234512D01*
X146107484Y-123164516D01*
X146107483Y-123164515D01*
X146023302Y-123108266D01*
X145949069Y-123093500D01*
X145949065Y-123093499D01*
X144830927Y-123093499D01*
X144756699Y-123108264D01*
X144693765Y-123150316D01*
X144107096Y-123736987D01*
X144044783Y-123771012D01*
X143973968Y-123765948D01*
X143917132Y-123723401D01*
X143892321Y-123656881D01*
X143892000Y-123647892D01*
X143892000Y-123299414D01*
X143891999Y-123299402D01*
X143885494Y-123238906D01*
X143834444Y-123102035D01*
X143834444Y-123102034D01*
X143746904Y-122985095D01*
X143629965Y-122897555D01*
X143493093Y-122846505D01*
X143432597Y-122840000D01*
X142748000Y-122840000D01*
X142748000Y-125226000D01*
X142727998Y-125294121D01*
X142674342Y-125340614D01*
X142622000Y-125352000D01*
X142366000Y-125352000D01*
X142297879Y-125331998D01*
X142251386Y-125278342D01*
X142240000Y-125226000D01*
X142240000Y-123727837D01*
X142344000Y-123727837D01*
X142366836Y-123782968D01*
X142409032Y-123825164D01*
X142464163Y-123848000D01*
X142523837Y-123848000D01*
X142578968Y-123825164D01*
X142621164Y-123782968D01*
X142644000Y-123727837D01*
X142644000Y-123668163D01*
X142621164Y-123613032D01*
X142578968Y-123570836D01*
X142523837Y-123548000D01*
X142464163Y-123548000D01*
X142409032Y-123570836D01*
X142366836Y-123613032D01*
X142344000Y-123668163D01*
X142344000Y-123727837D01*
X142240000Y-123727837D01*
X142240000Y-122844322D01*
X142189076Y-122850718D01*
X142054114Y-122906621D01*
X142054113Y-122906622D01*
X141986216Y-122959366D01*
X141986203Y-122959377D01*
X141313594Y-123631986D01*
X141251282Y-123666011D01*
X141180466Y-123660946D01*
X141123631Y-123618399D01*
X141098820Y-123551879D01*
X141098499Y-123542890D01*
X141098499Y-123322936D01*
X141098498Y-123322927D01*
X141083734Y-123248699D01*
X141074254Y-123234512D01*
X141027484Y-123164516D01*
X141027483Y-123164515D01*
X140943302Y-123108266D01*
X140869069Y-123093500D01*
X140869065Y-123093499D01*
X139750927Y-123093499D01*
X139676699Y-123108264D01*
X139613765Y-123150316D01*
X138866315Y-123897768D01*
X138824266Y-123960699D01*
X138808292Y-124041005D01*
X138806014Y-124040551D01*
X138783303Y-124096784D01*
X138725346Y-124137789D01*
X138654419Y-124140951D01*
X138593043Y-124105265D01*
X138560704Y-124042062D01*
X138558499Y-124018594D01*
X138558499Y-123322936D01*
X138558498Y-123322927D01*
X138543734Y-123248699D01*
X138534254Y-123234512D01*
X138487484Y-123164516D01*
X138487483Y-123164515D01*
X138403302Y-123108266D01*
X138329069Y-123093500D01*
X138329065Y-123093499D01*
X137210927Y-123093499D01*
X137136699Y-123108264D01*
X137073765Y-123150316D01*
X136326315Y-123897768D01*
X136284266Y-123960699D01*
X136268292Y-124041005D01*
X136266014Y-124040551D01*
X136243303Y-124096784D01*
X136185346Y-124137789D01*
X136114419Y-124140951D01*
X136053043Y-124105265D01*
X136020704Y-124042062D01*
X136018499Y-124018594D01*
X136018499Y-123322936D01*
X136018498Y-123322927D01*
X136003734Y-123248699D01*
X135994254Y-123234512D01*
X135947484Y-123164516D01*
X135947483Y-123164515D01*
X135863302Y-123108266D01*
X135789069Y-123093500D01*
X135789065Y-123093499D01*
X135329515Y-123093499D01*
X135261394Y-123073497D01*
X135214901Y-123019841D01*
X135207810Y-123000115D01*
X135204341Y-122987168D01*
X135197028Y-122974502D01*
X135157673Y-122906335D01*
X135157669Y-122906330D01*
X135128696Y-122877357D01*
X135091668Y-122840329D01*
X134567668Y-122316329D01*
X134567666Y-122316328D01*
X134567664Y-122316326D01*
X134486833Y-122269659D01*
X134396674Y-122245500D01*
X134396671Y-122245500D01*
X128673273Y-122245500D01*
X128605153Y-122225498D01*
X128545748Y-122187321D01*
X128420350Y-122150500D01*
X128420347Y-122150500D01*
X128289653Y-122150500D01*
X128289649Y-122150500D01*
X128164250Y-122187321D01*
X128054306Y-122257977D01*
X128054302Y-122257980D01*
X127968720Y-122356747D01*
X127914426Y-122475635D01*
X127914424Y-122475642D01*
X127895826Y-122604996D01*
X127895826Y-122605003D01*
X127914424Y-122734357D01*
X127914426Y-122734364D01*
X127968718Y-122853248D01*
X127968719Y-122853249D01*
X127996219Y-122884986D01*
X128025712Y-122949567D01*
X128015609Y-123019841D01*
X127969116Y-123073497D01*
X127900995Y-123093499D01*
X127050927Y-123093499D01*
X126976699Y-123108264D01*
X126913765Y-123150316D01*
X126166315Y-123897768D01*
X126124266Y-123960699D01*
X126108292Y-124041005D01*
X126106014Y-124040551D01*
X126083303Y-124096784D01*
X126025346Y-124137789D01*
X125954419Y-124140951D01*
X125893043Y-124105265D01*
X125860704Y-124042062D01*
X125858499Y-124018594D01*
X125858499Y-123322936D01*
X125858498Y-123322927D01*
X125843734Y-123248699D01*
X125834254Y-123234512D01*
X125787484Y-123164516D01*
X125787483Y-123164515D01*
X125703302Y-123108266D01*
X125629069Y-123093500D01*
X125629065Y-123093499D01*
X124510927Y-123093499D01*
X124436699Y-123108264D01*
X124373765Y-123150316D01*
X123626314Y-123897769D01*
X123626310Y-123897773D01*
X123595263Y-123944239D01*
X123540786Y-123989766D01*
X123470343Y-123998613D01*
X123406299Y-123967971D01*
X123368988Y-123907569D01*
X123364499Y-123874236D01*
X123364499Y-123303140D01*
X123364499Y-123303136D01*
X123361585Y-123278009D01*
X123335346Y-123218582D01*
X123316206Y-123175234D01*
X123236767Y-123095795D01*
X123236765Y-123095794D01*
X123133989Y-123050414D01*
X123133990Y-123050414D01*
X123108870Y-123047500D01*
X123108867Y-123047499D01*
X121946120Y-123047499D01*
X121946119Y-123047499D01*
X121946115Y-123047499D01*
X121932901Y-123048878D01*
X121829107Y-123091871D01*
X121829106Y-123091871D01*
X121818794Y-123100234D01*
X121818780Y-123100247D01*
X121036242Y-123882785D01*
X121027870Y-123893107D01*
X120984877Y-123996900D01*
X120984877Y-123996902D01*
X120983500Y-124010101D01*
X120983500Y-124010102D01*
X120983501Y-126848500D01*
X120963499Y-126916621D01*
X120909843Y-126963114D01*
X120857501Y-126974500D01*
X116483500Y-126974500D01*
X116415379Y-126954498D01*
X116368886Y-126900842D01*
X116357500Y-126848500D01*
X116357500Y-122547151D01*
X116357500Y-122547144D01*
X116322296Y-122279740D01*
X116252489Y-122019219D01*
X116149275Y-121770038D01*
X116149269Y-121770029D01*
X116149268Y-121770025D01*
X116014419Y-121536459D01*
X115850228Y-121322483D01*
X115850215Y-121322469D01*
X115659530Y-121131784D01*
X115659516Y-121131771D01*
X115445540Y-120967580D01*
X115211974Y-120832731D01*
X115211966Y-120832727D01*
X115211962Y-120832725D01*
X114962781Y-120729511D01*
X114962778Y-120729510D01*
X114962776Y-120729509D01*
X114724861Y-120665760D01*
X114702260Y-120659704D01*
X114702258Y-120659703D01*
X114702252Y-120659702D01*
X114435054Y-120624526D01*
X114370127Y-120595804D01*
X114331035Y-120536539D01*
X114325500Y-120499604D01*
X114325500Y-120400002D01*
X121464355Y-120400002D01*
X121484859Y-120568871D01*
X121545179Y-120727925D01*
X121545181Y-120727929D01*
X121641816Y-120867928D01*
X121641818Y-120867930D01*
X121766016Y-120977960D01*
X121769148Y-120980734D01*
X121919775Y-121059790D01*
X121919776Y-121059790D01*
X121919778Y-121059791D01*
X122042899Y-121090137D01*
X122084944Y-121100500D01*
X122084947Y-121100500D01*
X122255053Y-121100500D01*
X122255056Y-121100500D01*
X122420225Y-121059790D01*
X122570852Y-120980734D01*
X122570858Y-120980729D01*
X122577126Y-120976403D01*
X122578201Y-120977960D01*
X122633471Y-120951986D01*
X122652765Y-120950500D01*
X145317235Y-120950500D01*
X145385356Y-120970502D01*
X145395988Y-120978553D01*
X145399148Y-120980734D01*
X145549775Y-121059790D01*
X145549776Y-121059790D01*
X145549778Y-121059791D01*
X145672899Y-121090137D01*
X145714944Y-121100500D01*
X145714947Y-121100500D01*
X145885053Y-121100500D01*
X145885056Y-121100500D01*
X146050225Y-121059790D01*
X146200852Y-120980734D01*
X146200858Y-120980729D01*
X146207126Y-120976403D01*
X146208201Y-120977960D01*
X146263471Y-120951986D01*
X146282765Y-120950500D01*
X169517235Y-120950500D01*
X169585356Y-120970502D01*
X169595988Y-120978553D01*
X169599148Y-120980734D01*
X169749775Y-121059790D01*
X169749776Y-121059790D01*
X169749778Y-121059791D01*
X169872899Y-121090137D01*
X169914944Y-121100500D01*
X169914947Y-121100500D01*
X170085053Y-121100500D01*
X170085056Y-121100500D01*
X170250225Y-121059790D01*
X170400852Y-120980734D01*
X170400858Y-120980729D01*
X170407126Y-120976403D01*
X170408201Y-120977960D01*
X170463471Y-120951986D01*
X170482765Y-120950500D01*
X193821879Y-120950500D01*
X193890000Y-120970502D01*
X193893456Y-120972805D01*
X193899142Y-120976729D01*
X193899148Y-120976734D01*
X194049775Y-121055790D01*
X194049776Y-121055790D01*
X194049778Y-121055791D01*
X194189128Y-121090137D01*
X194214944Y-121096500D01*
X194214947Y-121096500D01*
X194385053Y-121096500D01*
X194385056Y-121096500D01*
X194550225Y-121055790D01*
X194700852Y-120976734D01*
X194828183Y-120863929D01*
X194924818Y-120723930D01*
X194985140Y-120564872D01*
X195005159Y-120400002D01*
X195005645Y-120396002D01*
X195005645Y-120395997D01*
X194985140Y-120227128D01*
X194924820Y-120068074D01*
X194924818Y-120068070D01*
X194828183Y-119928071D01*
X194828181Y-119928069D01*
X194700857Y-119815270D01*
X194700851Y-119815265D01*
X194550225Y-119736210D01*
X194550221Y-119736208D01*
X194385059Y-119695500D01*
X194385056Y-119695500D01*
X194214944Y-119695500D01*
X194214940Y-119695500D01*
X194049778Y-119736208D01*
X194049774Y-119736210D01*
X193899148Y-119815265D01*
X193899142Y-119815270D01*
X193896271Y-119817814D01*
X193893720Y-119819012D01*
X193892874Y-119819597D01*
X193892776Y-119819456D01*
X193832018Y-119848013D01*
X193812720Y-119849500D01*
X192536101Y-119849500D01*
X192467980Y-119829498D01*
X192421487Y-119775842D01*
X192411383Y-119705568D01*
X192421487Y-119671158D01*
X192440574Y-119629364D01*
X192440849Y-119627447D01*
X192459174Y-119500003D01*
X192459174Y-119499996D01*
X192440575Y-119370642D01*
X192440574Y-119370641D01*
X192440574Y-119370636D01*
X192386282Y-119251752D01*
X192386280Y-119251750D01*
X192386279Y-119251747D01*
X192300697Y-119152980D01*
X192300693Y-119152977D01*
X192190748Y-119082321D01*
X192190750Y-119082321D01*
X192065350Y-119045500D01*
X192065347Y-119045500D01*
X191934653Y-119045500D01*
X191934649Y-119045500D01*
X191809252Y-119082320D01*
X191769953Y-119107576D01*
X191742065Y-119125498D01*
X191673947Y-119145500D01*
X191583666Y-119145500D01*
X191515545Y-119125498D01*
X191469052Y-119071842D01*
X191460018Y-119009012D01*
X191459174Y-119009012D01*
X191459174Y-119003139D01*
X191458948Y-119001569D01*
X191459174Y-119000000D01*
X191459174Y-118999999D01*
X191459174Y-118999996D01*
X191440575Y-118870642D01*
X191440574Y-118870641D01*
X191440574Y-118870636D01*
X191386282Y-118751752D01*
X191386280Y-118751750D01*
X191386279Y-118751747D01*
X191300697Y-118652980D01*
X191300693Y-118652977D01*
X191190748Y-118582321D01*
X191190750Y-118582321D01*
X191065350Y-118545500D01*
X191065347Y-118545500D01*
X190934653Y-118545500D01*
X190934649Y-118545500D01*
X190809252Y-118582320D01*
X190787881Y-118596055D01*
X190742065Y-118625498D01*
X190673947Y-118645500D01*
X190583666Y-118645500D01*
X190515545Y-118625498D01*
X190469052Y-118571842D01*
X190460018Y-118509012D01*
X190459174Y-118509012D01*
X190459174Y-118503139D01*
X190458948Y-118501569D01*
X190459174Y-118500000D01*
X190459174Y-118499999D01*
X190459174Y-118499996D01*
X190440575Y-118370642D01*
X190440574Y-118370641D01*
X190440574Y-118370636D01*
X190386282Y-118251752D01*
X190386280Y-118251750D01*
X190386279Y-118251747D01*
X190300697Y-118152980D01*
X190300693Y-118152977D01*
X190190748Y-118082321D01*
X190190750Y-118082321D01*
X190065350Y-118045500D01*
X190065347Y-118045500D01*
X189934653Y-118045500D01*
X189934649Y-118045500D01*
X189809252Y-118082320D01*
X189769953Y-118107576D01*
X189742065Y-118125498D01*
X189673947Y-118145500D01*
X189583666Y-118145500D01*
X189515545Y-118125498D01*
X189469052Y-118071842D01*
X189460018Y-118009012D01*
X189459174Y-118009012D01*
X189459174Y-118003139D01*
X189458948Y-118001569D01*
X189459174Y-118000000D01*
X189459174Y-117999996D01*
X189440575Y-117870642D01*
X189440574Y-117870641D01*
X189440574Y-117870636D01*
X189386282Y-117751752D01*
X189386280Y-117751750D01*
X189386279Y-117751747D01*
X189300697Y-117652980D01*
X189300693Y-117652977D01*
X189190748Y-117582321D01*
X189190750Y-117582321D01*
X189065350Y-117545500D01*
X189065347Y-117545500D01*
X188934653Y-117545500D01*
X188934649Y-117545500D01*
X188809252Y-117582320D01*
X188769953Y-117607576D01*
X188742065Y-117625498D01*
X188673947Y-117645500D01*
X188583666Y-117645500D01*
X188515545Y-117625498D01*
X188469052Y-117571842D01*
X188460018Y-117509012D01*
X188459174Y-117509012D01*
X188459174Y-117503139D01*
X188458948Y-117501569D01*
X188459174Y-117500000D01*
X188459174Y-117499996D01*
X188440575Y-117370642D01*
X188440574Y-117370641D01*
X188440574Y-117370636D01*
X188386282Y-117251752D01*
X188386280Y-117251750D01*
X188386279Y-117251747D01*
X188300697Y-117152980D01*
X188300693Y-117152977D01*
X188190748Y-117082321D01*
X188190750Y-117082321D01*
X188065350Y-117045500D01*
X188065347Y-117045500D01*
X187934653Y-117045500D01*
X187934649Y-117045500D01*
X187809252Y-117082320D01*
X187769953Y-117107576D01*
X187742065Y-117125498D01*
X187673947Y-117145500D01*
X187583666Y-117145500D01*
X187515545Y-117125498D01*
X187469052Y-117071842D01*
X187460018Y-117009012D01*
X187459174Y-117009012D01*
X187459174Y-117003139D01*
X187458948Y-117001569D01*
X187459174Y-117000000D01*
X187459174Y-116999996D01*
X187453609Y-116961290D01*
X198047500Y-116961290D01*
X198079160Y-117201782D01*
X198141944Y-117436095D01*
X198141945Y-117436097D01*
X198141946Y-117436100D01*
X198234776Y-117660212D01*
X198234777Y-117660213D01*
X198234782Y-117660224D01*
X198356061Y-117870285D01*
X198356063Y-117870288D01*
X198356064Y-117870289D01*
X198503735Y-118062738D01*
X198503739Y-118062742D01*
X198503744Y-118062748D01*
X198675251Y-118234255D01*
X198675256Y-118234259D01*
X198675262Y-118234265D01*
X198867711Y-118381936D01*
X198867714Y-118381938D01*
X199077775Y-118503217D01*
X199077779Y-118503218D01*
X199077788Y-118503224D01*
X199301900Y-118596054D01*
X199536211Y-118658838D01*
X199536215Y-118658838D01*
X199536217Y-118658839D01*
X199598202Y-118666999D01*
X199776712Y-118690500D01*
X199776719Y-118690500D01*
X200019281Y-118690500D01*
X200019288Y-118690500D01*
X200236637Y-118661885D01*
X200259782Y-118658839D01*
X200259782Y-118658838D01*
X200259789Y-118658838D01*
X200494100Y-118596054D01*
X200718212Y-118503224D01*
X200928289Y-118381936D01*
X201120738Y-118234265D01*
X201292265Y-118062738D01*
X201439936Y-117870289D01*
X201561224Y-117660212D01*
X201654054Y-117436100D01*
X201716838Y-117201789D01*
X201748500Y-116961288D01*
X201748500Y-116718712D01*
X201716838Y-116478211D01*
X201654054Y-116243900D01*
X201561224Y-116019788D01*
X201561218Y-116019779D01*
X201561217Y-116019775D01*
X201439938Y-115809714D01*
X201439936Y-115809711D01*
X201292265Y-115617262D01*
X201292259Y-115617256D01*
X201292255Y-115617251D01*
X201120748Y-115445744D01*
X201120742Y-115445739D01*
X201120738Y-115445735D01*
X200928289Y-115298064D01*
X200928288Y-115298063D01*
X200928285Y-115298061D01*
X200718224Y-115176782D01*
X200718216Y-115176778D01*
X200718212Y-115176776D01*
X200494100Y-115083946D01*
X200494097Y-115083945D01*
X200494095Y-115083944D01*
X200259782Y-115021160D01*
X200019290Y-114989500D01*
X200019288Y-114989500D01*
X199776712Y-114989500D01*
X199776709Y-114989500D01*
X199536217Y-115021160D01*
X199301904Y-115083944D01*
X199301900Y-115083946D01*
X199201585Y-115125498D01*
X199077786Y-115176777D01*
X199077775Y-115176782D01*
X198867714Y-115298061D01*
X198675262Y-115445735D01*
X198675251Y-115445744D01*
X198503744Y-115617251D01*
X198503735Y-115617262D01*
X198356061Y-115809714D01*
X198234782Y-116019775D01*
X198234777Y-116019786D01*
X198234776Y-116019788D01*
X198179607Y-116152979D01*
X198141946Y-116243900D01*
X198141944Y-116243904D01*
X198079160Y-116478217D01*
X198047500Y-116718709D01*
X198047500Y-116961290D01*
X187453609Y-116961290D01*
X187440575Y-116870642D01*
X187440574Y-116870641D01*
X187440574Y-116870636D01*
X187386282Y-116751752D01*
X187386280Y-116751750D01*
X187386279Y-116751747D01*
X187300697Y-116652980D01*
X187300693Y-116652977D01*
X187190748Y-116582321D01*
X187190750Y-116582321D01*
X187065350Y-116545500D01*
X187065347Y-116545500D01*
X186934653Y-116545500D01*
X186934649Y-116545500D01*
X186809252Y-116582320D01*
X186769953Y-116607576D01*
X186742065Y-116625498D01*
X186673947Y-116645500D01*
X186583666Y-116645500D01*
X186515545Y-116625498D01*
X186469052Y-116571842D01*
X186460018Y-116509012D01*
X186459174Y-116509012D01*
X186459174Y-116503139D01*
X186458948Y-116501569D01*
X186459174Y-116500000D01*
X186459174Y-116499996D01*
X186440575Y-116370642D01*
X186440574Y-116370641D01*
X186440574Y-116370636D01*
X186386282Y-116251752D01*
X186386280Y-116251750D01*
X186386279Y-116251747D01*
X186300697Y-116152980D01*
X186300693Y-116152977D01*
X186190748Y-116082321D01*
X186190750Y-116082321D01*
X186065350Y-116045500D01*
X186065347Y-116045500D01*
X185934653Y-116045500D01*
X185934649Y-116045500D01*
X185809252Y-116082320D01*
X185769953Y-116107576D01*
X185742065Y-116125498D01*
X185673947Y-116145500D01*
X185583666Y-116145500D01*
X185515545Y-116125498D01*
X185469052Y-116071842D01*
X185460018Y-116009012D01*
X185459174Y-116009012D01*
X185459174Y-116003139D01*
X185458948Y-116001569D01*
X185459174Y-116000000D01*
X185459174Y-115999996D01*
X185440575Y-115870642D01*
X185440574Y-115870641D01*
X185440574Y-115870636D01*
X185386282Y-115751752D01*
X185386280Y-115751750D01*
X185386279Y-115751747D01*
X185300697Y-115652980D01*
X185300693Y-115652977D01*
X185190748Y-115582321D01*
X185190750Y-115582321D01*
X185065350Y-115545500D01*
X185065347Y-115545500D01*
X184934653Y-115545500D01*
X184934651Y-115545500D01*
X184934647Y-115545501D01*
X184864105Y-115566214D01*
X184793108Y-115566214D01*
X184733382Y-115527830D01*
X184703890Y-115463251D01*
X184690574Y-115370636D01*
X184636282Y-115251752D01*
X184636280Y-115251750D01*
X184636279Y-115251747D01*
X184550697Y-115152980D01*
X184550693Y-115152977D01*
X184440748Y-115082321D01*
X184440750Y-115082321D01*
X184315350Y-115045500D01*
X184315347Y-115045500D01*
X184184653Y-115045500D01*
X184184649Y-115045500D01*
X184059252Y-115082320D01*
X184019953Y-115107576D01*
X183992065Y-115125498D01*
X183923947Y-115145500D01*
X182015368Y-115145500D01*
X181947247Y-115125498D01*
X181900754Y-115071842D01*
X181890650Y-115001568D01*
X181920144Y-114936988D01*
X181947248Y-114913502D01*
X182050693Y-114847022D01*
X182050695Y-114847021D01*
X182136282Y-114748248D01*
X182190574Y-114629364D01*
X182190849Y-114627447D01*
X182209174Y-114500003D01*
X182209174Y-114499996D01*
X182190575Y-114370642D01*
X182190574Y-114370641D01*
X182190574Y-114370636D01*
X182136282Y-114251752D01*
X182136280Y-114251750D01*
X182136279Y-114251747D01*
X182050697Y-114152980D01*
X182050693Y-114152977D01*
X181947248Y-114086498D01*
X181900755Y-114032843D01*
X181890650Y-113962569D01*
X181920143Y-113897988D01*
X181979869Y-113859604D01*
X182015368Y-113854500D01*
X182923947Y-113854500D01*
X182992065Y-113874501D01*
X183059250Y-113917678D01*
X183059252Y-113917679D01*
X183184649Y-113954499D01*
X183184650Y-113954499D01*
X183184653Y-113954500D01*
X183184656Y-113954500D01*
X183315344Y-113954500D01*
X183315347Y-113954500D01*
X183440748Y-113917679D01*
X183550695Y-113847021D01*
X183636282Y-113748248D01*
X183690574Y-113629364D01*
X183704452Y-113532842D01*
X183709174Y-113500003D01*
X183709174Y-113499996D01*
X183690575Y-113370642D01*
X183690574Y-113370641D01*
X183690574Y-113370636D01*
X183636282Y-113251752D01*
X183636280Y-113251750D01*
X183636279Y-113251747D01*
X183550697Y-113152980D01*
X183550693Y-113152977D01*
X183440748Y-113082321D01*
X183440750Y-113082321D01*
X183315350Y-113045500D01*
X183315347Y-113045500D01*
X183184653Y-113045500D01*
X183184650Y-113045500D01*
X183175733Y-113046783D01*
X183175490Y-113045093D01*
X183115033Y-113045087D01*
X183055311Y-113006697D01*
X183025825Y-112942113D01*
X183035936Y-112871840D01*
X183055316Y-112841687D01*
X183136282Y-112748248D01*
X183190574Y-112629364D01*
X183209174Y-112500000D01*
X183209174Y-112499996D01*
X183208949Y-112498432D01*
X183209174Y-112496866D01*
X183209174Y-112490988D01*
X183210019Y-112490988D01*
X183219052Y-112428158D01*
X183265545Y-112374502D01*
X183333665Y-112354500D01*
X183423947Y-112354500D01*
X183492065Y-112374501D01*
X183559250Y-112417678D01*
X183559252Y-112417679D01*
X183684649Y-112454499D01*
X183684650Y-112454499D01*
X183684653Y-112454500D01*
X183684656Y-112454500D01*
X183815344Y-112454500D01*
X183815347Y-112454500D01*
X183940748Y-112417679D01*
X184050695Y-112347021D01*
X184133246Y-112251752D01*
X184136279Y-112248252D01*
X184136279Y-112248250D01*
X184136282Y-112248248D01*
X184190574Y-112129364D01*
X184202632Y-112045500D01*
X184209174Y-112000003D01*
X184209174Y-111999996D01*
X184190575Y-111870642D01*
X184190574Y-111870641D01*
X184190574Y-111870636D01*
X184136282Y-111751752D01*
X184136280Y-111751750D01*
X184136279Y-111751747D01*
X184050697Y-111652980D01*
X184050693Y-111652977D01*
X183940748Y-111582321D01*
X183940750Y-111582321D01*
X183815350Y-111545500D01*
X183815347Y-111545500D01*
X183684653Y-111545500D01*
X183684649Y-111545500D01*
X183559252Y-111582320D01*
X183519953Y-111607576D01*
X183492065Y-111625498D01*
X183423947Y-111645500D01*
X174326053Y-111645500D01*
X174257934Y-111625498D01*
X174213249Y-111596781D01*
X174190747Y-111582320D01*
X174065350Y-111545500D01*
X174065347Y-111545500D01*
X173934653Y-111545500D01*
X173934649Y-111545500D01*
X173809250Y-111582321D01*
X173699306Y-111652977D01*
X173699302Y-111652980D01*
X173613720Y-111751747D01*
X173559426Y-111870635D01*
X173559424Y-111870642D01*
X173540826Y-111999996D01*
X173540826Y-112000003D01*
X173541051Y-112001568D01*
X173540826Y-112003133D01*
X173540826Y-112009012D01*
X173539981Y-112009012D01*
X173530948Y-112071842D01*
X173484455Y-112125498D01*
X173416335Y-112145500D01*
X152576053Y-112145500D01*
X152507934Y-112125498D01*
X152463249Y-112096781D01*
X152440747Y-112082320D01*
X152315350Y-112045500D01*
X152315347Y-112045500D01*
X152184653Y-112045500D01*
X152184649Y-112045500D01*
X152059250Y-112082321D01*
X151949306Y-112152977D01*
X151949302Y-112152980D01*
X151863720Y-112251747D01*
X151809426Y-112370635D01*
X151809424Y-112370642D01*
X151790826Y-112499996D01*
X151790826Y-112500003D01*
X151809424Y-112629357D01*
X151809426Y-112629364D01*
X151863720Y-112748252D01*
X151949302Y-112847019D01*
X151949306Y-112847022D01*
X152052752Y-112913502D01*
X152099245Y-112967157D01*
X152109350Y-113037431D01*
X152079857Y-113102012D01*
X152020131Y-113140396D01*
X151984632Y-113145500D01*
X150015368Y-113145500D01*
X149947247Y-113125498D01*
X149900754Y-113071842D01*
X149890650Y-113001568D01*
X149920144Y-112936988D01*
X149947248Y-112913502D01*
X150007933Y-112874502D01*
X150050695Y-112847021D01*
X150050697Y-112847019D01*
X150136279Y-112748252D01*
X150136279Y-112748250D01*
X150136282Y-112748248D01*
X150190574Y-112629364D01*
X150209174Y-112500000D01*
X150209174Y-112499996D01*
X150190575Y-112370642D01*
X150190574Y-112370641D01*
X150190574Y-112370636D01*
X150136282Y-112251752D01*
X150136280Y-112251750D01*
X150136279Y-112251747D01*
X150050697Y-112152980D01*
X150050693Y-112152977D01*
X149940748Y-112082321D01*
X149940750Y-112082321D01*
X149815350Y-112045500D01*
X149815347Y-112045500D01*
X149684653Y-112045500D01*
X149684649Y-112045500D01*
X149559252Y-112082320D01*
X149519953Y-112107576D01*
X149492065Y-112125498D01*
X149423947Y-112145500D01*
X128576053Y-112145500D01*
X128507934Y-112125498D01*
X128463249Y-112096781D01*
X128440747Y-112082320D01*
X128315350Y-112045500D01*
X128315347Y-112045500D01*
X128184653Y-112045500D01*
X128184649Y-112045500D01*
X128059250Y-112082321D01*
X127949306Y-112152977D01*
X127949302Y-112152980D01*
X127863720Y-112251747D01*
X127809426Y-112370635D01*
X127809424Y-112370642D01*
X127790826Y-112499996D01*
X127790826Y-112500003D01*
X127809424Y-112629357D01*
X127809426Y-112629364D01*
X127863720Y-112748252D01*
X127949302Y-112847019D01*
X127949306Y-112847022D01*
X127986051Y-112870636D01*
X128059250Y-112917678D01*
X128059249Y-112917678D01*
X128184649Y-112954499D01*
X128184650Y-112954499D01*
X128184653Y-112954500D01*
X128184656Y-112954500D01*
X128315344Y-112954500D01*
X128315347Y-112954500D01*
X128440748Y-112917679D01*
X128507934Y-112874501D01*
X128576053Y-112854500D01*
X128916334Y-112854500D01*
X128984455Y-112874502D01*
X129030948Y-112928158D01*
X129039982Y-112990988D01*
X129040826Y-112990988D01*
X129040826Y-112996860D01*
X129041051Y-112998430D01*
X129041051Y-112998432D01*
X129040826Y-112999996D01*
X129040826Y-113000003D01*
X129059424Y-113129357D01*
X129059426Y-113129364D01*
X129113720Y-113248252D01*
X129199302Y-113347019D01*
X129199306Y-113347022D01*
X129236049Y-113370635D01*
X129309250Y-113417678D01*
X129309249Y-113417678D01*
X129434649Y-113454499D01*
X129434650Y-113454499D01*
X129434653Y-113454500D01*
X129434656Y-113454500D01*
X129565344Y-113454500D01*
X129565347Y-113454500D01*
X129690748Y-113417679D01*
X129757934Y-113374501D01*
X129826053Y-113354500D01*
X130166334Y-113354500D01*
X130234455Y-113374502D01*
X130280948Y-113428158D01*
X130289982Y-113490988D01*
X130290826Y-113490988D01*
X130290826Y-113496860D01*
X130291051Y-113498430D01*
X130291051Y-113498432D01*
X130290826Y-113499996D01*
X130290826Y-113500003D01*
X130309424Y-113629357D01*
X130309426Y-113629364D01*
X130363720Y-113748252D01*
X130449302Y-113847019D01*
X130449306Y-113847022D01*
X130486051Y-113870636D01*
X130559250Y-113917678D01*
X130559249Y-113917678D01*
X130684649Y-113954499D01*
X130684650Y-113954499D01*
X130684653Y-113954500D01*
X130684656Y-113954500D01*
X130815344Y-113954500D01*
X130815347Y-113954500D01*
X130940748Y-113917679D01*
X131007934Y-113874501D01*
X131076053Y-113854500D01*
X132416334Y-113854500D01*
X132484455Y-113874502D01*
X132530948Y-113928158D01*
X132539982Y-113990988D01*
X132540826Y-113990988D01*
X132540826Y-113996860D01*
X132541051Y-113998430D01*
X132541051Y-113998432D01*
X132540826Y-113999996D01*
X132540826Y-114000003D01*
X132559424Y-114129357D01*
X132559426Y-114129364D01*
X132613720Y-114248252D01*
X132699302Y-114347019D01*
X132699306Y-114347022D01*
X132736049Y-114370635D01*
X132809250Y-114417678D01*
X132809251Y-114417678D01*
X132809252Y-114417679D01*
X132934653Y-114454500D01*
X132934657Y-114454500D01*
X132943023Y-114455703D01*
X133007604Y-114485196D01*
X133045989Y-114544921D01*
X133049810Y-114562489D01*
X133059424Y-114629357D01*
X133059426Y-114629364D01*
X133113720Y-114748252D01*
X133199302Y-114847019D01*
X133199306Y-114847022D01*
X133236051Y-114870636D01*
X133309250Y-114917678D01*
X133309251Y-114917678D01*
X133309252Y-114917679D01*
X133434653Y-114954500D01*
X133434657Y-114954500D01*
X133443023Y-114955703D01*
X133507604Y-114985196D01*
X133545989Y-115044921D01*
X133549810Y-115062489D01*
X133559424Y-115129357D01*
X133559426Y-115129364D01*
X133613720Y-115248252D01*
X133699302Y-115347019D01*
X133699306Y-115347022D01*
X133736049Y-115370635D01*
X133809250Y-115417678D01*
X133809249Y-115417678D01*
X133934649Y-115454499D01*
X133934650Y-115454499D01*
X133934653Y-115454500D01*
X133934656Y-115454500D01*
X134065344Y-115454500D01*
X134065347Y-115454500D01*
X134190748Y-115417679D01*
X134257934Y-115374501D01*
X134326053Y-115354500D01*
X135416334Y-115354500D01*
X135484455Y-115374502D01*
X135530948Y-115428158D01*
X135539982Y-115490988D01*
X135540826Y-115490988D01*
X135540826Y-115496860D01*
X135541051Y-115498430D01*
X135541051Y-115498432D01*
X135540826Y-115499996D01*
X135540826Y-115500003D01*
X135559424Y-115629357D01*
X135559426Y-115629364D01*
X135613720Y-115748252D01*
X135699302Y-115847019D01*
X135699306Y-115847022D01*
X135736049Y-115870635D01*
X135809250Y-115917678D01*
X135809249Y-115917678D01*
X135934649Y-115954499D01*
X135934650Y-115954499D01*
X135934653Y-115954500D01*
X135934656Y-115954500D01*
X136065344Y-115954500D01*
X136065347Y-115954500D01*
X136190748Y-115917679D01*
X136257934Y-115874501D01*
X136326053Y-115854500D01*
X136416334Y-115854500D01*
X136484455Y-115874502D01*
X136530948Y-115928158D01*
X136539982Y-115990988D01*
X136540826Y-115990988D01*
X136540826Y-115996860D01*
X136541051Y-115998430D01*
X136541051Y-115998432D01*
X136540826Y-115999996D01*
X136540826Y-116000003D01*
X136559424Y-116129357D01*
X136559426Y-116129364D01*
X136611732Y-116243900D01*
X136613720Y-116248252D01*
X136699302Y-116347019D01*
X136699306Y-116347022D01*
X136736049Y-116370635D01*
X136809250Y-116417678D01*
X136809249Y-116417678D01*
X136934649Y-116454499D01*
X136934650Y-116454499D01*
X136934653Y-116454500D01*
X136934656Y-116454500D01*
X137065344Y-116454500D01*
X137065347Y-116454500D01*
X137190748Y-116417679D01*
X137257934Y-116374501D01*
X137326053Y-116354500D01*
X137416334Y-116354500D01*
X137484455Y-116374502D01*
X137530948Y-116428158D01*
X137539982Y-116490988D01*
X137540826Y-116490988D01*
X137540826Y-116496860D01*
X137541051Y-116498430D01*
X137541051Y-116498432D01*
X137540826Y-116499996D01*
X137540826Y-116500003D01*
X137559424Y-116629357D01*
X137559426Y-116629364D01*
X137600229Y-116718712D01*
X137613720Y-116748252D01*
X137699302Y-116847019D01*
X137699306Y-116847022D01*
X137736049Y-116870635D01*
X137809250Y-116917678D01*
X137809249Y-116917678D01*
X137934649Y-116954499D01*
X137934650Y-116954499D01*
X137934653Y-116954500D01*
X137934656Y-116954500D01*
X138065344Y-116954500D01*
X138065347Y-116954500D01*
X138190748Y-116917679D01*
X138257934Y-116874501D01*
X138326053Y-116854500D01*
X138416334Y-116854500D01*
X138484455Y-116874502D01*
X138530948Y-116928158D01*
X138539982Y-116990988D01*
X138540826Y-116990988D01*
X138540826Y-116996860D01*
X138541051Y-116998430D01*
X138541051Y-116998432D01*
X138540826Y-116999996D01*
X138540826Y-117000003D01*
X138559424Y-117129357D01*
X138559426Y-117129364D01*
X138613720Y-117248252D01*
X138699302Y-117347019D01*
X138699306Y-117347022D01*
X138736049Y-117370635D01*
X138809250Y-117417678D01*
X138809249Y-117417678D01*
X138934649Y-117454499D01*
X138934650Y-117454499D01*
X138934653Y-117454500D01*
X138934656Y-117454500D01*
X139065344Y-117454500D01*
X139065347Y-117454500D01*
X139190748Y-117417679D01*
X139257934Y-117374501D01*
X139326053Y-117354500D01*
X139416334Y-117354500D01*
X139484455Y-117374502D01*
X139530948Y-117428158D01*
X139539982Y-117490988D01*
X139540826Y-117490988D01*
X139540826Y-117496860D01*
X139541051Y-117498430D01*
X139541051Y-117498432D01*
X139540826Y-117499996D01*
X139540826Y-117500003D01*
X139559424Y-117629357D01*
X139559426Y-117629364D01*
X139613720Y-117748252D01*
X139699302Y-117847019D01*
X139699306Y-117847022D01*
X139735505Y-117870285D01*
X139809250Y-117917678D01*
X139809249Y-117917678D01*
X139934649Y-117954499D01*
X139934650Y-117954499D01*
X139934653Y-117954500D01*
X139934656Y-117954500D01*
X140065344Y-117954500D01*
X140065347Y-117954500D01*
X140190748Y-117917679D01*
X140257934Y-117874501D01*
X140326053Y-117854500D01*
X140416334Y-117854500D01*
X140484455Y-117874502D01*
X140530948Y-117928158D01*
X140539982Y-117990988D01*
X140540826Y-117990988D01*
X140540826Y-117996860D01*
X140541051Y-117998430D01*
X140541051Y-117998432D01*
X140540826Y-117999996D01*
X140540826Y-118000003D01*
X140559424Y-118129357D01*
X140559426Y-118129364D01*
X140613720Y-118248252D01*
X140699302Y-118347019D01*
X140699306Y-118347022D01*
X140704715Y-118350498D01*
X140809250Y-118417678D01*
X140809249Y-118417678D01*
X140934649Y-118454499D01*
X140934650Y-118454499D01*
X140934653Y-118454500D01*
X140934656Y-118454500D01*
X141065344Y-118454500D01*
X141065347Y-118454500D01*
X141190748Y-118417679D01*
X141264161Y-118370500D01*
X141332281Y-118350498D01*
X141416909Y-118350498D01*
X141485030Y-118370500D01*
X141531523Y-118424156D01*
X141541627Y-118494427D01*
X141540826Y-118499999D01*
X141540826Y-118500003D01*
X141559424Y-118629357D01*
X141559426Y-118629364D01*
X141613720Y-118748252D01*
X141699302Y-118847019D01*
X141699306Y-118847022D01*
X141704715Y-118850498D01*
X141809250Y-118917678D01*
X141809249Y-118917678D01*
X141934649Y-118954499D01*
X141934650Y-118954499D01*
X141934653Y-118954500D01*
X141934656Y-118954500D01*
X142065344Y-118954500D01*
X142065347Y-118954500D01*
X142190748Y-118917679D01*
X142264161Y-118870500D01*
X142332281Y-118850498D01*
X142416909Y-118850498D01*
X142485030Y-118870500D01*
X142531523Y-118924156D01*
X142541627Y-118994427D01*
X142540826Y-118999999D01*
X142540826Y-119000003D01*
X142559424Y-119129357D01*
X142559426Y-119129364D01*
X142613720Y-119248252D01*
X142699302Y-119347019D01*
X142699306Y-119347022D01*
X142704715Y-119350498D01*
X142809250Y-119417678D01*
X142809249Y-119417678D01*
X142934649Y-119454499D01*
X142934650Y-119454499D01*
X142934653Y-119454500D01*
X142934656Y-119454500D01*
X143065344Y-119454500D01*
X143065347Y-119454500D01*
X143135896Y-119433785D01*
X143206889Y-119433785D01*
X143266616Y-119472168D01*
X143296109Y-119536748D01*
X143296109Y-119536749D01*
X143309424Y-119629357D01*
X143309426Y-119629364D01*
X143328513Y-119671158D01*
X143338616Y-119741432D01*
X143309123Y-119806013D01*
X143249397Y-119844396D01*
X143213899Y-119849500D01*
X122652765Y-119849500D01*
X122584644Y-119829498D01*
X122574011Y-119821446D01*
X122570851Y-119819265D01*
X122420225Y-119740210D01*
X122420221Y-119740208D01*
X122255059Y-119699500D01*
X122255056Y-119699500D01*
X122084944Y-119699500D01*
X122084940Y-119699500D01*
X121919778Y-119740208D01*
X121919774Y-119740210D01*
X121769148Y-119819265D01*
X121769142Y-119819270D01*
X121641818Y-119932069D01*
X121641816Y-119932071D01*
X121545181Y-120072070D01*
X121545179Y-120072074D01*
X121484859Y-120231128D01*
X121464355Y-120399997D01*
X121464355Y-120400002D01*
X114325500Y-120400002D01*
X114325500Y-116961290D01*
X115878500Y-116961290D01*
X115910160Y-117201782D01*
X115972944Y-117436095D01*
X115972945Y-117436097D01*
X115972946Y-117436100D01*
X116065776Y-117660212D01*
X116065777Y-117660213D01*
X116065782Y-117660224D01*
X116187061Y-117870285D01*
X116187063Y-117870288D01*
X116187064Y-117870289D01*
X116334735Y-118062738D01*
X116334739Y-118062742D01*
X116334744Y-118062748D01*
X116506251Y-118234255D01*
X116506256Y-118234259D01*
X116506262Y-118234265D01*
X116698711Y-118381936D01*
X116698714Y-118381938D01*
X116908775Y-118503217D01*
X116908779Y-118503218D01*
X116908788Y-118503224D01*
X117132900Y-118596054D01*
X117367211Y-118658838D01*
X117367215Y-118658838D01*
X117367217Y-118658839D01*
X117429202Y-118666999D01*
X117607712Y-118690500D01*
X117607719Y-118690500D01*
X117850281Y-118690500D01*
X117850288Y-118690500D01*
X118067637Y-118661885D01*
X118090782Y-118658839D01*
X118090782Y-118658838D01*
X118090789Y-118658838D01*
X118325100Y-118596054D01*
X118549212Y-118503224D01*
X118759289Y-118381936D01*
X118951738Y-118234265D01*
X119123265Y-118062738D01*
X119270936Y-117870289D01*
X119392224Y-117660212D01*
X119485054Y-117436100D01*
X119547838Y-117201789D01*
X119579500Y-116961288D01*
X119579500Y-116718712D01*
X119547838Y-116478211D01*
X119485054Y-116243900D01*
X119392224Y-116019788D01*
X119392218Y-116019779D01*
X119392217Y-116019775D01*
X119270938Y-115809714D01*
X119270936Y-115809711D01*
X119123265Y-115617262D01*
X119123259Y-115617256D01*
X119123255Y-115617251D01*
X118951748Y-115445744D01*
X118951742Y-115445739D01*
X118951738Y-115445735D01*
X118759289Y-115298064D01*
X118759288Y-115298063D01*
X118759285Y-115298061D01*
X118549224Y-115176782D01*
X118549216Y-115176778D01*
X118549212Y-115176776D01*
X118325100Y-115083946D01*
X118325097Y-115083945D01*
X118325095Y-115083944D01*
X118090782Y-115021160D01*
X117850290Y-114989500D01*
X117850288Y-114989500D01*
X117607712Y-114989500D01*
X117607709Y-114989500D01*
X117367217Y-115021160D01*
X117132904Y-115083944D01*
X117132900Y-115083946D01*
X117032585Y-115125498D01*
X116908786Y-115176777D01*
X116908775Y-115176782D01*
X116698714Y-115298061D01*
X116506262Y-115445735D01*
X116506251Y-115445744D01*
X116334744Y-115617251D01*
X116334735Y-115617262D01*
X116187061Y-115809714D01*
X116065782Y-116019775D01*
X116065777Y-116019786D01*
X116065776Y-116019788D01*
X116010607Y-116152979D01*
X115972946Y-116243900D01*
X115972944Y-116243904D01*
X115910160Y-116478217D01*
X115878500Y-116718709D01*
X115878500Y-116961290D01*
X114325500Y-116961290D01*
X114325500Y-111401500D01*
X114345502Y-111333379D01*
X114399158Y-111286886D01*
X114451500Y-111275500D01*
X203098981Y-111275500D01*
X203167102Y-111295502D01*
G37*
%TD.AperFunction*%
%TD*%
M02*
