%TF.GenerationSoftware,KiCad,Pcbnew,8.0.0*%
%TF.CreationDate,2024-11-03T15:19:12-05:00*%
%TF.ProjectId,macintosh-dram-1m-simm,6d616369-6e74-46f7-9368-2d6472616d2d,rev?*%
%TF.SameCoordinates,Original*%
%TF.FileFunction,Soldermask,Top*%
%TF.FilePolarity,Negative*%
%FSLAX46Y46*%
G04 Gerber Fmt 4.6, Leading zero omitted, Abs format (unit mm)*
G04 Created by KiCad (PCBNEW 8.0.0) date 2024-11-03 15:19:12*
%MOMM*%
%LPD*%
G01*
G04 APERTURE LIST*
G04 Aperture macros list*
%AMOutline5P*
0 Free polygon, 5 corners , with rotation*
0 The origin of the aperture is its center*
0 number of corners: always 5*
0 $1 to $10 corner X, Y*
0 $11 Rotation angle, in degrees counterclockwise*
0 create outline with 5 corners*
4,1,5,$1,$2,$3,$4,$5,$6,$7,$8,$9,$10,$1,$2,$11*%
%AMOutline6P*
0 Free polygon, 6 corners , with rotation*
0 The origin of the aperture is its center*
0 number of corners: always 6*
0 $1 to $12 corner X, Y*
0 $13 Rotation angle, in degrees counterclockwise*
0 create outline with 6 corners*
4,1,6,$1,$2,$3,$4,$5,$6,$7,$8,$9,$10,$11,$12,$1,$2,$13*%
%AMOutline7P*
0 Free polygon, 7 corners , with rotation*
0 The origin of the aperture is its center*
0 number of corners: always 7*
0 $1 to $14 corner X, Y*
0 $15 Rotation angle, in degrees counterclockwise*
0 create outline with 7 corners*
4,1,7,$1,$2,$3,$4,$5,$6,$7,$8,$9,$10,$11,$12,$13,$14,$1,$2,$15*%
%AMOutline8P*
0 Free polygon, 8 corners , with rotation*
0 The origin of the aperture is its center*
0 number of corners: always 8*
0 $1 to $16 corner X, Y*
0 $17 Rotation angle, in degrees counterclockwise*
0 create outline with 8 corners*
4,1,8,$1,$2,$3,$4,$5,$6,$7,$8,$9,$10,$11,$12,$13,$14,$15,$16,$1,$2,$17*%
G04 Aperture macros list end*
%ADD10Outline5P,-0.890000X1.038000X-0.178000X1.750000X0.890000X1.750000X0.890000X-1.750000X-0.890000X-1.750000X0.000000*%
%ADD11R,0.800000X2.000000*%
%ADD12C,3.200000*%
%ADD13R,1.250000X1.500000*%
G04 APERTURE END LIST*
D10*
%TO.C,B1*%
X122174000Y-125098000D03*
X124714000Y-125098000D03*
X127254000Y-125098000D03*
X129794000Y-125098000D03*
X132334000Y-125098000D03*
X134874000Y-125098000D03*
X137414000Y-125098000D03*
X139954000Y-125098000D03*
X142494000Y-125098000D03*
X145034000Y-125098000D03*
X147574000Y-125098000D03*
X150114000Y-125098000D03*
X152654000Y-125098000D03*
X155194000Y-125098000D03*
X157734000Y-125098000D03*
X160274000Y-125098000D03*
X162814000Y-125098000D03*
X165354000Y-125098000D03*
X167894000Y-125098000D03*
X170434000Y-125098000D03*
X172974000Y-125098000D03*
X175514000Y-125098000D03*
X178054000Y-125098000D03*
X180594000Y-125098000D03*
X183134000Y-125098000D03*
X185674000Y-125098000D03*
X188214000Y-125098000D03*
X190754000Y-125098000D03*
X193294000Y-125098000D03*
X195834000Y-125098000D03*
%TD*%
D11*
%TO.C,U1*%
X127030000Y-120396000D03*
X128300000Y-120396000D03*
X129570000Y-120396000D03*
X130840000Y-120396000D03*
X132110000Y-120396000D03*
X137190000Y-120396000D03*
X138460000Y-120396000D03*
X139730000Y-120396000D03*
X141000000Y-120396000D03*
X142270000Y-120396000D03*
X142143000Y-113284000D03*
X140873000Y-113284000D03*
X139603000Y-113284000D03*
X138333000Y-113284000D03*
X137063000Y-113284000D03*
X131983000Y-113284000D03*
X130713000Y-113284000D03*
X129443000Y-113284000D03*
X128173000Y-113284000D03*
X127030000Y-113284000D03*
%TD*%
%TO.C,U2*%
X151130000Y-120396000D03*
X152400000Y-120396000D03*
X153670000Y-120396000D03*
X154940000Y-120396000D03*
X156210000Y-120396000D03*
X161290000Y-120396000D03*
X162560000Y-120396000D03*
X163830000Y-120396000D03*
X165100000Y-120396000D03*
X166370000Y-120396000D03*
X166243000Y-113284000D03*
X164973000Y-113284000D03*
X163703000Y-113284000D03*
X162433000Y-113284000D03*
X161163000Y-113284000D03*
X156083000Y-113284000D03*
X154813000Y-113284000D03*
X153543000Y-113284000D03*
X152273000Y-113284000D03*
X151130000Y-113284000D03*
%TD*%
D12*
%TO.C,H1*%
X117729000Y-116840000D03*
%TD*%
%TO.C,H2*%
X199898000Y-116840000D03*
%TD*%
D13*
%TO.C,C1*%
X145000000Y-120499999D03*
X145000000Y-118000001D03*
%TD*%
%TO.C,C2*%
X169250000Y-120499999D03*
X169250000Y-118000001D03*
%TD*%
%TO.C,C3*%
X193250000Y-120249999D03*
X193250000Y-117750001D03*
%TD*%
D11*
%TO.C,U3*%
X175260000Y-120396000D03*
X176530000Y-120396000D03*
X177800000Y-120396000D03*
X179070000Y-120396000D03*
X180340000Y-120396000D03*
X185420000Y-120396000D03*
X186690000Y-120396000D03*
X187960000Y-120396000D03*
X189230000Y-120396000D03*
X190500000Y-120396000D03*
X190373000Y-113284000D03*
X189103000Y-113284000D03*
X187833000Y-113284000D03*
X186563000Y-113284000D03*
X185293000Y-113284000D03*
X180213000Y-113284000D03*
X178943000Y-113284000D03*
X177673000Y-113284000D03*
X176403000Y-113284000D03*
X175260000Y-113284000D03*
%TD*%
M02*
